<svg xmlns="http://www.w3.org/2000/svg" viewBox="0 0 64.52 86.03"><defs><style>.cls-1{fill:#fff;}</style></defs><g id="Calque_2" data-name="Calque 2"><g id="Calque_1-2" data-name="Calque 1"><g id="Groupe_de_masques_4" data-name="Groupe de masques 4"><g id="PROFIL"><path id="award-solid" class="cls-1" d="M16.32,60.93c-1.46-1.46-.7-1-4.23-2a12.22,12.22,0,0,1-4.27-2.23L.2,75.39A2.69,2.69,0,0,0,1.68,78.9a2.63,2.63,0,0,0,1.11.19l8.85-.33,6.09,6.43a2.69,2.69,0,0,0,3.8.1,2.54,2.54,0,0,0,.64-.94l8.75-21.44a12.06,12.06,0,0,1-14.6-2Zm48,14.46L56.7,56.71a12.13,12.13,0,0,1-4.27,2.23c-3.54,1-2.77.54-4.23,2a12.05,12.05,0,0,1-14.6,2l8.74,21.45a2.7,2.7,0,0,0,4.45.83l6.09-6.43,8.85.34a2.71,2.71,0,0,0,2.59-3.71ZM44.19,57.13c2.56-2.61,2.86-2.39,6.52-3.39a6.81,6.81,0,0,0,4.78-4.86c1.26-4.78.93-4.2,4.36-7.69a7,7,0,0,0,1.75-6.65c-1.25-4.77-1.26-4.1,0-8.88A7,7,0,0,0,59.85,19c-3.43-3.5-3.1-2.92-4.36-7.69a6.82,6.82,0,0,0-4.78-4.87C46,5.17,46.59,5.51,43.15,2A6.7,6.7,0,0,0,36.62.23c-4.68,1.28-4,1.28-8.72,0A6.7,6.7,0,0,0,21.36,2c-3.43,3.49-2.86,3.15-7.55,4.43A6.84,6.84,0,0,0,9,11.32C7.77,16.09,8.1,15.52,4.67,19a7,7,0,0,0-1.75,6.65c1.25,4.77,1.25,4.1,0,8.88a7,7,0,0,0,1.75,6.65C8.1,44.68,7.77,44.1,9,48.87a6.8,6.8,0,0,0,4.78,4.87c3.76,1,4,.87,6.52,3.39a6.68,6.68,0,0,0,8.36,1,6.63,6.63,0,0,1,7.14,0A6.68,6.68,0,0,0,44.19,57.13ZM16.41,29.57A15.85,15.85,0,1,1,32.26,45.7,15.85,15.85,0,0,1,16.41,29.57Z"/></g></g></g></g></svg>