<svg xmlns="http://www.w3.org/2000/svg" viewBox="0 0 92.08 370.77"><defs><style>.cls-1{fill:#111121;}</style></defs><g id="Calque_2" data-name="Calque 2"><g id="Calque_1-2" data-name="Calque 1"><path class="cls-1" d="M92,231.76v3.84H.11v-3.84Z"/><path class="cls-1" d="M92,304v3.77H.14V304Z"/><path class="cls-1" d="M92.08,0V6.19H0V0Z"/><path class="cls-1" d="M.12,154.8V138.25H92V154.8Z"/><path class="cls-1" d="M92,316.73V329H.2V316.73Z"/><path class="cls-1" d="M91.94,261.13H.18V248.72H91.94Z"/><path class="cls-1" d="M.11,74.09V61.79H92v12.3Z"/><path class="cls-1" d="M92,83.07V95.41H.2V83.07Z"/><path class="cls-1" d="M.1,167.53v-8H92v8Z"/><path class="cls-1" d="M.14,337.88H91.9V346H.14Z"/><path class="cls-1" d="M92,219v8.07H.12V219Z"/><path class="cls-1" d="M.12,282.26v-8.07H92v8.06Z"/><path class="cls-1" d="M92,125.57v8.06H.12v-8.06Z"/><path class="cls-1" d="M.12,214.29v-8.1H92v8.07Z"/><path class="cls-1" d="M.12,112.34v-8.08H91.88v8.08Z"/><path class="cls-1" d="M.11,48.6v-8H92v8Z"/><path class="cls-1" d="M.11,27.36V19.3H92v8.06Z"/><path class="cls-1" d="M.12,370.77v-7.36H91.88v7.36Z"/><path class="cls-1" d="M92,185v3.83H.11V185Z"/><path class="cls-1" d="M92,176.54v3.83H.12v-3.83Z"/><path class="cls-1" d="M92,117.05v3.84H.11v-3.84Z"/><path class="cls-1" d="M92,53.32v3.87H.11V53.32Z"/><path class="cls-1" d="M92,350.7v3.87H.13L0,350.7Z"/><path class="cls-1" d="M.11,290.76v-3.82H92v3.82Z"/></g></g></svg>