<svg xmlns="http://www.w3.org/2000/svg" viewBox="0 0 93.42 75.54"><defs><style>.cls-1{fill:#1b1a33;}</style></defs><g id="Calque_2" data-name="Calque 2"><g id="Calque_1-2" data-name="Calque 1"><path class="cls-1" d="M79.33,75.54H14.05a5,5,0,0,1-5-5v-5a5,5,0,0,1,5-5H79.33a5,5,0,0,1,5,5v5A5,5,0,0,1,79.33,75.54ZM93.42,17.36c0-3.75-2.57-6.78-5.73-6.78S82,13.58,82,17.36a7.3,7.3,0,0,0,1.94,5l-7.3,9.69a7.37,7.37,0,0,1-10.41.07,7.45,7.45,0,0,1-.85-1l-15-19.17a7.25,7.25,0,0,0,2.06-5.16C52.39,3,49.82,0,46.66,0s-5.74,3-5.74,6.78a7.21,7.21,0,0,0,2.15,5.28l-14.46,19c-2.9,3.81-7.81,4.32-11.22,1.14L9.3,22.6a7.24,7.24,0,0,0,2.16-5.27c0-3.75-2.56-6.78-5.73-6.78S0,13.55,0,17.33c0,3.25,1.94,6,4.52,6.62l5.81,30.61H83L88.83,24c2.62-.6,4.59-3.33,4.59-6.61Z"/></g></g></svg>