<svg xmlns="http://www.w3.org/2000/svg" viewBox="0 0 465.48 468.79"><defs><style>.cls-1{fill:#111121;}</style></defs><g id="Calque_2" data-name="Calque 2"><g id="Calque_1-2" data-name="Calque 1"><path class="cls-1" d="M0,220.61v-6.79c1.05,4.33,2.07,8.67,3.16,13,.76,3,1.62,5.91,2.44,8.86A.77.77,0,0,0,6,235c-.12-6.44-.38-12.89-.32-19.32a135.12,135.12,0,0,1,7.45-44.6A271.46,271.46,0,0,1,39,118.59c5.68-9.11,11.71-18,17.22-27.19,8.12-13.58,12.26-28.14,10.47-44.1A95.61,95.61,0,0,0,62,26.3C58.85,17.14,54.24,8.65,49.77.1h1.79C53,3,54.38,5.94,55.88,8.82,61.75,20.25,66.18,32.08,67.77,45c1.71,13.92-.13,27.17-6.48,39.62a209.93,209.93,0,0,1-11.92,20.34C37,123.72,25.71,143.11,17.15,164,9.26,183.31,6.51,203.38,7,224a12.72,12.72,0,0,0,.49-2.2,105.52,105.52,0,0,1,8.41-31.48C21.24,178,28.61,166.82,36,155.59c8.67-13.06,17.5-26,24.62-40,6-11.81,11-23.94,13.34-37a89.72,89.72,0,0,0-1.92-41.77A98.63,98.63,0,0,0,59.36,9.71C57.19,6.44,54.88,3.27,52.63.06h1.79c1.06,1.56,2.06,3.15,3.19,4.68A98.77,98.77,0,0,1,75.48,45.08c2.7,14.51,1.63,28.84-2.25,43-4.31,15.79-11.81,30.17-20.28,44-7.75,12.74-16.2,24.91-24.21,37.4C20.09,183,13.19,197.24,10.18,213.13,9.5,216.72,9,220.35,8.46,224a46.33,46.33,0,0,0,2.36-6.57c4-12.57,11.45-23.07,20.43-32.57,9.55-10.13,19.26-20.14,26.6-32.13,2.67-4.36,6.14-8.24,8.76-12.62A162.68,162.68,0,0,0,75.08,124c5.58-12.24,8.93-25.08,8.59-38.6-.23-9.29-.77-18.6-1.78-27.83a92.25,92.25,0,0,0-16-42.93C62.47,9.65,58.76,4.91,55.19.08h5.29a10,10,0,0,0,.71,1c7.92,8.74,14.29,18.36,18.19,29.57.55,1.62,1.06,3.25,1.6,4.87A6.15,6.15,0,0,0,80.67,33C77.74,22.74,72,13.91,66,5.25,64.83,3.56,63.77,1.82,62.66.06h1.43c2.77,4.09,5.6,8.16,8.31,12.3,4.7,7.18,8.47,14.8,10.31,23.24,1.1,5.07,2,10.19,3,15.24a20.62,20.62,0,0,0,.14-3.6C83.91,33.1,80,19.65,72.27,7.47,70.75,5.06,69.48,2.53,68,.06h1.45c3.21,5.76,6.65,11.41,9.6,17.31,3.27,6.55,5.1,13.64,6.7,20.78a5.62,5.62,0,0,0,0-1.42c-1.21-8.75-4.2-17-7.75-25C76.26,7.82,74.48,4,72.68.06h1.43L85,25.06c-.26-1.34-.57-3.71-1.19-6-1.75-6.37-3.62-12.7-5.44-19h3.94c.71,2.57,1.43,5.15,2.13,7.76,1.45,5.27,3.31,10.48,4.23,15.85,1.6,9.26,1.24,18.66.86,28-.48,11.68-1.11,23.35-1.44,35a113.32,113.32,0,0,1-2.6,22.55c-.43,1.84-.94,3.67-1.41,5.51a121.82,121.82,0,0,0,5.36-11.32,96.13,96.13,0,0,0,7.61-33.1c.86-16.46-2-32.42-6.15-48.24a98.69,98.69,0,0,1-3.58-22h1.43c.69,5.06,1.08,10.18,2.06,15.19,2,10,4.52,20,6.31,30.08a114.28,114.28,0,0,1,.75,31.72c-1.2,11.65-5,22.51-9.81,33.08-1.21,2.66-2.4,5.34-3.6,8q6.44-8.77,12.26-17.86a53.22,53.22,0,0,0,8.53-29.64c0-12-2-23.74-3.75-35.52s-3-23.3-1.29-35.07h1.43c-.14,1.12-.29,2.24-.41,3.37-1.17,10.67.21,21.19,1.65,31.72,1.35,10,2.69,20,3.53,30,.76,9,0,18-3.65,26.51a99.05,99.05,0,0,1-9.91,17.17c-.78,1.14-1.54,2.3-2.31,3.45l.36.29a40,40,0,0,0,4.33-4.21,81.65,81.65,0,0,0,13.15-24.68c2.85-8.74,2.94-18,3.57-27s-1.31-17.57-2.27-26.34A93,93,0,0,1,111.35.11h1.43a84.13,84.13,0,0,0-1.23,33.41c2.46,14.36,2,28.61,0,42.93-1,7.18-3.91,13.6-7.14,19.93-1.42,2.77-3,5.45-4.49,8.18a7.86,7.86,0,0,0,2-1.77c2.75-3.46,5.51-6.9,8.19-10.4a60.88,60.88,0,0,0,13-39.1c-.14-7.61-1.17-15.21-2-22.79-.72-7.33-1.83-14.58-2.63-21.87a76.57,76.57,0,0,1,0-8.57h4a7.34,7.34,0,0,1,0,1.24c-.84,13.55,1.73,26.57,6,39.34,2,5.87,4.4,11.64,5.7,17.66,2.39,11,4.24,22.12,6,33.23a118.55,118.55,0,0,1,1.54,28.34c-.1,1.3-.19,2.6-.29,3.91l.47.1c1.24-4.34,2.79-8.61,3.64-13,1.6-8.32.94-16.75.31-25.14-1-13.1-3.66-25.95-6.16-38.82-3-15.47-5.62-31-4.8-46.84h1.43a113.89,113.89,0,0,0,1.33,26.21c2.19,13.34,4.73,26.63,7.07,40a189.08,189.08,0,0,1,3.09,32.38c0,5.12,0,10.26-1.45,15.26-.77,2.66-1.6,5.31-2.49,8.28a5.55,5.55,0,0,0,.66-.71,78.24,78.24,0,0,0,7.24-17.44,108.53,108.53,0,0,0,2.76-36c-.62-7.82-1.53-15.64-2.7-23.4C149.7,29.82,147.1,15,146.48.06h1.43c.48,12.11,2.22,24.07,4.15,36,1.14,7.11,2.22,14.24,3.06,21.39.65,5.48,1.08,11,1.23,16.53.3,10.41-.43,20.75-3.32,30.81-1,3.64-2.37,7.18-3.57,10.77l.43.27c2-3.32,4.42-6.47,5.84-10,4.57-11.39,7.07-23.37,9-35.43a144.67,144.67,0,0,0,1.72-22c0-8.33-.73-16.66-1.23-25-.46-7.79-1-15.58-1.54-23.36h1.43c.26,5.35.31,10.72.83,16.05,1.2,12.52,2.79,25,1.65,37.63-.6,6.57-1,13.17-2,19.68a169.73,169.73,0,0,1-3.76,17.27c-1.45,5.52-3.26,11-5,16.38a27.17,27.17,0,0,1-2,3.91,17.53,17.53,0,0,0,3.42-3.92c2.62-4.19,5.33-8.34,7.66-12.69,5.73-10.71,9.48-22.21,13.1-33.77a119.05,119.05,0,0,0,5.13-34.51,172.58,172.58,0,0,0-1.49-26h1.43V1.49c.47,6.83,1.25,13.66,1.36,20.49.18,11.77-.63,23.45-4,34.86-4.07,13.91-8.56,27.64-15.53,40.44-.32.58-.63,1.17-.94,1.76l.5.33c3.39-4.38,6.89-8.67,10.13-13.15,5.24-7.26,8.55-15.53,11.92-23.74,6.46-15.66,11.16-31.84,12.09-48.87.25-4.5-.1-9-.18-13.55h3.94c.1,3.4.19,6.8.29,10.2h.52c.33-3.4.65-6.81,1-10.21h1.43q-2,13.41-4,26.77a3.94,3.94,0,0,0,.34-.72c1.21-4.53,2.54-9,3.56-13.62.92-4.1,1.48-8.28,2.2-12.43h1.43a8.46,8.46,0,0,1-.08,1.42c-1.22,5.82-2.44,11.63-3.71,17.44-.35,1.65-.84,3.27-1.27,4.9,4.26-7.38,5.45-15.66,7.21-23.76h1.43q-.91,4.49-1.85,9l.39.14q2.16-4.56,4.33-9.1H223c-2.15,4.27-4.24,8.63-6.55,12.88C211,23.15,205.32,33.23,199.94,43.46c-5.71,10.89-10.63,22.1-13.39,34.19a108.79,108.79,0,0,0-2.85,19.58A131.41,131.41,0,0,0,186,125.36c2,11.38,5.87,22.2,10.1,32.9.26.65.59,1.27.88,1.9a2,2,0,0,0,0-1.24,147.83,147.83,0,0,1-3.36-29.8,188,188,0,0,1,4.88-43.45,368,368,0,0,1,13.29-44.49c5-13.78,10.33-27.42,15.52-41.12h1.43c-.92,2.45-1.8,4.92-2.76,7.36-8.81,22.33-17.25,44.8-23.53,68a210,210,0,0,0-7.26,43.11,139.47,139.47,0,0,0,4.35,44.84c1.19,4.38,3.31,8.5,5,12.74l.5-.2c-.39-2-.76-3.95-1.18-5.92a138.92,138.92,0,0,1,.48-59.62A350.24,350.24,0,0,1,216,71c5.46-15.69,11.08-31.35,14.71-47.6,1.72-7.73,3-15.55,4.48-23.33h1.43a3.86,3.86,0,0,1-.07.89,325.35,325.35,0,0,1-13.24,53.18c-5.31,16-10.67,32-15.51,48.11a141.77,141.77,0,0,0-5.54,34.34c-.48,10.49.73,20.84,2.58,31.13.79,4.37,1.79,8.7,2.7,13,.19-2.77.26-5.48.18-8.18-.5-16.56,3-32.45,7.89-48.12,6.28-20.13,12.61-40.25,18.67-60.44a222.77,222.77,0,0,0,8.47-42.71c.67-7.06.94-14.16,1.39-21.24h1.43c-.07.59-.16,1.17-.2,1.76-.39,6.25-.64,12.5-1.2,18.73a222.57,222.57,0,0,1-8.63,44.13q-8.61,28.85-17.77,57.52c-5.27,16.62-9.26,33.42-8.68,51,.06,1.9.1,3.81.22,5.71s.33,3.77.5,5.65a4.82,4.82,0,0,0,.51-1.94c1.17-10.06,1.9-20.18,4.59-30,3.26-11.94,8.08-23.29,13-34.58,8.66-19.72,16.3-39.79,21.13-60.83a185.19,185.19,0,0,0,5.07-39.29c.07-6-.21-11.91-.34-17.87h1.44a13.45,13.45,0,0,0,0,1.42,186,186,0,0,1-2.36,44.4,237.09,237.09,0,0,1-11.77,43.23c-4.69,12.36-9.84,24.55-14.93,36.76-4.91,11.79-9.65,23.63-11.83,36.29-.9,5.21-1.41,10.48-2.1,15.73a3.45,3.45,0,0,0,.83-1.55c1.58-5,2.85-10.12,4.81-15A265.6,265.6,0,0,1,237,123.82c11.16-18.48,19.72-38,24.68-59.08a125.18,125.18,0,0,0,3-40.32C264,16.26,262.3,8.18,261,.06h3.59l1.59,8.19.25-.06L268.21.06h3.58c-.71,3.8-1.62,7.57-2.08,11.4a97.79,97.79,0,0,0,.69,26.36,156,156,0,0,0,3.17,16.48c1.57,5.91,4,11.59,5.66,17.47,3.14,11,6,22.06,9,33.09,4,14.86,7.13,29.89,7.67,45.35a9.8,9.8,0,0,0,.21,1.32c2.5-12.46,1.75-24.84-1-37.08-1.8-8-4.09-15.92-6.19-23.86-3.39-12.84-6.7-25.69-9-38.79a194.76,194.76,0,0,1-3.34-32.31c-.06-6.48.57-13,.89-19.45h1.44c-.1.83-.22,1.65-.3,2.48-1.84,19.12-.09,38,4.14,56.66,3.43,15.1,7.51,30,11.41,45,2.9,11.17,5.12,22.44,4.82,34-.11,4.13-.55,8.26-.84,12.45.16-.32.34-.62.47-.94a49.59,49.59,0,0,0,3.23-15.87c.63-14-1.29-27.7-3.81-41.41-3-16.46-5.81-33-8.53-49.48a176.14,176.14,0,0,1-1.92-36.56q.15-3.21.28-6.41h1.43a11.06,11.06,0,0,1,0,1.41,174.15,174.15,0,0,0,1.37,40.87c2.59,17,5.77,34,8.86,50.9,3,16.64,5.34,33.29,2.51,50.17a3,3,0,0,0,.28-.57c.27-1,.52-2,.77-2.94,3.35-13,5.44-26.28,4.78-39.8-.4-8-1-16.07-1.85-24.07C304,56.66,301.61,37.37,299.56,18c-.63-6-.67-12-1-18h1.07c.34,4.81.56,9.63,1,14.43,1.31,13.1,2.72,26.19,4.11,39.29,1.3,12.26,2.65,24.52,3.9,36.8a128.62,128.62,0,0,1-1.46,37.26c-.86,4.53-1.91,9-2.88,13.52a37.38,37.38,0,0,0,1.75-3.46,119.79,119.79,0,0,0,10.78-35.26,227.12,227.12,0,0,0,1.58-45.14A360.5,360.5,0,0,0,312,10.4C311.29,7,310.7,3.51,310.07.06h1.07c1,5,2.1,9.9,3.08,14.86a328.94,328.94,0,0,1,5.4,39.66,223.47,223.47,0,0,1-.91,44.11c-1.4,11.13-3.71,22.13-8.23,32.44-1.41,3.23-2.79,6.48-4.18,9.72a48,48,0,0,0,4.18-4.93c5.74-7.58,9.73-16.1,13.35-24.8,6.66-16,10.53-32.52,10.47-49.89A135.11,135.11,0,0,0,319.76.06h3.94c1.49,3.33,3,6.66,4.5,10.09.17-3.47.35-6.78.52-10.09h3.22a3.27,3.27,0,0,1,.08.7c-1,9,1,17.52,3.18,26.1a83.67,83.67,0,0,1,3,15.76,214.24,214.24,0,0,1-.55,35.73c-1,9.79-3,19.32-7.61,28.13-.25.48-.43,1-.64,1.5a65.51,65.51,0,0,0,9.7-16,61.27,61.27,0,0,0,4.55-22.16c.21-11.44.2-22.91-.44-34.33C342.79,28,341,20.66,340,13.21c-.56-4.35-.64-8.77-.93-13.15h1.41c.3,4.56.39,9.16,1,13.69,1,7.62,2.77,15.17,3.22,22.81.64,10.76.62,21.58.39,32.36A64.27,64.27,0,0,1,332.88,106c-1.22,1.7-2.36,3.47-3.54,5.2a.65.65,0,0,0,.62-.09c10.37-10.4,16.88-23,20.56-37.07,2.45-9.37,1.85-18.92,1.39-28.47q-.77-15.7-1.12-31.44c-.11-4.7.3-9.4.47-14.1h1.44c-.14,2.07-.32,4.15-.4,6.23a412.9,412.9,0,0,0,1.18,45.05,70.1,70.1,0,0,1-3,27.55c-3.24,9.74-7.38,19-14.08,26.92-3.39,4-6.94,7.87-10.41,11.8-.59.67-1.15,1.37-1.72,2.06l.53.43c6.93-7.62,13.74-15.28,20.68-22.83a37,37,0,0,0,7.91-14.85c1.95-6.57,3.75-13.18,5.71-19.74a105.06,105.06,0,0,0,4.64-27.24c.22-7.79,0-15.61-.09-23.41,0-4-.14-8-.21-12h1.43c.11,11.91.49,23.84.24,35.75a99.21,99.21,0,0,1-4.43,26.37c-2.23,7.45-4.31,15-6.46,22.43,2.37-3.49,4.79-7,6.26-10.9,2.65-7,4.71-14.23,7-21.35a66.76,66.76,0,0,0,3.12-25.72c-.59-8.79-.74-17.69-1.12-26.55h1.44c.12,6,.22,11.91.37,17.87.18,6.91.66,13.82.54,20.72-.13,7.51-3.59,14.27-5.55,21.37-1.11,4-2.39,7.93-3.59,11.9l.46.18c1.42-3,3-5.92,4.24-9,1.78-4.29,3.6-8.59,5-13,5-16.4,3.89-33.27,3.58-50.06h6.44a26.93,26.93,0,0,0,.2,3.36c1.41,10.43,5,20.21,9,29.87s8.62,19.19,11.8,29.15c3.91,12.29,6.81,24.93,9.8,37.49,3.7,15.54,7,31.18,12.89,46.09,1.57,4,3.32,7.87,5,11.79-.74-3.51-1.91-6.86-2.81-10.29-4.06-15.31-5.94-31-7.84-46.69-1.22-10.13-2.14-20.35-5.87-29.93-3.28-8.43-7-16.68-10.82-24.91C397,31.31,391.88,16.2,390.32,0h1.43c.9,5.34,1.57,10.73,2.76,16,2.81,12.45,7.85,24.09,13.49,35.48,6.12,12.5,10.87,25.41,12.59,39.3,1.3,10.53,2.64,21,4.12,31.55,1.72,12.22,3.87,24.38,8.55,35.89,2.24,5.51,4.91,10.84,7.38,16.26.35-.27.38-.4.34-.49-.18-.5-.38-1-.59-1.49a102.51,102.51,0,0,1-8.73-38.11q-.29-12.25-.47-24.5c-.18-13-1.82-25.82-6.43-38.06-3.95-10.47-8.27-20.81-12.5-31.17C406.91,27.59,402.15,14.32,401,.05h1.47a98.76,98.76,0,0,0,6.63,28.45C414,41.35,419.48,54,424.48,66.82c3.92,10,6.81,20.39,7.41,31.19q.84,15.09.93,30.22c.11,15,2.66,29.53,8.7,43.35a5.5,5.5,0,0,0,.51.75,32.9,32.9,0,0,0-.93-5.84c-2-9.66-1.93-19.43-1.53-29.22.37-9.06,1-18.1,1.24-27.16a105.87,105.87,0,0,0-6.47-39.29c-3.5-9.56-7.49-18.94-11.26-28.39a124.54,124.54,0,0,1-8.6-32.79c-.34-3.19-.65-6.39-1-9.58h1.44c.08.58.21,1.16.24,1.75A96.9,96.9,0,0,0,419.93,29c3.36,9.73,6.95,19.41,11.05,28.85a132.69,132.69,0,0,1,10.65,65.81A195.37,195.37,0,0,0,441,156c.15,1.89.37,3.77.56,5.66a22.23,22.23,0,0,0,.78-4.43c.5-3.3,1.29-6.56,1.59-9.88a287.37,287.37,0,0,1,5.29-34.78c2.25-10.51,3-21.07.63-31.59-1.54-7-3.9-13.74-5.86-20.61-4-14.09-8.19-28.14-12-42.29-1.58-5.91-2.34-12-3.47-18.06h1.43c1.59,8,2.71,16.14,4.86,24,4.3,15.62,9,31.13,13.84,46.59a78.75,78.75,0,0,1,2.72,38c-1.48,8.27-3,16.53-4.43,24.81-.41,2.34-.64,4.71-.94,7.07a54.36,54.36,0,0,0,4-10c1.79-6.67,3.19-13.45,4.91-20.14a159.16,159.16,0,0,0,5.18-34.58c.57-18.46-2.54-36.47-6.72-54.34-1.67-7.13-3.42-14.24-5.14-21.36h1.44c.84,3.3,1.66,6.71,2.48,10,4.17,17,8.11,34.07,9.14,51.65a148.57,148.57,0,0,1-3.48,42.62c-1.31,5.67-2.72,11.32-4.08,17a3.35,3.35,0,0,0,.93-1.3q2.92-7,5.83-14,2.51-6.09,5-12.17v19.69c-1.6,2.22-3.31,4.37-4.79,6.67C452.92,132.29,447,145,446,159.55c-.77,11.7,0,23.25,4.37,34.32a12.07,12.07,0,0,1,1.09,4.25,22.16,22.16,0,0,0,1.91,8.48c2,5.05,3.89,10.12,6.06,15.09,1.85,4.25,4,8.36,6,12.53v13.6c-.61-1.67-1.2-3.34-1.82-5-1-2.77-2.09-5.55-3.23-8.57,1.29,8.2,2.54,16.06,3.79,23.93.41,2.63.84,5.26,1.26,7.9v10.74a8.86,8.86,0,0,1-.37-1.34c-1.55-10.85-3-21.71-4.67-32.55-.66-4.32-1.81-8.57-2.74-12.86a1.23,1.23,0,0,0-.36,1.13A142.79,142.79,0,0,1,459.57,264c-.66,12.37-1.91,24.72-3.08,37.06-.83,8.84-1.91,17.65-2.93,26.47-1.68,14.51-3.67,29-5,43.51-1.58,17-1,34,3.35,50.62.3,1.16.57,2.32.95,3.45s.85,2.22,1.31,3.32.91,2.05,1.37,3.08a194.39,194.39,0,0,1-2.85-19.81c-.94-13.67,1.24-27.11,4-40.45,2.09-9.91,4.31-19.79,6.43-29.69.84-3.89,1.55-7.81,2.32-11.71V338c-.68,3-1.4,6-2,9-3.09,14.45-6.79,28.77-8.57,43.47-1.41,11.72-1.57,23.42,1,35,.51,2.35,1.19,4.66,1.79,7a3.51,3.51,0,0,0,.21-2c-.54-5.51-1.44-11-1.54-16.53a98.89,98.89,0,0,1,5.15-32.68c1.22-3.72,2.67-7.35,4-11v3.94c-.15.31-.34.62-.46.94a115.45,115.45,0,0,0-7,29.13c-.19,1.9-.33,3.8-.4,5.71s0,3.79,0,4.84c1.33-6.1,2.7-13,4.38-19.79.87-3.55,2.28-7,3.45-10.45v15a51.86,51.86,0,0,0-3.89,15.49,94.56,94.56,0,0,0,1.54,23.33c.68,3.79,1.56,7.54,2.35,11.31v16.11H303.12l3,2.83a.77.77,0,0,1-.75,0c-2.1-.82-3.43-2.88-6.13-2.87q-73.38.12-146.76.06-61.57,0-123.14.1c-9.78,0-19.56-.06-29.34-.09V451.56a2.59,2.59,0,0,1,.32.59c1.07,4,2.1,8.07,3.22,12.08.14.5.72,1.21,1.13,1.24,2.06.12,4.14,0,6.4,0-1.29-4.95-2.57-9.66-3.75-14.39-2.6-10.39-4.46-20.85-3.9-31.65.65-12.68,3.67-24.85,7.69-36.8,3.64-10.86,7.67-21.55,11.26-32.4C25.85,339.75,28,329,27.25,317.82c-.18-2.71-.64-5.39-1-8.08H25.8v1.52c-.12,3.86.07,7.78-.46,11.58-.59,4.17-1.95,8.22-2.8,12.36a116.17,116.17,0,0,1-8.16,24.9,171.06,171.06,0,0,0-8.55,22.53C4.21,388.15,2,393.5,0,398.92V383.53c.28-.59.6-1.17.82-1.78,1.94-5.19,3.8-10.41,5.8-15.58,4.51-11.67,9.1-23.35,11.86-35.58a86.18,86.18,0,0,0,.28-37.95c-2.59-11.71-6.83-22.82-11.65-33.74C5,254.06,2.6,249.33.33,244.54L0,244.25v-9.31l4.43,7.95.47-.23Q2.46,237,0,231.36v-3.54q2.42,5.38,4.84,10.79c-.46-2.19-1.08-4.34-1.68-6.5Zm222.62,152.6a126.4,126.4,0,0,0,11.78,19.17,4.67,4.67,0,0,0-.63-1.57c-1.64-2.63-3.3-5.24-4.94-7.88-2-3.27-4-6.56-6.06-9.85a2.29,2.29,0,0,0-.11-.52c-6.53-11.63-11.19-24-15.12-36.74a3.47,3.47,0,0,0-.52-.69c-.1,1.16-.2,2.1-.27,3.05-.46,6.56.25,12.9,4.07,18.47S218.68,367.7,222.62,373.21Zm66.54,4.61.42.19c2.27-5.55,4.79-11,6.75-16.68,4.51-13,6.86-26.5,8.13-40.21a203.64,203.64,0,0,0-1.68-49.39c-2.26-15-5.87-29.68-9.61-44.35-2.89-11.36-4.82-22.87-4.56-34.65.07-3.06.36-6.12.55-9.22-1.1,2.73-2.2,5.42-3.27,8.12-1.94,4.93-4.51,9.72-5.67,14.82a95.54,95.54,0,0,0-1.34,34.17c1.45,10.66,3.55,21.25,5.57,31.84,3.63,19.1,7.1,38.22,7.93,57.7a194.51,194.51,0,0,1-.9,33.26C290.84,368.25,289.94,373,289.16,377.82ZM338,291.9a37.39,37.39,0,0,0,1.5-4.36c2-9.55,4.44-19.05,5.83-28.7C348,241,347.45,223,346,205.09c-1-12.6-2.47-25.15-3.48-37.75a91.56,91.56,0,0,1,3.6-34c3.05-10.09,6.7-20,10.1-30,1.56-4.58,3.15-9.16,4.73-13.74a.91.91,0,0,0-.67.5c-4.69,8.77-9.24,17.62-14.1,26.3-7.59,13.56-14.53,27.38-18.68,42.44-3.32,12-4.39,24.17-1.68,36.44,1.77,8,3.9,16,5.7,24,3.07,13.67,5.75,27.43,7,41.4.93,10.41,1.72,20.78-.51,31.25Zm-89.35-27.38.39-.06a7.25,7.25,0,0,0,0-1.14c-.38-3.74-.79-7.47-1.16-11.21-1.53-15.59-.29-31,5.27-45.63,4.09-10.77,9.32-21.12,14.23-31.56a129.29,129.29,0,0,0,7.76-19.71,122.81,122.81,0,0,0,4.38-31.62c.26-16.66-2.06-33-5.1-49.37-.48-2.61-1.09-5.19-1.64-7.78a51.1,51.1,0,0,0,0,7c.62,15.6-.44,31-5.42,45.93-3.58,10.73-7.54,21.35-11.7,31.88a158.36,158.36,0,0,0-11.51,52.66,317.36,317.36,0,0,0,2.82,52.64C247.42,259.24,248.14,261.87,248.69,264.52ZM283.26,194l-.42-.18c-2.6,4-5.7,7.74-7.67,12A164.58,164.58,0,0,0,267.93,225a62.29,62.29,0,0,0-2.07,27.27c1.22,9.08,3,18.09,4.84,27.07,1.94,9.64,4.22,19.21,6.3,28.82a236.63,236.63,0,0,1,4.73,31.44c.67,8.8,1.34,17.6,1.79,26.42.25,5,.2,10.12,0,15.17-.09,2.89-.66,5.76-1,8.63l.48.17c1.36-3.53,3-7,4-10.6a116.8,116.8,0,0,0,4-26.48,229.26,229.26,0,0,0-2.27-46.75c-2.44-15.71-5.37-31.35-8.36-47-2.62-13.64-4.53-27.3-3.24-41.22.57-6,1.1-12.12,3.5-17.82Zm-11.9,16.85c-4.08,4.73-10.1,15.82-12.59,21.75-5.57,13.25-6.29,27.25-5.9,41.25.21,7.81,2,15.45,4,23a332.36,332.36,0,0,0,14,41.08,129.82,129.82,0,0,1,9.6,39.07c.28,3.66.36,7.33.53,11h.62c.32-4.43,1-8.87.89-13.29-.21-7.92-1-15.83-1.37-23.75a291.16,291.16,0,0,0-6.66-48.2c-3.41-15.59-6.8-31.2-9.56-46.91a69.36,69.36,0,0,1,2.91-35.3C269,217.28,270.18,214.06,271.36,210.82Zm-22,43h.46a10.32,10.32,0,0,1,.15-1.35c.66-5.08,1.07-10.2,2-15.22,2-10.49,7-19.7,13-28.39,4.63-6.72,9.52-13.26,14.18-20S287.92,175.07,290,167c3-11.79,2.66-23.63.53-35.47a339.93,339.93,0,0,0-10.4-41.95c-.94-3-1.84-6-2.75-9a2.65,2.65,0,0,0-.08,1.45c2.44,14.67,4.06,29.4,3.59,44.31-.46,14.5-3.09,28.54-9,41.83-3.3,7.45-6.83,14.81-10.52,22.08-8.2,16.18-12.74,33.22-12.59,51.41C248.85,245.82,249.17,249.82,249.36,253.82Zm92.86,29.5a2.3,2.3,0,0,0,.32-.38,70.33,70.33,0,0,0,6.92-18.9c3.32-16.33,6.6-32.69,9.52-49.1a132.13,132.13,0,0,0,1.5-35.63c-1.2-12.69-2.56-25.38-3.67-38.08a148.65,148.65,0,0,1,.78-31.06c.35-2.91.79-5.82,1.19-8.73a1.5,1.5,0,0,0-.69.87c-2.75,7.75-5.58,15.46-8.22,23.24-4.37,12.93-6.87,26.18-6.06,39.88.5,8.5,1.2,17,2.18,25.46a351.19,351.19,0,0,1,2.49,39.43,193.48,193.48,0,0,1-2.23,32.61C345.09,269.74,343.58,276.48,342.22,283.32ZM94.06,242.6a5.57,5.57,0,0,0,0-1,171.88,171.88,0,0,1-2.13-54.26A121.66,121.66,0,0,1,107,142c6.17-11,12.57-21.79,18.22-33,5.53-11,9.26-22.59,7.91-35.27-.49-4.62-1-9.2-3-13.65a3.75,3.75,0,0,0-.11.67,6.54,6.54,0,0,0,.08.89,50.46,50.46,0,0,1-3.2,28.72c-3.63,8.75-9,16.37-15,23.57-8.72,10.43-16.5,21.41-21.78,34a107.77,107.77,0,0,0-7.65,57.93,117.38,117.38,0,0,0,7.83,27.25C91.48,236.17,92.67,239.18,94.06,242.6Zm204-81.67a9.13,9.13,0,0,0-.53.84,67,67,0,0,0-7.13,24.38c-1.2,11.76.14,23.34,2.7,34.8,2.9,13,6.21,25.83,8.93,38.82a205.88,205.88,0,0,1,4.37,53.33c-1,18.37-3.88,36.36-10.52,53.62a4.18,4.18,0,0,0,0,1c2.05-3.56,3.87-6.76,5.74-9.94,5.38-9.19,9.89-18.74,12.43-29.16,4.15-17,3.64-34.17.85-51.33-2.52-15.54-6.62-30.73-10.73-45.91-2.85-10.58-6.1-21.06-8.95-31.64C293,191.55,292,183.2,294,174.81c1.09-4.64,2.62-9.14,4-13.88ZM150.61,255.82l.3.09c.42-.91.85-1.82,1.25-2.74,3.57-8.06,6.86-16.25,10.75-24.14,5.51-11.19,9.88-22.68,11.91-35,2.28-13.82,2.29-27.79,3.37-41.69.64-8.37,1.18-16.75,2.12-25.09a71.59,71.59,0,0,0-.05-18.67c-.83,2.56-1.57,5.19-2.54,7.73-4,10.52-8.21,21-12.13,31.53a83.66,83.66,0,0,0-5.49,23.76c-.56,9.16-.68,18.37-.44,27.55a138.13,138.13,0,0,1-5.28,42.6C153,246.33,151.86,251.07,150.61,255.82Zm-2.31,2.48.18.08c1.65-6.14,3.31-12.28,4.94-18.42,2.83-10.7,5-21.49,4.84-32.63-.07-5.67-.17-11.34,0-17,.26-8.14.41-16.32,1.27-24.41.89-8.38,3.75-16.36,6.76-24.22,3.68-9.62,7.49-19.2,11.17-28.83A31.4,31.4,0,0,0,179,99.48c-1.6,3.48-2.88,7.17-4.89,10.41-3.36,5.41-7,10.63-10.86,15.74-13.19,17.75-19.59,37.47-17.58,59.65.68,7.53,1.65,15.05,2.66,22.54a189.89,189.89,0,0,1,1,36.77c-.22,4.54-.68,9.1-1.06,13.67ZM333.2,300a49.85,49.85,0,0,0,4.73-19.34,194.16,194.16,0,0,0-2.64-34.55c-2.36-15.09-5.87-29.92-9.63-44.7a78.91,78.91,0,0,1-1-36.32c2.84-13.35,7.91-25.85,14.23-37.86,5.6-10.65,11.6-21.1,17.38-31.66,1.21-2.22,2.19-4.56,3.28-6.84a1.53,1.53,0,0,0-.93.64c-7.4,10.1-14.94,20.09-22.15,30.33-7.4,10.49-13.86,21.55-18.28,33.69-4.85,13.33-6.44,26.94-3.84,41,1.63,8.82,4.52,17.27,7.47,25.71,5.11,14.57,9.95,29.23,12,44.61,1.57,11.72,2.22,23.54-.62,35.25Zm-36.39,69,.28.26c1.34-2,2.7-3.92,4-5.91,5-7.56,10.18-15,14.88-22.74a80.86,80.86,0,0,0,11.76-43.27c-.06-12-2.18-23.71-4.67-35.39-3.37-15.86-8.77-31.05-14.95-46a168.63,168.63,0,0,1-10.63-35.8c-.53-3.09-.61-6.26-.94-9.94-.56,2.47-1.08,4.42-1.44,6.4-1.53,8.42-.26,16.64,2,24.75,3.79,13.73,7.8,27.39,11.48,41.14,4.49,16.77,8.52,33.63,9.65,51,1.4,21.45-2.12,41.83-13,60.65-2.86,4.94-5.63,9.86-8.42,14.77ZM269,53.32l-.42.1c.23,2.77.25,5.57.74,8.3a57.76,57.76,0,0,1-.79,25.89c-2.7,9.67-6.14,19.17-9.72,28.56-4.79,12.47-10.28,24.65-14.91,37.17-7.46,20.36-9.58,41.49-7.79,63,1.07,12.9,4.11,25.39,7.65,37.79,1.33,4.67,2.7,9.33,4.06,14a.93.93,0,0,0,.26-.92c-2.48-8.53-3.2-17.31-4-26.1a271,271,0,0,1-1-40.39c.75-12.36,2.54-24.57,6.63-36.29,4-11.53,8.48-22.9,12.74-34.35a135.22,135.22,0,0,0,7.5-27,154.8,154.8,0,0,0,0-45.79A36.36,36.36,0,0,0,269,53.32ZM78.42,409.89l.42.16a72.65,72.65,0,0,0,3-6.62c2.83-8.22,5.54-16.49,8.24-24.75,4.33-13.29,7.93-26.8,8.43-40.82.37-10.17.18-20.39-.42-30.55-.54-9.21-1.74-18.39-3-27.53-1.45-10.2-4.77-19.9-8.75-29.39-1.13-2.71-2.36-5.38-3.54-8.07-.13,2.56.27,5,.36,7.36.22,5.78.12,11.58.45,17.35q1.22,21.15,2.72,42.28c.63,8.74,1.65,17.45,2.28,26.19.79,11,1.12,22-.77,32.83-1.68,9.67-4.11,19.21-6.27,28.8C80.56,401.4,79.48,405.64,78.42,409.89Zm263.29-300.5-.16-.14c-6.38,6.25-12.83,12.44-19.13,18.78a80.52,80.52,0,0,0-13.83,18.37c-4.84,8.95-8.15,18.28-7.41,28.67.82,11.53,3.89,22.52,8,33.23,3.72,9.61,7.73,19.11,11.38,28.75a163.37,163.37,0,0,1,10.71,47.77c.3,4.62,0,9.28,0,13.92l.55.06c.16-.54.33-1.07.45-1.61,2-8.67,1.62-17.45.88-26.18-1.23-14.46-5.24-28.31-9.79-42-3.11-9.38-6.33-18.74-9-28.24a74.09,74.09,0,0,1-.68-37.32c3-13.07,8.88-24.89,16-36.11C333.59,121.26,337.71,115.37,341.71,109.39ZM18.62,465.46c-.12-.64-.19-1-.28-1.44-2.39-11-4.59-22-5.56-33.31a82,82,0,0,1,5.29-36.29c4.41-11.76,8.72-23.6,12.53-35.55a69.09,69.09,0,0,0,1.88-36.05c-1.11-5.13-3-10.08-4.62-15.12l-.58.16a5.61,5.61,0,0,0,0,.82c2,8.56,1.78,17.13.38,25.75-1.78,10.95-5.5,21.32-9.3,31.67-4.65,12.7-9.28,25.41-11.81,38.76C4.75,414.4,3.77,424,5.36,433.67c1.27,7.69,3.09,15.28,4.77,22.9.66,3,1.59,5.94,2.39,8.88ZM415,153.35v1.72c.42,10.42,1,20.85,1.25,31.28.52,19.74,1.56,39.45,3.76,59.08q2,17.94,4.38,35.86c.68,5.12,1.73,10.21,2.77,15.28a13.59,13.59,0,0,0,1.69,3.28l.4-.19c-1.18-6.16-.6-12.34-.43-18.54.34-12.41,1.4-24.76,2.7-37.1a125.18,125.18,0,0,0-6.39-55.33C421.06,177.11,416.32,165.74,415,153.35Zm-167.71,120,.21-.08c-1.65-4-3.27-8-4.95-12-6.17-14.62-12-29.34-15.34-44.93a94.28,94.28,0,0,1-.34-39.75c2.5-11.67,6.75-22.71,11.66-33.52,6.75-14.87,13.52-29.71,19.3-45,4.22-11.2,8.11-22.41,8.86-34.46.09-1.42,0-2.85,0-4.27a39.51,39.51,0,0,0-1.17,4.8c-1.73,6.43-3.4,12.88-5.38,19.24A165.76,165.76,0,0,1,245,118.2c-8.87,15.1-18.18,30-24.57,46.4a69.68,69.68,0,0,0-5.09,29.69c.67,11.23,5.16,21.36,8.84,31.7,1.91,5.37,4.69,10.43,7.22,15.56,5.26,10.62,10.62,21.19,15.93,31.79Zm-22.23-21.79a5.69,5.69,0,0,1-.13.81c-1.23,6.73-2,13.58-3.79,20.15a64.35,64.35,0,0,0-1.92,26.9c2,13.37,4.83,26.52,10,39.19,3.86,9.52,6.58,19.51,9.62,29.35,3.47,11.21,6.69,22.49,10.1,33.71,3,9.87,6.27,19.65,8,29.85.62,3.7.83,7.48,1.68,11.13,1.31,5.68,3,11.28,4.54,16.91.11.4.26.79.39,1.19a62.13,62.13,0,0,0-.2-17.91c-1.51-10.25-3.22-20.48-4.77-30.73-2.46-16.15-6.37-31.89-12.75-47-4.69-11.08-9.39-22.16-14-33.27-3.49-8.38-6.35-16.93-7-26.11-.79-11,.37-21.8,1.38-32.66.57-7.2.79-14.37-1.15-21.52Zm-163,84.81h.27a4.82,4.82,0,0,0-.14-1c-2.59-8-4.76-16.12-7.9-23.88-4-9.76-7.37-19.56-8.93-30-2.29-15.23-2-30.29,2.2-45.16,2.37-8.42,5.15-16.73,7.38-25.18,2-7.43,3.69-14.94,5-22.5.86-5.14.78-10.45,1-15.68.1-1.83,0-3.67,0-5.71l-.69,1.38c-2.22,5.07-4.45,10.13-6.64,15.21C50.56,191,47.41,198,44.53,205.23a112.64,112.64,0,0,0-8,52c1.21,14.25,3.86,28.26,9.1,41.57,5,12.65,10.91,25,16.41,37.56Zm98.27,50.17.67.52c2.59-1.94,5.51-3.57,7.7-5.89,5-5.31,7.26-12,8.53-19.08,1.54-8.62,1.53-17.33,1.51-26,0-10.7-.39-21.38-3.39-31.75A147.5,147.5,0,0,1,169.19,270a85,85,0,0,1,1.29-20.52c2-10.25,4.21-20.45,9.42-29.69a3.07,3.07,0,0,0,.18-.85,5.61,5.61,0,0,0-1.23,1.59,104.28,104.28,0,0,0-8.91,22.17c-2.81,9.63-5.26,19.36-5.7,29.4a206.34,206.34,0,0,0,.23,24.11c1,13.19,2.48,26.35,3.92,39.5,1.91,17.66-.26,34.67-8.08,50.84ZM379,34.76c-.08.29-.14.58-.19.87-.36,11.19-2.76,22.19-4.36,33.24a132.34,132.34,0,0,0-1.63,14.18c-.36,9.76-.81,19.56-.38,29.31.55,12.38,1.73,24.74,3,37.07a220.44,220.44,0,0,1,1.06,33c-.15,3.27-.37,6.55-.56,9.82l.51.09c1.14-5,2.61-10,3.34-15.09,1.48-10.31,2.63-20.67,3.78-31a202.74,202.74,0,0,0,.15-46.78c-1.8-14.94-2.08-30-3.12-45C380.15,48.08,379.58,41.62,379,34.76ZM94.89,240.82l.65-.07c-.3-3.26-.67-6.51-.91-9.77-1.4-19.24,2.46-37.5,10.73-54.82,5-10.59,10.47-21,15.76-31.48,7.13-14.1,12.76-28.66,13.68-44.63.24-4.29-.07-8.62-.13-12.93h-.49c-.08.14-.21.26-.23.41-1.53,9.53-5.13,18.35-9.67,26.77-5,9.33-10.35,18.51-15.61,27.72a121.85,121.85,0,0,0-14.76,41.35,149.16,149.16,0,0,0-1.3,35.45C93.18,226.13,94.12,233.45,94.89,240.82ZM86.63,393.53l.23.09c.17-.29.37-.56.51-.86,6-12.46,12.11-24.85,17.9-37.4,3.29-7.14,6.15-14.54,7.21-22.39,3.22-24.35-1.79-46.9-15.42-67.43-2.32-3.5-4.7-7-7-10.45a5.9,5.9,0,0,0,.34,1.71c1.89,6.7,4.24,13.31,5.57,20.12a255.66,255.66,0,0,1,4.08,36.4,189.93,189.93,0,0,1-1,34.63c-1.66,12.46-5.27,24.43-9.22,36.31ZM179.1,92.09l-.31-.11a2.33,2.33,0,0,0-.43.51,69.17,69.17,0,0,1-10.65,16.87c-4.86,5.8-10.09,11.29-14.85,17.17-7.46,9.22-13.16,19.45-15.71,31.16-3.07,14.14-2.27,28.32.19,42.46q4.23,24.21,8.48,48.42c.42,2.4.7,4.83,1,7.24a42.18,42.18,0,0,0,.8-5.71,207.48,207.48,0,0,0,0-36.8c-1-10.61-2.26-21.2-3.27-31.81-1.19-12.67,1.23-24.77,6.13-36.45,3.94-9.38,9.64-17.65,15.71-25.71,4.82-6.4,9.25-13,11.36-20.92C178.1,96.31,178.59,94.2,179.1,92.09ZM70.88,220.54a7.56,7.56,0,0,0,.18,1.16,48.58,48.58,0,0,1,1,20.57c-1,7.36-2.37,14.68-3.57,22-1.28,7.83-2.38,15.68-2.19,23.65.25,10.36,2.33,20.47,4.38,30.58,1.88,9.29,3.78,18.59,4.07,28.1.4,13.51-.94,26.93-2,40.37-.68,8.8-1.33,17.6-1.78,26.41a45.55,45.55,0,0,0,1.83,15.35c-.11-2.25-.41-4.49-.51-6.73a117.85,117.85,0,0,1,3.78-34.37c2.91-11.5,4.75-23.18,4.28-35-.45-11.19-1.57-22.36-2.58-33.52-1.29-14.14-2.71-28.27-2.45-42.48.16-9.12.76-18.24,1.36-27.34C77.41,239.14,75.05,229.68,70.88,220.54ZM382.33,30.31c.07.82.09,1.65.24,2.46,2.05,11.07,4.26,22.12,6.16,33.21,1.86,10.87,3.7,21.75,5,32.69a215.44,215.44,0,0,1-1,59.69c-1.56,9.87-3.91,19.56-8.39,28.54-2.34,4.69-5.45,9-7.83,13.64-1.92,3.75-3.26,7.8-4.85,11.71,4-4.42,7.87-8.83,11.6-13.31a32.25,32.25,0,0,0,3.15-4.54A129.44,129.44,0,0,0,403,137.24c.93-16.17-.65-32.16-3.67-48C395.59,69.06,388.83,49.82,382.33,30.31ZM352.58,280.65l-.56-.1a16.58,16.58,0,0,0-.4,1.69c-1.2,8.07-2.45,16.13-3.57,24.22-1.72,12.47-3.8,24.83-8.21,36.72-3.35,9-6.54,18.16-9.46,27.35a150.63,150.63,0,0,0-7.57,46.75c.06,9.52-.08,19.09-1.69,28.54-1,6.08-1.25,12.1,1.61,17.83.35.7.94,1.66,1.57,1.79a23.53,23.53,0,0,0,4.36.08,12.75,12.75,0,0,0,0-3.49,45.19,45.19,0,0,1-2.07-14.28,158.85,158.85,0,0,1,4.48-37.55c2.83-11.46,5.57-22.93,7.08-34.66A295.1,295.1,0,0,1,345.88,337c2.14-8,4.35-16.07,5.25-24.26C352.25,302.13,352.14,291.36,352.58,280.65Zm34.57-63.95a8,8,0,0,0-.41.76c-7.84,20.65-6.55,41,2.74,60.75,4,8.47,9.62,16.16,14.35,24.29,3.41,5.87,7.23,11.61,9.7,17.88,6.59,16.77,6.79,34.07,2.6,51.5-.16.68-.29,1.37-.44,2.06a6.38,6.38,0,0,0,1.81-2.51c3.92-11.15,7.5-22.38,8.33-34.28.87-12.44-2.08-23.8-9.72-33.76a253.89,253.89,0,0,1-17.9-26.95c-6.78-11.62-11.35-24-12.7-37.46-.75-7.51-.57-15,1.64-22.28ZM414,158.22h-.31c-.73,4-1.39,8-2.2,11.92-2.91,14.14-5.89,28.25-7.07,42.67a107.69,107.69,0,0,0,2.13,33.25c3.25,14,8.76,27.2,14.88,40.15l2.86,6a5.61,5.61,0,0,0-.06-2c-1.1-8.45-2.33-16.89-3.24-25.36-1.72-16.06-3.64-32.12-4.77-48.23-1-14.74-1.1-29.56-1.62-44.34C414.48,167.56,414.22,162.89,414,158.22Zm-36.36,49.21.23.16c3.11-2.51,6.18-5.07,9.34-7.51,5.15-4,9.12-8.69,11.29-15,2.57-7.49,6.36-14.59,8.47-22.19a162.63,162.63,0,0,0,5.62-45.47,38.66,38.66,0,0,0-.7-7.44c-1.49-7.18-3.17-14.31-4.81-21.46-3-12.79-6.48-25.39-11.66-37.5-4.24-9.92-8.2-20-12.16-30-1-2.64-1.67-5.45-2.49-8.18a6.52,6.52,0,0,0,0,2.16c1.23,9.7,4.25,18.94,7.35,28.15,7.13,21.16,13.14,42.59,15.5,64.9a172.94,172.94,0,0,1-.37,41.24,129.74,129.74,0,0,1-10.51,35.9c-3.1,6.94-6.62,13.63-12.21,19-1,1-1.92,2.14-2.89,3.24ZM137.54,339.5h.18c.15-1,.37-2,.45-3,.91-12,2-24,2.65-36a190.89,190.89,0,0,0-4.75-55.21c-2.63-11-5.24-22-7.72-33.06-1.24-5.53-2.17-11.13-3.25-16.69a84.73,84.73,0,0,0-1.57,9.63,152.89,152.89,0,0,0,.91,38.35c3,19.72,6.77,39.33,9.93,59,1.41,8.87,2.24,17.85,3.12,26.79C137.81,332.72,137.54,336.12,137.54,339.5ZM128.88,65.09c-.11,1-.23,2-.33,3a53.25,53.25,0,0,1-6.07,20.42,108.86,108.86,0,0,1-12,16.92c-9.18,11.2-18.61,22.22-26.17,34.65a77.24,77.24,0,0,0-11.63,36.74,100.57,100.57,0,0,0,8.74,47.23c5,11,10.69,21.7,16.07,32.53.31.63.65,1.25,1,1.87-3.76-10.33-7.91-20.47-11.76-30.71a105,105,0,0,1-4.1-61.22C86.8,147.94,95.4,131.58,107.56,117c5.61-6.74,11.11-13.56,15.27-21.34C127.92,86.09,130.54,76,128.88,65.09ZM66.34,364.67a4.1,4.1,0,0,0-.08-1,56.06,56.06,0,0,0-5.64-17.06c-4-8.25-8.3-16.37-11.88-24.8q-6.91-16.31-12.83-33c-5.71-16-9.79-32.4-9.93-49.56a82.38,82.38,0,0,1,7.74-36.59c4.76-10,11.81-18.7,17.76-28,3.26-5.11,6.32-10.33,9.4-15.54a24.91,24.91,0,0,0,1.47-3.54,3.19,3.19,0,0,0-1,1.19c-3,4.63-5.89,9.36-9.09,13.86-2.57,3.62-5.59,6.93-8.32,10.46-5.9,7.64-11.57,15.46-16.11,24-5.19,9.75-9.12,19.85-10.22,30.88-1.34,13.39,1.53,26.1,6.49,38.42,3.89,9.65,8,19.23,12,28.84,1.67,4,3,8.21,5,12,5.28,10.08,10.82,20,16.31,30C60.83,351.48,64.93,357.41,66.34,364.67ZM268.7,64.07h-.55c-.65,4.27-1.13,8.58-2,12.82-1.68,8.27-4.84,16.08-8,23.86-3.87,9.48-7.68,19-11.8,28.37-5.23,11.89-10.93,23.57-15,36a95.34,95.34,0,0,0-2.52,52.19,204.55,204.55,0,0,0,9.5,30c1.71,4.29,3.46,8.56,5.19,12.84a39.29,39.29,0,0,0-1.38-6.24c-3.7-13.16-6.76-26.43-7.68-40.14-1.47-22,1.29-43.36,9.16-63.94,5.45-14.25,11.52-28.25,17.1-42.45,3.95-10,7.64-20.2,8-31.18C268.79,72.1,268.7,68.08,268.7,64.07ZM227.56,249.35l-.54.13c.08.39.15.79.23,1.18.89,4.19,2.12,8.34,2.6,12.58,1.06,9.17,1.75,18.39,2.56,27.6.68,7.78,1.31,15.58,4,23a234.85,234.85,0,0,1,7.33,26.32c3.12,13.58,9.07,26.2,13.9,39.2,2.13,5.73,4.43,11.46,5.82,17.39,1.88,8.05,3,16.28,4.35,24.45,1.24,7.64,2.46,15.3,3.39,23,.4,3.35.06,6.8.06,10.2a10.24,10.24,0,0,0,2.46-7.38c-.56-5.63-.91-11.28-1.5-16.91-1.37-13.21-2.72-26.43-5.69-39.41-1.47-6.43-2.81-12.9-4.57-19.25-2.76-9.92-5.73-19.79-8.77-29.63-3.28-10.58-6.35-21.24-10.78-31.44a98.35,98.35,0,0,1-6.55-22.6c-1.14-6.52-2.09-13.07-3.48-19.53S229.17,255.64,227.56,249.35Zm-196,64.84c.13.44.25.88.41,1.31a62.13,62.13,0,0,1,3.15,16.81,76.12,76.12,0,0,1-3.88,29.42c-3.55,10.8-7.55,21.45-11.47,32.09-3.18,8.66-5.65,17.43-5.85,26.75-.21,10.08,1.17,20,3,29.82l3,15h7.27a12.63,12.63,0,0,0-.12-1.5c-.71-3.44-1.37-6.9-2.17-10.32a90.29,90.29,0,0,1-2.61-21c.09-12.08,2.48-23.79,5.65-35.37C30.9,386.56,34,376,36.66,365.3a82.86,82.86,0,0,0-.06-38.64A37.76,37.76,0,0,0,31.56,314.19Zm138.92-78.82-.09-.08c-1.21,2.59-2.42,5.17-3.61,7.76a95,95,0,0,0-7.41,22.52,119.46,119.46,0,0,0-1.83,25.4c.22,7,.27,14,.57,20.93.78,18.19.78,36.36-2,54.42-1.48,9.49-3.55,18.84-7.26,27.75-.44,1.05-.76,2.14-1.17,3.34.35-.09.49-.08.57-.15,3.3-2.79,6.61-5.58,9.89-8.41a2.7,2.7,0,0,0,.55-1.08c1.1-3,2-6.07,3.3-9a73.39,73.39,0,0,0,5.59-27.47c.28-11.49-1.24-22.84-2.59-34.21-1.77-15-3.24-30-1.92-45.08a146.32,146.32,0,0,1,2.31-17.19C166.75,248.29,168.75,241.82,170.48,235.37ZM64.34,351l.35-.07c-.57-2.46-1-4.95-1.73-7.37-2.61-9.29-6.89-17.89-11.11-26.5a152.16,152.16,0,0,1-11.1-29.17c-1.73-6.79-3.27-13.67-4.36-20.59a116.84,116.84,0,0,1,0-39c2.38-13.25,7.21-25.68,12.64-37.9,4.21-9.46,8.48-18.89,12.69-28.35a9.77,9.77,0,0,0,.43-2c-2,2.9-3.58,6-5.42,8.85-3.69,5.76-7.52,11.43-11.35,17.1-5.15,7.61-10.15,15.28-13.28,24-5.4,15.11-5.85,30.56-3.34,46.22a198.31,198.31,0,0,0,10.83,39c5.42,14.32,10.85,28.64,17.9,42.27C59.86,342,62.08,346.51,64.34,351ZM62.48,181.52H62c-.22,2.43-.25,4.89-.7,7.28a331,331,0,0,1-9.42,38.13,150.08,150.08,0,0,0-5.25,20,110.4,110.4,0,0,0,4,51.2c.5,1.63,1.14,3.21,1.71,4.82a7.4,7.4,0,0,0,0-2.57c-1.24-10.19,0-20.21,2.34-30.11,3.25-13.48,7.41-26.76,9.23-40.56.68-5.13,1.77-10.32,1.51-15.42C64.82,203.32,63.48,192.43,62.48,181.52ZM268.12,465.43a32.67,32.67,0,0,0,1.08-3.87,75.57,75.57,0,0,0-.16-24.2c-1.12-7.12-2.14-14.27-3.45-21.35-1.65-8.83-3.06-17.76-5.48-26.39-2-7.06-5.48-13.68-8-20.6-3.32-9-6.59-18.13-9.46-27.33-2.06-6.58-3.08-13.48-5.21-20-2.78-8.53-5.3-17-5.95-26-.62-8.56-1.33-17.12-2.06-25.67-.23-2.63-.68-5.24-1.08-8.27-.8,10.08-1.7,19.7-2.29,29.33-.71,11.7.11,23.25,4.66,34.26,4.16,10.07,8.27,20.17,12.57,30.19,6.32,14.71,11.93,29.63,14.67,45.48,1.83,10.56,3.47,21.16,5.24,31.73,1.43,8.54,2.73,17.08,2.13,25.78-.16,2.3-.49,4.59-.75,7ZM74.27,429.48h.31c.38-3.85.43-7.77,1.21-11.54,2.09-10.15,4.39-20.25,6.79-30.33,2.1-8.88,4.1-17.76,4.74-26.9,1-13.86-.06-27.66-1.48-41.43q-2.69-26-3.6-52.1c-.24-7.38-.45-14.77-1-22.14-.42-5.51-2.57-10.56-5.26-15.69a3.57,3.57,0,0,0,0,.8c2.21,6.56,2.44,13.34,2.09,20.16-.41,7.8-1.17,15.58-1.34,23.39-.44,21.46,2.29,42.73,4.37,64A139.86,139.86,0,0,1,78.59,383c-2.55,11.11-5.08,22.21-5,33.69C73.66,421,74,425.23,74.27,429.48Zm244.14,24.15.54-.05c.08-1.07.08-2.15.24-3.2a205.09,205.09,0,0,0,2.29-30.11,155.89,155.89,0,0,1,2.11-28.13,230.33,230.33,0,0,1,12.5-42.64c5.78-14.66,9-29.84,11-45.38,1.07-8.32,2.5-16.6,3.84-24.89.38-2.36,1-4.67,1.52-7a2.67,2.67,0,0,0-1,1.5c-1.8,6.29-3.62,12.58-5.35,18.89-4.64,16.94-9,34-14,50.82-3,10.16-6.64,20.12-10.24,30.09a138.08,138.08,0,0,0-8.15,45.17c-.13,8.34,1.48,16.48,2.7,24.67C316.86,446.82,317.71,450.2,318.41,453.63Zm62-425.53v1.32c.78,13.51,1.49,27,2.38,40.52.65,9.75,1.42,19.5,2.37,29.23a217.93,217.93,0,0,1,.32,41.81c-.69,7.41-1.41,14.81-2.38,22.19s-2,14.5-3.46,21.68c-.92,4.7-2.52,9.26-3.85,14q1.5-2.49,3-4.85a67.81,67.81,0,0,0,8-16.71,148.87,148.87,0,0,0,6.43-34.69,228.74,228.74,0,0,0-2.11-53.51C388.74,74,385.69,59,383,43.89c-.88-5.19-1.69-10.36-2.6-15.79Zm35.32,338.47H416c.22-1.39.49-2.78.67-4.18,1.84-13.81,1-27.4-3.87-40.54-3.36-9.14-8.88-17.14-14.28-25.13-6.55-9.7-12.06-19.89-15.13-31.21-3.66-13.47-4.41-27.09-.37-40.63,1.88-6.3,4.35-12.43,6.63-18.83-2,3-4.05,6-6,8.93a54.74,54.74,0,0,0-8.72,28.36,84.83,84.83,0,0,0,3.33,25.59,98.38,98.38,0,0,0,7.26,19.19c5.49,10.57,11.21,21,16.95,31.47a102.65,102.65,0,0,1,12.62,38.47c.3,2.83.43,5.67.65,8.51ZM70.24,400.25H70a22.17,22.17,0,0,0,.47-2.43c.92-11.89,1.93-23.77,2.7-35.66.56-8.7.72-17.42-.75-26.05-1.75-10.28-3.82-20.49-5.62-30.76A106.27,106.27,0,0,1,65,282.76c.41-10.46,2.59-20.66,4.33-30.92,1.35-8,2.54-15.91,1.53-24-.29-2.36-.9-4.67-1.37-7l-.45.06c0,.35-.09.7-.11,1A120.66,120.66,0,0,1,64.67,246c-2.74,10.15-5.54,20.29-6.9,30.75a85.7,85.7,0,0,0-.22,21.41A159.5,159.5,0,0,0,64.38,329a124.74,124.74,0,0,1,5.86,38.87C70.27,378.66,70.24,389.46,70.24,400.25ZM159.92,256.7l-.22-.11c-1.47,3.29-3.29,6.47-4.34,9.89A105.48,105.48,0,0,0,151,286.67a182.87,182.87,0,0,0-.74,27.69,182.07,182.07,0,0,1-1.87,35.3c-1.29,8.78-2.41,17.59-3.84,26.35-1.48,9.1-3.26,18.15-4.86,27.23a39.39,39.39,0,0,0-.3,4.06c6.26-7.07,5.92-7.28,9.21-16.38,4.53-12.53,6.69-25.57,7.78-38.79,1.47-17.7.55-35.4-.15-53.1a186.48,186.48,0,0,1,1.28-29.6c.52-4.28,1.59-8.49,2.41-12.73ZM127.48,58c-.47,3.32-.77,7.67-1.73,11.87-2,8.46-6.65,15.65-11.35,22.77-6.59,10-15,18.31-24,26.2-4.46,3.94-9,7.75-12.66,12.58A62.27,62.27,0,0,0,65.48,164.3c-.48,5.72.17,11.56.57,17.32a72,72,0,0,0,1.57,11.32,184.21,184.21,0,0,0,23.26,55.48c1,1.56,2,3.07,3,4.6-1.91-4.4-4.06-8.64-6.27-12.85-6.32-12-11.89-24.28-14.41-37.76a100.19,100.19,0,0,1-1-33.8c2-13.33,7.66-25.16,15.4-36,5.13-7.18,10.66-14.06,16-21,5-6.46,10.31-12.69,15-19.38C125.94,81.64,128.16,69.64,127.48,58ZM34.48,316c.46,1.09.93,2.17,1.36,3.27,3.16,8.24,4.19,16.88,4.44,25.6.32,11.08-2.1,21.79-5,32.4-3.14,11.52-6.51,22.93-9.27,34.52a77,77,0,0,0-2,25.76c.61,5.85,1.74,11.66,2.74,17.46.6,3.5,1.39,7,2.08,10.4h8.65c-.49-4-.7-8-1.48-11.8a203.54,203.54,0,0,1-4-40.3c0-8.64,1.17-17.23,5-25.06a83.53,83.53,0,0,0,7.86-28.8A67,67,0,0,0,34.48,316Zm421.77-83.56h-.38v5c-.36,17.82-3.14,35.37-6,52.91-2,12.46-4.1,24.93-5.74,37.44a229.51,229.51,0,0,0-1.65,40c.54,12.1,1.36,24.17,3.71,36.08.61,3.08,1.38,6.13,2.07,9.2-.32-4.67-1-9.27-1.34-13.89a187.59,187.59,0,0,1,.86-35.54c1.38-12.32,3-24.61,4.44-36.93,1.52-13,2.9-25.94,4.41-38.9,1.86-16,2.44-32.1.57-48.19-.3-2.37-.67-4.77-1-7.18ZM154.81,249.82l.37.16a1.08,1.08,0,0,0,.3-.16c9.42-13.62,18.72-27.28,26-42.28,6.54-13.5,9.29-27.55,7.63-42.32-1.14-10.1-3.16-20.1-4.83-30.14-.59-3.57-1.3-7.11-2-10.66h-.52c-.78,8.62-1.71,17.23-2.3,25.87-.58,8.44-.71,16.92-1.23,25.36-.81,13-2.38,25.94-7.17,38.14-3,7.7-6.9,15-10.33,22.57C158.69,240.82,156.78,245.35,154.81,249.82Zm275.91,51.72h.22c.6-4.83.92-9.72,1.87-14.48,2.95-15,5.59-30,7.32-45.15a106.56,106.56,0,0,0-5.7-50.16c-3-8-6.2-16-9.34-24-4-10.08-7.72-20.23-9.64-31a2.89,2.89,0,0,0-.12,1.24c.76,7.28,1.33,14.59,2.36,21.84,1.24,8.66,4.5,16.77,7.57,24.91a128.35,128.35,0,0,1,7.49,61c-1.71,14.66-2.35,29.36-2.89,44.07-.14,3.94.55,7.86.86,11.76Zm1.94-5.39h.44c.48-1.84.93-3.68,1.43-5.51,5-18.39,10.1-36.75,15-55.17,1.91-7.17,2.84-14.47,1.46-21.94-2-10.75-6.34-20.6-11.47-30.11-8-14.87-15.41-30-20.29-46.23-.86-2.88-1.93-5.7-2.9-8.54a5,5,0,0,0-.18,2.17,113.64,113.64,0,0,0,7.16,28.33c4.3,11.3,8.91,22.49,13,33.85a100.58,100.58,0,0,1,5.75,41.87,373.3,373.3,0,0,1-7.29,48.77c-.82,4.18-1.4,8.38-2.11,12.54Zm-19,169.27v-1.63c.37-5.58.42-11.21,1.22-16.74,1.15-8,2.91-15.93,4.29-23.91a154.66,154.66,0,0,1,7-27.13,168,168,0,0,0,8.67-32c.23-1.47.39-2.95.54-4.43s.24-2.94.36-4.41a1.5,1.5,0,0,0-.66,1c-1.84,6.21-3.13,12.66-5.64,18.59-4.73,11.19-10.1,22.11-15.34,33.08a119.06,119.06,0,0,0-11.93,48c-.1,3.18,0,6.37,0,9.62ZM347,282.36h-.2c-4.21,8.17-8.55,16.29-12.61,24.55a115.86,115.86,0,0,0-11,36.46,130.45,130.45,0,0,1-6.74,27.1,102,102,0,0,0-4.1,16.25c-1.08,6-1.5,12.17-2.31,18.25-.26,2-.36,4.22-1.34,5.85a17.64,17.64,0,0,0-2.27,9.95,57.91,57.91,0,0,0,6.29,24.39c1.22,2.43,2.52,4.83,4,7.62-.66-3.59-1.29-6.67-1.79-9.78-1.64-10.13-3.19-20.24-2.43-30.59.88-12.13,2.75-24,6.77-35.54,3.24-9.28,6.88-18.43,9.71-27.84,4.6-15.28,8.74-30.7,13-46.1C343.76,296.11,345.32,289.22,347,282.36Zm-18.2,176.08h.49a2.91,2.91,0,0,0,.16-.5c1.42-10.69,4.75-20.88,8.09-31.08a47.42,47.42,0,0,0,2.52-10.71c.55-6.77.55-13.59.7-20.38.18-8.42.25-16.9,2.71-25,1.74-5.72,4.3-11.21,6.62-16.74a71.34,71.34,0,0,0,5.75-21.5c.79-9.37.12-18.71-.94-28-.3-2.65-.77-5.29-1.24-8.43-.29,5.42-.12,10.37-.91,15.16-1.32,8-3.06,15.92-5,23.79-2.55,10.47-5.49,20.85-6.95,31.57a356.54,356.54,0,0,1-8,42.12A149.19,149.19,0,0,0,328,448.92c.05,3.15.55,6.33.84,9.52ZM122.92,169.29l-.39-.24c-.31.42-.65.83-.94,1.26a149.68,149.68,0,0,0-15.87,31,76.64,76.64,0,0,0-4.78,22.12c-.92,15.5,1.85,30.55,6,45.36,1.76,6.31,4.43,12.36,6.13,18.67,1.86,6.89,2.72,14.06,4.65,20.93,2.54,9.05,5.71,17.92,8.6,26.87q2.1,6.53,4.18,13.06a12.27,12.27,0,0,0-.11-2.84c-1.91-16.93-5.69-33.47-10.22-49.86-3.79-13.66-7.74-27.29-11.07-41.06a96.77,96.77,0,0,1-1.95-35.36,141.77,141.77,0,0,1,10.11-36.41C119.11,178.25,121,173.82,122.92,169.29ZM376.4,49.49l-.36-.13a2.49,2.49,0,0,0-.33.57,100.15,100.15,0,0,1-7.45,19.27,3.21,3.21,0,0,0-.25,1.73c.63,4.75-.4,9.29-1.91,13.7a74.36,74.36,0,0,0-3.62,22.68c-.34,14.44,1.52,28.67,4,42.85,1.95,11.33,4.09,22.62,6.06,34,.58,3.28.89,6.62,1.33,9.93a3.14,3.14,0,0,0,.57-1.54,186.08,186.08,0,0,0,.64-31.58c-1-12.89-2.45-25.75-3.55-38.64a220,220,0,0,1-.33-35.57Q371.88,78,373,69.3c.53-4.12,1.44-8.19,2.16-12.28C375.6,54.51,376,52,376.4,49.49ZM412.27,158h-.11c-1.44,4.47-2.72,9-4.34,13.38s-3.62,8.7-5.42,13a41.38,41.38,0,0,0-2,5.16c-1.51,5.64-2.77,11.34-4.33,17-1.92,7-3,14-2.21,21.2.58,5.09,1.28,10.17,2.21,15.21,2.69,14.69,8.37,28,18.17,39.47,2.47,2.89,5,5.7,7.56,8.54a1.56,1.56,0,0,0-.17-1.14c-3.47-8-7.12-15.87-10.37-23.93-7.8-19.37-10.56-39.46-7.43-60.15,1.9-12.54,4.42-25,6.65-37.47C411.09,164.9,411.67,161.47,412.27,158Zm31.62,242.14a7.62,7.62,0,0,0,0-1.17,281,281,0,0,1-3-43.66c.09-17.76,2.5-35.29,5.45-52.75,3.25-19.21,6.75-38.39,7.84-57.89.2-3.49,0-7,0-10.39,0,0-.08,0-.11.14-3.7,13.12-7.35,26.26-11.1,39.36-3,10.32-5.84,20.66-6.66,31.42a194,194,0,0,0,.37,30.2,8.71,8.71,0,0,0,.5,3.32c1.76,3.35,2.08,6.94,2.13,10.59.14,9.65.09,19.31.38,29C440,385.82,441.75,393,443.89,400.18ZM177.48,380.82c-1.62,3.24-3.55,6.36-4.81,9.73-4.48,12-10.22,23.33-16,34.68-4.81,9.42-8.26,19.27-8.52,30-.08,3.42,0,6.85,0,10.21h15.54a236.72,236.72,0,0,1,4.61-42.72C170.87,408.65,172.82,394.47,177.48,380.82ZM275.74,421h.33c.31-4,.68-8.06.92-12.09.36-5.95.94-11.91.85-17.85-.1-6.36-.72-12.72-1.36-19.06a93.43,93.43,0,0,0-5-22.27c-3.83-10.71-7.88-21.34-11.74-32-3.53-9.81-6.89-19.67-10.37-29.5-4.06-11.43-9.5-22.23-15-33-1.27-2.51-2.56-5-3.84-7.51,1.47,5.56,3.25,11,4.68,16.5a303.62,303.62,0,0,0,15.58,46.15c4.92,11.17,9.2,22.62,13.52,34,3.94,10.4,6,21.3,7.69,32.26.72,4.76,1.1,9.57,1.54,14.36q.78,8.53,1.39,17.1c.34,4.23.55,8.55.77,12.86ZM448.1,465.49c-.11-.62-.17-1.15-.28-1.67-1.81-7.83-3.75-15.64-5.4-23.5a214.42,214.42,0,0,1-4.57-40.09c-.1-5.3-.67-10.59-1-15.88a3,3,0,0,0-.36-.8c-.16.48-.25.68-.3.89a409.38,409.38,0,0,0-6.3,41.52c-1,9.85-1.66,19.73-.83,29.64.27,3.3.69,6.59,1,9.89Zm-35.28-89h.47c.11-.5.24-1,.32-1.5,1.27-8.06.53-16.05-1-24-2.29-12.08-7.13-23.17-13.13-33.83-6.4-11.36-13.2-22.5-18-34.72a119.6,119.6,0,0,1-7.14-25.16c-1.86-11.94-1.09-23.66,3.76-34.9.76-1.77,1.65-3.48,2.47-5.22-4.74,5.93-8.64,12.32-10.7,19.64-4.38,15.6-3.11,30.84,3.14,45.76a106.78,106.78,0,0,0,18.87,30.58c9.56,10.64,14.89,23.14,17,37.17q1.94,13.08,3.9,26.15Zm-185-131.67-.48.17c.12.45.19.91.34,1.34a173.87,173.87,0,0,1,8,32.74c1.29,8.49,2.74,17,5.69,25.06,2.25,6.16,5.08,12.12,7,18.36,6,19.07,12.77,37.92,16.93,57.55,1.23,5.81,2.93,11.54,3.81,17.41,1.82,12.14,3.24,24.33,4.81,36.51.24,1.81.43,3.63.63,5.44a40.19,40.19,0,0,0,.38-7.83c-.14-3.21-.48-6.42-.66-9.63-.88-15.52-1.26-31.09-3.92-46.45-1-5.74-2-11.49-3.37-17.15-2.73-11.46-6.93-22.43-11.39-33.3-4.08-9.92-8.83-19.59-12.35-29.7-4.17-12-7.32-24.28-11-36.43C230.93,254.15,229.34,249.48,227.83,244.82ZM197.54,174l-.58.18c.66,3.43,1.17,6.91,2,10.29A118.54,118.54,0,0,1,202.34,218q-.34,9.12-.35,18.25a263.08,263.08,0,0,0,2.14,36.57c1.21,8.81,4,17.14,7.07,25.43.36,1,.75,2,1.12,3a179.2,179.2,0,0,1-1-26c.24-12.81.74-25.63.65-38.45a127.14,127.14,0,0,0-4.78-34.09c-2.82-9.71-6.41-19.17-9.65-28.73Zm-74,5.08c-.14.43-.29.8-.38,1.19-1.29,5.32-2.6,10.64-3.85,16s-2.83,10.68-3.55,16.13c-2.19,15.63-.25,31.07,3,46.35,2.86,13.45,6.21,26.8,9.26,40.21a245.17,245.17,0,0,1,5.54,33.29c.47,5.51.84,11,1.28,16.79a75.37,75.37,0,0,0,1.43-16.69c-.27-11.6-2-23-4-34.42-3.06-18-6.39-35.89-9.17-53.9a148.87,148.87,0,0,1-.84-39.78c1-8.34,2.72-16.62,1.31-25.21Zm277.4,286.35v-1.61a113.7,113.7,0,0,1,5-39c3.36-10.91,8.54-21,13.54-31.27,4.6-9.36,9.16-18.75,12.11-28.79,1-3.29,1.69-6.65,2.53-10a25.39,25.39,0,0,0-2.11,4.55c-3.93,9.73-9.67,18.45-15.24,27.27-6.14,9.72-12.11,19.53-16.79,30.07a96.77,96.77,0,0,0-8.54,34c-.29,4.9,0,9.83.05,14.79ZM359,357.14c-.36.8-.78,1.58-1.07,2.41a28.1,28.1,0,0,0-1.22,3.91c-2.8,13.68-1.78,27.28,1.12,40.79,1.39,6.46,2.42,13,1.68,19.5-1,8.46-2.47,16.85-3.85,25.25-.89,5.45-2,10.86-3,16.41h10.88a8.79,8.79,0,0,1,.1-1.14c.84-6.19,1.35-12.45,2.61-18.56,1.41-6.89,3.19-13.69,2.19-20.68-1.36-9.54-3.19-19-4.93-28.49-1.15-6.27-2.57-12.49-3.75-18.75A74,74,0,0,1,359,357.14ZM214,310.82c-1-2.87-1.77-5.79-2.9-8.59-6-14.91-9.65-30.33-10-46.42-.24-12.57-.09-25.16-.17-37.74,0-5.24.26-10.55-.43-15.71-1.15-8.55-3-17-4.53-25.5-.24-1.32-.62-2.62-.8-3.34,0,3,.2,6.51,0,10-.81,11.89-1.93,23.76-2.64,35.66-1.19,20.07.18,39.9,6.11,59.26C202.19,289.93,207.62,300.56,214,310.82ZM199.73,465.44c-.52-3.72-.84-7.33-1.54-10.86-2.67-13.47-8.24-26-13.36-38.59a69.72,69.72,0,0,1-5.18-22.5c-.13-2.43,0-4.88,0-7.38a35.83,35.83,0,0,0-2.19,12.6c0,17.54.75,35,4.08,52.32.92,4.78,1.61,9.6,2.41,14.41ZM177.57,90.18l-.76.87c-9.52,11.08-18.31,22.78-28.77,33a57.65,57.65,0,0,0-14.56,23.88c-4.67,14.5-5.24,29.42-4.33,44.42.59,9.81,3.49,19.21,6.45,28.53,4.45,14,7.74,28.28,8.49,43,.09,1.83.27,3.66.41,5.48a3,3,0,0,0,.93-2c0-4.46.37-9-.25-13.38-1.67-11.74-3.75-23.41-5.72-35.1-1.91-11.27-4.61-22.42-5.33-33.88a99.29,99.29,0,0,1,1.49-26.71c2.67-12.65,8.78-23.64,16.86-33.55,5.09-6.23,10.62-12.09,15.75-18.29A55.07,55.07,0,0,0,177.57,90.18Zm-53.78,82.21-.68-.16c-2.58,6.4-5.32,12.74-7.7,19.22-5.06,13.82-8.08,28.05-7.56,42.87.43,12.5,3.21,24.55,6.53,36.5,3.59,12.91,7.44,25.76,10.8,38.73a245.59,245.59,0,0,1,7,40.29c.18,2,.38,4.07.56,6.1a1.08,1.08,0,0,0,.41-.88,171.67,171.67,0,0,0-2.67-36.14c-2.26-12.41-5.07-24.74-7.91-37-3.8-16.43-7.9-32.8-8.82-49.75a102.05,102.05,0,0,1,3.19-32.6C119.33,190.52,121.48,181.44,123.79,172.39Zm80.5,180-.74.11v8.68c-.13,11.83.34,23.62,3.43,35.13,2.26,8.47,4.6,16.91,6.92,25.36A76.22,76.22,0,0,1,216,452.5c-.59,4.3-1.3,8.58-2,12.86,2.74.45,2.8.48,3.74-1.86a52.28,52.28,0,0,0,2.39-6.73c2.72-11,3.12-22.17,2.29-33.42-.88-11.73-3.14-23.15-7.85-34A96.62,96.62,0,0,1,207,364.08c-.5-4-1.76-7.82-2.69-11.72Zm-69.4,113.12c.33-3,.57-5.83,1-8.64,1.83-12.82,6.2-24.81,12-36.3a201.7,201.7,0,0,1,19.77-31c1.3-1.69,2.56-3.41,3.84-5.12a7.58,7.58,0,0,0-2.86,1.64c-4.21,3.87-8.54,7.63-12.55,11.71-10.51,10.69-19.78,22.26-25.15,36.53-3,8.08-6.39,16.06-7.6,24.7-.3,2.14-.51,4.29-.77,6.49Zm44-240.27-.37-.16c-.92,2.69-1.93,5.36-2.75,8.08-4.09,13.63-6.58,27.44-5,41.77A135.91,135.91,0,0,0,175,297.74c2.28,8.05,4.43,16.14,4.62,24.53q.36,15.56,0,31.12a49,49,0,0,1-3.12,16.54c-.87,2.28-1.8,4.54-2.68,6.74A17.09,17.09,0,0,0,183,364c1.74-9.87,3.26-19.75,3.35-29.81.17-18.37-3.28-36.14-8.67-53.62a82.74,82.74,0,0,1-2-42.22c.93-4.4,2.17-8.74,3.27-13.11ZM221.37,459c1.58-3.66,3.26-7.28,4.73-11,6.47-16.2,8.13-32.79,3.67-49.78a84.77,84.77,0,0,0-15.21-29.91c-2.48-3.23-4.75-6.62-7.23-10.1.23,1.18.47,2.16.62,3.15,1.28,8.33,3,16.53,6.54,24.25,5.92,12.85,8.76,26.45,9.47,40.5a116.67,116.67,0,0,1-2.55,32.86ZM350.82,264.71l.49.15c1.89-5.12,4-10.18,5.63-15.37,3.69-11.51,7.2-23.07,10.75-34.63,2-6.47,3.64-13.09,2.7-19.87-1.56-11.19-3.57-22.32-5.34-33.48-1.65-10.41-3.4-20.81-4.78-31.26-.82-6.25-1-12.59-1.47-18.88-.57,7.45-1.37,15-.91,22.4.93,15.34,2.39,30.65,3.91,45.94a115,115,0,0,1-.72,30c-2.74,16.87-6.06,33.64-9.16,50.46C351.63,261.67,351.19,263.18,350.82,264.71ZM139.87,396.47c.59-3.3,1.17-6.16,1.59-9q3.09-21.23,6.12-42.47a164.91,164.91,0,0,0,1.21-31.95A141.77,141.77,0,0,1,151.66,275a81.87,81.87,0,0,1,8.54-22.26c1.67-3,3.08-6.11,4.61-9.17a3,3,0,0,0-1.35,1.43c-3.9,7.18-7.87,14.31-11.63,21.56-1.66,3.19-3.54,6.49-4.18,9.95-1.1,6-1.37,12.17-1.91,18.28-.89,10.21-1.86,20.42-2.52,30.65-.82,12.59-2.41,25-6.31,37.08-1.58,4.92-2.43,10-1.43,15.18C136.68,383.82,138.32,389.91,139.87,396.47Zm275.08,69h13.63a16.87,16.87,0,0,0-.12-1.83c-.29-2.79-.67-5.57-.87-8.36a158.84,158.84,0,0,1,1.33-33.19c1.49-11.1,3.26-22.16,5-33.22.93-6,2.81-11.88,1.26-18.08-.15.48-.32,1-.44,1.45-.8,3.12-1.43,6.28-2.4,9.34-2.42,7.67-5.39,15.19-7.4,22.95-2.4,9.27-4.12,18.72-6,28.13-1.29,6.54-2.48,13.12-3.34,19.72-.55,4.25-.45,8.63-.65,13.05ZM185,361.17c2.34-3.18,4.88-6.61,7.4-10.06a6.11,6.11,0,0,0,.64-1.46c2.44-6.57,3.18-13.41,3.29-20.37a63.34,63.34,0,0,0-3.72-23.7,280.13,280.13,0,0,1-10.54-33c-3.11-12.92-5.32-25.81-3-39.1.19-1.09.24-2.2.35-3.31a58.73,58.73,0,0,0-2.37,8.44,79,79,0,0,0,.54,36c2.86,11.19,6.4,22.2,8.18,33.67a146.88,146.88,0,0,1,1.23,38.5c-.53,4.91-1.36,9.82-2,14.35ZM393.28,401.5l.11.08c.69-1.14,1.39-2.27,2-3.42,2.8-4.87,5.44-9.82,6.3-15.46,1.19-7.91.17-15.7-1.68-23.39-2.9-12.07-8.8-22.72-15.8-32.81-4.62-6.66-9.6-13.07-14-19.84-5.18-7.9-9.43-16.31-11.67-25.57-.77-3.19-1.06-6.51-1.57-9.76a40.34,40.34,0,0,0-.62,7.68c.27,7.8,2.61,15.1,5.7,22.19,4.72,10.81,11.22,20.62,17.33,30.62,6.45,10.6,12.57,21.29,15.74,33.45a57.76,57.76,0,0,1,1,26.53C395.48,395.09,394.25,398.27,393.28,401.5Zm28.2-36.84a4.57,4.57,0,0,0,.58-.66c4.64-8.68,8.28-17.7,9.56-27.54,2.12-16.32-2.08-30.67-13.28-42.9a121.59,121.59,0,0,1-24.6-40.15A68.73,68.73,0,0,1,390,218.57c.47-3,1.1-6,1.66-9-2.45,5.47-4.45,11.09-4.92,17.08A75.43,75.43,0,0,0,391,257.37c5.13,14.89,13.75,27.83,22.82,40.5,3.75,5.23,7.79,10.28,10.12,16.37,4.39,11.48,4.29,23.21,1.56,35C424.3,354.35,422.86,359.37,421.48,364.66ZM351.21,465.42c1.67-8.67,3.36-17.19,4.94-25.73,1.54-8.34,2.94-16.73,1.91-25.23-.7-5.78-1.86-11.5-2.87-17.24a93.06,93.06,0,0,1-1.27-21.92c.2-3.22.5-6.43.79-10.1-.32.77-.49,1.14-.63,1.51-3.7,10.25-4,20.86-2.58,31.44a71.25,71.25,0,0,1-2.26,30c-2.53,8.51-5.14,17-7.4,25.57-1,3.75-1.2,7.7-1.78,11.66Zm-168.69,0c-.63-3.85-1.3-7.6-1.85-11.36-1.2-8.13-2.68-16.24-3.39-24.42-.79-9-.87-18.09-1.21-27.15a46.36,46.36,0,0,1,2.52-17.94c.33-.9.51-1.85.89-3.27-4.86,7.51-16.41,72.8-14.2,84.14ZM52.36,352.67l-.39.16a45.71,45.71,0,0,1,0,6.41c-.88,6.18-1.93,12.34-3,18.48-1,5.68-2.21,11.32-3.15,17a111.26,111.26,0,0,0-1.39,25.84c.61,8.89,2.35,17.55,6.77,25.34,3.43,6,7.67,11.62,11.37,17.52,1.26,2,2.76,2.5,5,1.92-.2-.43-.38-.86-.6-1.26-3.39-6.36-6.91-12.65-10.14-19.09-4.66-9.28-7.1-19.08-5.88-29.55,1-8.93,2.22-17.84,3.23-26.77.51-4.49.84-9,1.17-13.5a55.07,55.07,0,0,0-2-20.35A16.91,16.91,0,0,0,52.36,352.67Zm47.85,112.8c.13-.65.26-1.18.34-1.71a77.56,77.56,0,0,1,11.07-29.59c3.71-5.83,7.8-11.42,11.52-17.24,3.94-6.19,7.73-12.48,8.84-19.95.14-1,.35-2,.49-3s.28-2,.34-3,0-1.87,0-2.8a46.9,46.9,0,0,1-10.08,21c-6.66,8-13.77,15.65-20.72,23.43-4.55,5.09-8.77,10.38-11.15,16.91a37.82,37.82,0,0,0-2,16Zm286.21-52.6h.39c1.44-3.44,2.85-6.9,4.34-10.32a52.42,52.42,0,0,0,4.72-24.33,69.8,69.8,0,0,0-8-28.33c-3.59-6.93-7.45-13.73-11.51-20.39-5.88-9.65-12-19.16-16.51-29.6a4.52,4.52,0,0,0,.17,1.68c1.12,3.45,2.42,6.85,3.36,10.34,2.13,7.84,5.73,14.95,9.92,21.88a150.66,150.66,0,0,1,8.45,16.12c3.66,8.16,4.52,17,5.27,25.78,1,11.68.42,23.35-.6,35-.05.73,0,1.45,0,2.17Zm-250-312c-1.24,13.88-5.46,26.86-11.49,39.27-4.06,8.36-8.38,16.6-12.6,24.88-7,13.75-13.21,27.77-15.42,43.23A118.16,118.16,0,0,0,96.14,232c.57-4.79,1-9.6,1.62-14.38,1.52-11.31,4.37-22.26,10-32.24,3.8-6.67,8.14-13,12.25-19.53a114,114,0,0,0,12.51-25.63c4-12.22,4.74-24.77,4-37.48A6.85,6.85,0,0,0,136.37,100.82ZM64.06,363.89l.53-.14a47.17,47.17,0,0,0-2.47-6.83c-3.26-6.16-6.78-12.18-10.15-18.29-5.3-9.59-10.92-19-15-29.26-1.85-4.76-3.49-9.55-5.49-14.34-3.7-9.11-7.89-18-11.18-27.28-4.38-12.31-5.8-25.06-3.18-38,2.13-10.56,6.36-20.23,11.76-29.46,7.26-12.47,16.75-23.29,25.46-34.68,1.88-2.46,3.39-5.2,5.08-7.8l-.39-.28-1.5,1.89C54,164,50.47,168.68,46.75,173.15c-4.16,5-8.61,9.72-12.8,14.68-6.63,7.86-12.47,16.25-16.54,25.78-3.24,7.61-4.51,15.66-5.6,23.76-.71,5.33-1.19,10.7-.07,16a129.33,129.33,0,0,0,9.58,28.45c4.57,9.7,10.28,18.79,14.94,28.47C45,328.4,54.74,346.05,64.06,363.89Zm-7.55-5-.69.11c1.66,7.87,1,15.78.23,23.64-1,10.07-2.33,20.1-3.6,30.14a52.21,52.21,0,0,0,5.28,31c3.43,6.67,7.11,13.21,10.52,19.89,1,1.92,2.26,2,4.12,1.61-.32-.71-.55-1.31-.85-1.87-7.44-13.73-10.67-28.48-10.7-44,0-8.11-.06-16.22.1-24.33s.19-16.43-1.55-24.52c-.84-3.91-1.89-7.78-2.89-11.71Zm162.65-37.5.82-.2c-.1-.45-.21-.89-.3-1.35-1.3-6.77-2.86-13.52-3.84-20.34a62.47,62.47,0,0,1,1.25-24.84A201.18,201.18,0,0,0,221.28,254c2.36-15.57-.66-30.31-7.28-44.48-2.79-6-5.13-12.16-7.69-18.25-2.14-5.07-4.3-10.14-6.59-15.56-.14.58-.22.71-.19.79.91,2.27,1.82,4.53,2.76,6.78,7.17,17.16,10.5,35.16,11.05,53.64.31,10.42-.08,20.87-.46,31.29-.49,13.33-.59,26.61,2.38,39.7C216.28,312.48,217.85,316.9,219.16,321.39ZM173.9,384l-.46-.33c-5.46,7.87-11.18,15.57-16.35,23.63-9.29,14.49-16.46,29.95-19.41,47.09-.62,3.61-1,7.26-1.48,11h10.28c0-2.23-.12-4.33,0-6.4.3-4.27.53-8.57,1.19-12.79,1.24-7.91,4.51-15.14,8-22.3,4.35-9.07,8.68-18.15,12.91-27.28C170.48,392.48,172.13,388.22,173.9,384Zm216.34,81.41c0-.57-.05-1-.08-1.5a95.71,95.71,0,0,1,3.57-34.33c3.9-13.28,10.52-25.25,17.64-37,5.59-9.22,11.17-18.45,16.58-27.78a93.43,93.43,0,0,0,4.11-9.2l-.43-.19a5.48,5.48,0,0,0-.31.52c-5.42,11.93-13,22.47-21.07,32.69-5.47,6.92-11.11,13.7-15.25,21.58a114.36,114.36,0,0,0-12.87,44.87c-.26,3.42,0,6.87,0,10.35Zm74.88,0c-.06-.41-.09-.64-.14-.86-1.35-6.12-4.16-11.66-7-17.19-7.29-14.45-13.76-29.22-17.79-45-.23-.91-.49-1.8-.74-2.7-.16,22.47,4.59,44.13,10.13,65.71Zm-262.92-114-.23-.06c-.56,2.17-1.08,4.35-1.68,6.5a75.32,75.32,0,0,0-2.13,29.39c1.71,14.13,5.76,27.73,9.18,41.46,2.86,11.47,4.59,23,3.17,34.87a15.88,15.88,0,0,0,0,1.69c1.41.43,2,.08,2.22-1.39.61-4.42,1.47-8.81,2.06-13.23,1.53-11.45-.33-22.54-3.44-33.54-2.42-8.53-4.8-17.08-6.83-25.71-2.35-10-2.41-20.2-2.31-30.41,0-3.11,0-6.3,0-9.49Zm6.69,114c.2-2,.43-3.91.58-5.85.76-9.75-.81-19.25-3-28.68-3-12.85-6.95-25.5-9-38.6-1.67-10.78-1.92-21.47.87-32.11,1.25-4.78,2.39-9.58,3.71-14.88a8.61,8.61,0,0,0-1.14,1.27c-2.41,5-5.23,10-7.08,15.21-4,11.23-3.58,22.88-2.08,34.48,1.18,9,4.17,17.6,7.21,26.13,4,11.16,7.15,22.49,7.51,34.43.08,2.84,0,5.69,0,8.6ZM388.21,204.12l-.19-.25c-.87.69-1.74,1.38-2.63,2.06-9.55,7.23-16.34,16.43-19.66,28-5.31,18.53-4.93,36.7,3.39,54.39A107.53,107.53,0,0,0,382.61,310c5.12,6.36,10.42,12.57,15.42,19,2.55,3.3,4.62,7,6.87,10.43a.45.45,0,0,0,0-.23c-.07-.29-.17-.57-.24-.85a58.34,58.34,0,0,0-12.87-23.08,112.48,112.48,0,0,1-19.6-31.17,78.08,78.08,0,0,1-6.08-24.51c-1.06-15,2.45-28.62,11.24-40.83C380.94,213.82,384.6,209,388.21,204.12Zm-194.63-30h-.21c-.51,4.67-.88,9.36-1.56,14-2,13.49-4.33,26.93-6.07,40.45-1.91,14.78.09,29.25,4.82,43.34a140.94,140.94,0,0,0,20.51,38.69c.55.75,1.15,1.46,1.72,2.2a35.48,35.48,0,0,0-2.78-5.63c-11.2-18.92-17.18-39.44-18.73-61.3a245.46,245.46,0,0,1,.79-39.66c.79-8.65,1.29-17.34,1.82-26a53.36,53.36,0,0,0-.31-6.06Zm3,177.73-.28-.23a23.38,23.38,0,0,0-1.53,2.16c-2.64,4.53-5.29,9.05-7.81,13.65a14,14,0,0,0-2.07,5.24c-.62,7.72-1,15.46-1.3,23.2a21,21,0,0,0,.62,5.3,97.25,97.25,0,0,0,9.14,24.35,82.85,82.85,0,0,1,9,30.3c.3,3.18.66,6.36,1,9.56h1.72a99.93,99.93,0,0,0-1.2-20c-1.58-10.26-5.5-19.83-8.71-29.61-3.42-10.43-5.9-21-5.78-32,.09-8.2.42-16.36,3.66-24.07,1.11-2.66,2.31-5.23,3.48-7.82ZM353.45,363.7a.64.64,0,0,0-.25.21,39.26,39.26,0,0,0-6.57,18.91c-.43,6.72-.55,13.46-.72,20.2-.2,7.9-.88,15.7-4,23.11a129.2,129.2,0,0,0-8.43,28.55c-.58,3.55-1,7.13-1.5,10.76h6.9c.06-.89.08-1.71.19-2.53a75.51,75.51,0,0,1,1.37-9.35c2.18-8.11,4.63-16.14,7-24.19,2.84-9.59,4.33-19.24,2.84-29.3a74.11,74.11,0,0,1,.28-25.47c.76-3.7,1.92-7.32,2.86-10.87ZM134.31,390.41c-.15,1.2-.18,2.09-.38,3-.92,3.93-1.44,8-2.9,11.74-3.37,8.53-8.64,16-14,23.42a82.3,82.3,0,0,0-13.8,29c-.63,2.57-1.09,5.18-1.65,7.88h9.72c3-13.33,8.23-25.7,13.91-37.91,3.28-7.07,6.7-14.08,8.79-21.65C135.41,400.82,136.06,395.82,134.31,390.41Zm-84-38.09a86.33,86.33,0,0,1-4.48,22.89,176.25,176.25,0,0,0-9.09,43.25,47.81,47.81,0,0,0,0,11.59c1,6.29,3.92,12,7.5,17.25,4.44,6.56,10.09,12,15.61,17.67.44.45,1.31.48,2,.7l.27-.4c-1.88-2.66-3.7-5.37-5.65-8a65.31,65.31,0,0,1-13.34-34.91,112.43,112.43,0,0,1,1.71-30.25c1.7-8.52,3.26-17.06,4.8-25.61.84-4.68,1.44-9.39.69-14.18Zm309.89,10h-.26c.27,4.32.12,8.72.88,12.95,2.27,12.53,4.86,25,7.41,37.48,1.78,8.72,2.48,17.47.87,26.28-1,5.68-2.37,11.3-3.35,17-.53,3.08-.59,6.23-.87,9.45h4.31c1.26-6.77,2.36-13.47,3.75-20.1,2.62-12.47,4.34-24.91.53-37.46-1.82-6-3.44-12-5.38-17.93-1.57-4.79-3.76-9.39-5.16-14.23-1.25-4.41-1.83-8.94-2.71-13.46ZM87,465.39c.44-4.08.62-8,1.35-11.86,1.51-8,6-14.44,11.34-20.36,6-6.74,12.32-13.28,18.27-20.11,5.56-6.37,10.25-13.32,12.52-21.63.2-.74.41-1.49.56-2.25s.25-1.49.37-2.24a1.3,1.3,0,0,0-.62.76c-3.17,9.24-8.79,16.86-15.86,23.42-3.14,2.91-6.66,5.4-10,8.11-5.21,4.26-10.65,8.25-14.73,13.74-6.22,8.39-9.64,17.62-8.63,28.19C82,466,82.1,466,87,465.39Zm94.64-238h-.34c-.2,1.4-.4,2.81-.59,4.21-1.17,8.59-2,17.18-.38,25.81a230.27,230.27,0,0,0,12.59,45,68.07,68.07,0,0,1,4.49,32.41c-.38,3.94-1,7.84-1.59,11.83,3.7-4,6.34-8.55,6.51-14.08.2-6.37.1-12.75-.08-19.13a33.53,33.53,0,0,0-4.48-15.62c-1.88-3.32-3.78-6.64-5.4-10.09-6.76-14.45-9.88-29.8-10.69-45.65-.25-4.92,0-9.81,0-14.7ZM80.69,436.82c4.62-9.79,12.22-17.24,19.54-24.9,3.59-3.75,7.19-7.48,10.57-11.41,11.06-12.88,15.5-27.67,12.5-44.52-.25-1.4-.46-2.82-.68-4.23-.41,2.41-.41,4.8-.75,7.15a74,74,0,0,1-15.1,35.23c-5.29,6.91-10.82,13.68-16.11,20.57C85.62,421.29,82.75,428.89,80.69,436.82ZM118,332.13h-.54c.15,2.79.24,5.59.45,8.38a49.77,49.77,0,0,1-2.88,22c-3.74,9.7-9.11,18.48-14.82,27.08-5.13,7.75-10.37,15.46-13.83,24.16-1.36,3.42-2.36,7-3.52,10.48,2.5-3.67,4.55-7.52,7.14-11,5.54-7.39,11.59-14.4,17-21.88,9.34-12.91,14.9-27.18,13.58-43.42C120.2,342.64,118.93,337.4,118,332.13ZM78.25,465.3q-2.53-7.38-5-14.7c-3.63-10.63-6.68-21.43-7.1-32.72-.35-9.65-.25-19.32-.13-29a50.09,50.09,0,0,0-2.75-17.54c-1-2.9-2.45-5.67-3.73-8.58.86,6.14,2.08,12,2.42,18,.44,7.66.28,15.37.19,23.06a233.82,233.82,0,0,0,1,29.11c1.17,10.4,4.67,20,9.35,29.29,1.71,3.39,1.63,3.43,5.39,3.23A2.86,2.86,0,0,0,78.25,465.3Zm322.09-72.76c1-1.2,1.94-2.36,2.94-3.46,4.18-4.58,5.31-10,4.28-16-1-5.75-2-11.51-3.11-17.24a87,87,0,0,0-2.58-11.29c-3.35-9.81-9.63-17.82-16.85-25a88.54,88.54,0,0,1-21.08-32c-2.26-6.06-3.84-12.36-5.85-18.95.68,4.49,1,8.71,2,12.77a75.42,75.42,0,0,0,10.5,23.18c4.75,7.28,10.05,14.21,15,21.36,8.22,11.87,14.76,24.49,17,39,1,6,1.57,12,.45,18A93.55,93.55,0,0,1,400.34,392.54Zm-15.65,14.94h.47a2.21,2.21,0,0,0,.15-.5c.95-12.44,1.29-24.87-.27-37.29-1-7.59-2.16-15.16-5.77-22-5.12-9.72-10.48-19.31-15.49-28.51.3,1.31.66,3.22,1.19,5.09.87,3.09,1.89,6.14,2.78,9.23,1.75,6.11,3.32,12.29,5.21,18.36,3,9.49,6.41,18.83,9.08,28.39,1.87,6.67,3.33,13.53,2.22,20.64C383.93,403,384.48,405.26,384.69,407.48ZM116,334a5.47,5.47,0,0,0-.26.81,104,104,0,0,1-13.52,38.36,255.44,255.44,0,0,0-14.09,26.5c-4.23,9.52-6.42,19.52-7.72,29.78a6.5,6.5,0,0,0,.57-1.6c.56-2.44,1-4.9,1.67-7.31,2.67-9.92,8-18.55,13.42-27.12,4.65-7.27,9.19-14.63,13.52-22.1C116.23,359.82,118.14,347.32,116,334Zm247.72,38.82a14,14,0,0,0,.32,1.69c2,5.47,4.25,10.86,6,16.42a230.52,230.52,0,0,1,6.21,23.27,52.59,52.59,0,0,1,.5,15.64c-.92,8.27-2.74,16.43-4.14,24.65-.62,3.61-1.14,7.23-1.73,11h5c.47-4.65.77-9.22,1.4-13.75,1.23-8.73,2.85-17.41,3.92-26.16,1.09-9,.3-17.93-3.77-26.2C373.05,390.53,368.4,381.88,363.69,372.82ZM119.88,332.93l-.32.09c.09.39.16.79.25,1.17,2.11,8.43,4.49,16.81,5.38,25.5A52.44,52.44,0,0,1,121.63,386c-3.9,9.26-10.44,16.57-17.2,23.76-5.83,6.2-11.55,12.52-17.08,19-2.1,2.47-3.52,5.52-5.24,8.31l.45.27A29.24,29.24,0,0,1,84.65,434c7.15-8.65,14.48-17.12,24.32-22.92a10.73,10.73,0,0,0,1.73-1.25c5.59-4.93,10.42-10.37,13.36-17.42,3.3-7.93,5.45-15.93,4.54-24.66a123.55,123.55,0,0,0-5.21-24.05C122.27,340.08,121.06,336.51,119.88,332.93Zm125.27,74.49.13-.07c-.36-1.25-.75-2.49-1.07-3.74-2.57-10-4.76-20.08-8.83-29.6-6.13-14.35-12.42-28.63-18.67-42.93a65.79,65.79,0,0,0-9-14.53,1.47,1.47,0,0,0,.06.83c1.27,3.53,2.49,7.08,3.83,10.58,4.61,12,9,24.11,14,36,4.21,10.05,9.13,19.8,13.64,29.72C241.33,398.19,243.19,402.82,245.15,407.42Zm8.31,58c1.25-12.59-9.83-52.88-15.88-58.89,1.91,9.35,4.34,19.07,5.76,28.94s1.82,19.9,2.68,29.95Zm64-116.3a100.89,100.89,0,0,1-11.59,20.93,161.47,161.47,0,0,0-25.27,54.68c-.77,3-1.2,6.08-1.79,9.12l.51.14q2-4.86,3.92-9.71c3-7.38,5.64-15,9.2-22.07,5.8-11.55,12.22-22.79,18.38-34.16,3.25-5.93,5.14-12.36,6.66-18.91ZM356,298.25l-.38.07v1.4c.58,5.68,1.25,11.36,1.72,17.06a77.7,77.7,0,0,1-6.82,40,100.38,100.38,0,0,0-5.74,15c-1.29,4.57-1.63,9.41-2.39,14.13l.47.07c.17-1.46.36-2.93.51-4.4A43.05,43.05,0,0,1,349,364.26c3.38-5.81,7.7-10.88,12.15-15.87a4.49,4.49,0,0,0,1-2.5c.45-6.44.61-12.9-.57-19.27-1.77-9.47-3.73-18.9-5.6-28.35ZM298.82,422.71c-9.92,13-17.78,26.43-19.93,42.67h9.29C289.17,450.57,294.71,437.05,298.82,422.71ZM207.82,322c0,3.17-.58,6.47.1,9.48a148,148,0,0,0,12.82,34.3c4.19,8.2,9.28,15.95,14,23.9,1.28,2.16,2.57,4.32,3.85,6.49L239,396c-11.36-24.3-23.15-48.35-31.12-74ZM309.74,465.45c-2.47-13.54-7-26.56-8-40.29-1.59,7.08-2.73,35.78-1.72,40.29Zm-11.33,0A310.11,310.11,0,0,1,300.05,424c-4.05,13.63-9.56,26.91-10.46,41.45Zm16.76-115.63c-.6.88-1.19,1.77-1.81,2.64-6.65,9.3-13.64,18.37-19.24,28.41-2.25,4.05-5.17,7.75-7.21,11.9-3.84,7.81-5.82,16.23-7,24.84-.25,1.87-.44,3.75-.65,5.62a3,3,0,0,0,.67-1.32,160.4,160.4,0,0,1,24.46-52.09A78.11,78.11,0,0,0,315.17,349.82ZM135.78,404.69c-.13.32-.28.64-.4,1-1.76,4.86-3.33,9.8-5.32,14.57-4,9.61-8.44,19.06-12.33,28.73-2.12,5.27-3.5,10.84-5.3,16.56h4.75c.47,0,.93-.07,1.46-.11.07-.35.14-.63.18-.92a119.6,119.6,0,0,1,9.66-33.95A85.79,85.79,0,0,0,135.78,404.69ZM313.36,367l-.27-.09c-2.76,5.21-5.49,10.43-8.28,15.61-4.41,8.18-9.22,16.15-13.18,24.54-3.57,7.56-6.23,15.56-9.3,23.37l-.57,1.5.61.32c2.95-4.87,6.06-9.66,8.81-14.65,1.83-3.32,3.17-6.91,4.72-10.39,4.4-9.83,8.84-19.65,13.18-29.5C310.63,374.19,311.94,370.57,313.36,367Zm53.75-29.24H367c0,.75.06,1.5.15,2.24.42,3.43.9,6.86,1.28,10.29A75,75,0,0,0,374,372.53a165.29,165.29,0,0,1,6.16,17.87c1.05,3.38,1.6,6.92,2.38,10.39h.52c0-2.83.44-5.75-.08-8.49-1.25-6.47-2.66-12.94-4.53-19.25-2.33-7.87-5.24-15.57-7.8-23.38C369.37,345.72,368.29,341.72,367.11,337.76Zm-123,127.68c.42-14.88-3.47-44.82-6.8-51.45,3.7,17.16,1.55,34.26-.5,51.45Zm46.24-42.62.19.12c3.51-3.69,7.1-7.33,10.52-11.11,2.7-3,5-6.41,5.7-10.38,1.27-6.84,2.08-13.77,3.08-20.66h-.28Q299.94,401.73,290.35,422.82ZM237,422.4c-2.59,14.38-3.35,29.07-8.38,43.1h6.72c1.75-14.39,3.58-28.68,1.66-43.15Zm23.78,43.12c-1.67-12.87-13.9-48-18.34-52.82,7.73,16.75,10.65,34.68,12.76,52.82Zm-47.6-144.26c8.71,16.6,15.56,34.73,23.72,52.27a5.54,5.54,0,0,0-.21-.8c-2.21-6.9-4.72-13.73-6.57-20.73-3.14-12-8.07-22.82-16.94-30.79Zm166.41,73.3a99.24,99.24,0,0,0-7-21.85A65.08,65.08,0,0,1,367.35,353c-.37-3.27-.81-6.54-1.21-9.8h-.66c0,2.7.06,5.4,0,8.1-.16,6.48.2,12.92,2.61,19,2.17,5.47,4.67,10.81,7.17,16.14,1.29,2.75,2.9,5.42,4.37,8.11Zm-59.95,71c-5.9-11.61-13.44-22.17-15.56-35.16l-.68.22,7.8,34.94Zm-42.17,0a58.93,58.93,0,0,1,5.68-19.91c3-6.15,6.47-12.07,9.59-17.84-9.21,11-17.31,23-21,37.64.5.05.84.11,1.18.11Zm-50-.07q2.4-9.75,4.81-19.49l-.35-.07-8.71,19.56Zm-180,0c-2.08-4.84-4-9.43-6-14l-.36.14c1,4.61,2,9.22,3,13.88Zm294.89-77.15-.14-.07V409h.14Zm-55.11,39.79-.46-.32-5.45,7.76.49.33ZM4.17,99.35l-.58-.09c.65-2,1.31-4.08,2-6.13C8.92,82.31,11.84,71.38,12.8,60c1-12.22-.32-24.31-2.94-36.22C8.11,15.82,5.93,8,3.94.08H.36c1.58,6,3.23,12.06,4.73,18.12A158.6,158.6,0,0,1,9.63,48.53c.58,12.21-1.74,23.94-5.77,35.39C2.64,87.38,1.29,90.8,0,94.24v19a142.7,142.7,0,0,0,32.28-54c2.79-8.36,5.82-16.64,7.53-25.31A123.34,123.34,0,0,0,42,4.35c-.07-1.43-.06-2.86-.09-4.29H37.23c-.34,7.25-.32,14.54-1.12,21.76-.93,8.33-2.52,16.59-3.94,24.87a29.92,29.92,0,0,1-2.12,6.73c.25-2.47.54-4.94.74-7.41a197.15,197.15,0,0,0-.09-32.87c-.3-3.61-1-7.19-1.51-10.79C29.08,1.59,29.06.82,29,.06H27.57c.52,3.88,1.19,7.76,1.56,11.66A174.7,174.7,0,0,1,28,57.17C26.81,63.91,24,70,21,76q-3.79,7.57-8.08,14.91Q33.69,46.83,20.05.06H18.62c10,34.76,6.5,67.76-12.5,98.76C18.38,66.57,21.82,33.75,12.53.06H11.1C20.48,34,17,67,4.17,99.35ZM0,170.82a3.41,3.41,0,0,0,.31-.6,118.76,118.76,0,0,1,12-33c8-14.68,16.49-29.13,24.94-43.57,6.5-11.1,11.69-22.71,14.66-35.26a101.48,101.48,0,0,0,2.38-32.77A97.81,97.81,0,0,0,48.69.06H47.26c1.22,4.23,2.66,8.41,3.6,12.76a100.59,100.59,0,0,1-8.28,67.62c-5.33,10.77-11.71,21-17.78,31.38-7.2,12.3-14.51,24.54-19.67,37.89-1.9,4.93-3.43,10-5.13,15Zm0-42.61c1.09-1.77,2.12-3.59,3.28-5.31,6.78-10.08,13.64-20.08,20.37-30.19S36.61,72.18,41,60.82c4.58-11.84,6.78-24,5.57-36.75-.76-8-1.7-16-2.56-24H42.61A186,186,0,0,1,45.48,33c-.26,15.61-5.55,29.86-13.25,43.09-6.58,11.31-14.22,22-21.4,33C7.24,114.52,3.61,120,0,125.42Zm0,116v4.65a4.78,4.78,0,0,1,.4.74C4,261.31,7.75,273,10,285.07A154.18,154.18,0,0,1,12.67,316a121.15,121.15,0,0,1-6.48,35.53C4.25,357.44,2.07,363.28,0,369.16v3.94c.33-.61.63-1.23.9-1.87C3,365.33,5.09,359.45,7,353.51c4-12.23,6.77-24.67,7-37.62.29-17.26-2.53-34.05-7.4-50.54-2.06-7-4.19-13.9-6.29-20.85ZM465.48,226.7c-.15-.16-.37-.29-.44-.48-2.27-5.71-4.79-11.33-6.71-17.14a103.19,103.19,0,0,1-3.52-50.69,88.5,88.5,0,0,1,10.67-29.79v-2.51q-.71.9-1.32,1.86a98.14,98.14,0,0,0-12.28,44.57,109.92,109.92,0,0,0,9.91,49.69c1.21,2.7,2.45,5.38,3.67,8.07ZM0,280.41c.32,2.52.72,5,1,7.57,1.13,12.92,1.3,25.82-.63,38.69a5.82,5.82,0,0,1-.32,1v8.24c.1-.14.26-.28.28-.42,1-8,2.25-16,2.74-24.09.7-11.56-.5-23.08-1.86-34.56C.85,274.2.39,271.58,0,269ZM465.48,212c-.58-3.92-1.35-7.82-1.71-11.76a101.64,101.64,0,0,1,1.15-25.6,19.76,19.76,0,0,1,.56-2v-6.45c-.24.72-.53,1.43-.7,2.17a104.6,104.6,0,0,0-1.74,38.1c.59,4.16,1.61,8.25,2.44,12.36Z"/></g></g></svg>