<svg xmlns="http://www.w3.org/2000/svg" xmlns:xlink="http://www.w3.org/1999/xlink" viewBox="0 0 278.31 210.94"><defs><style>.cls-1{fill:url(#Dégradé_sans_nom_13);}</style><linearGradient id="Dégradé_sans_nom_13" x1="45.17" y1="-20.69" x2="299.7" y2="233.85" gradientUnits="userSpaceOnUse"><stop offset="0" stop-color="#f671fd"/><stop offset="1" stop-color="#b137fd"/></linearGradient></defs><g id="Calque_2" data-name="Calque 2"><g id="Calque_1-2" data-name="Calque 1"><path class="cls-1" d="M254.18,2.7,249.76.14a1.08,1.08,0,0,0-1.47.4L193.48,95.47a8.68,8.68,0,0,1-2.58-1.41l-12.57-9.94a63.44,63.44,0,0,0-78.35,0L87.41,94.06a8.68,8.68,0,0,1-2.58,1.41L30,.54a1.08,1.08,0,0,0-1.47-.4L24.13,2.7A48.25,48.25,0,0,0,6.47,68.6L88.34,210.4a1.08,1.08,0,0,0,1.47.4l4.42-2.56a48.25,48.25,0,0,0,17.66-65.9l-4.14-7.16a55.15,55.15,0,0,0,8-5.26L128.32,120A17.83,17.83,0,0,1,150,120l12.57,9.94a55.15,55.15,0,0,0,8,5.26l-4.14,7.16a48.24,48.24,0,0,0,17.66,65.9l4.42,2.56a1.08,1.08,0,0,0,1.47-.4L271.84,68.6A48.25,48.25,0,0,0,254.18,2.7Z"/></g></g></svg>