<svg xmlns="http://www.w3.org/2000/svg" viewBox="0 0 170.71 170.71"><defs><style>.cls-1{fill:#ffdb45;}.cls-2{fill:#e5c12c;}</style></defs><g id="Calque_2" data-name="Calque 2"><g id="Calque_1-2" data-name="Calque 1"><circle class="cls-1" cx="85.35" cy="85.35" r="85.35"/><path class="cls-2" d="M85.35,7A78.41,78.41,0,1,1,7,85.35,78.49,78.49,0,0,1,85.35,7m0-6.95a85.36,85.36,0,1,0,85.36,85.35A85.35,85.35,0,0,0,85.35,0Z"/><circle class="cls-2" cx="85.35" cy="85.35" r="55.69"/><path class="cls-1" d="M116.43,57.81l-1.2-.69a.28.28,0,0,0-.39.1L100,82.87a2.51,2.51,0,0,1-.7-.38L95.94,79.8a17.14,17.14,0,0,0-21.17,0l-3.4,2.69a2.33,2.33,0,0,1-.69.38L55.87,57.22a.29.29,0,0,0-.4-.1l-1.19.69a13,13,0,0,0-4.77,17.8l22.12,38.31a.28.28,0,0,0,.39.1l1.2-.69A13,13,0,0,0,78,95.53L76.87,93.6A14.42,14.42,0,0,0,79,92.17l3.4-2.68a4.82,4.82,0,0,1,5.85,0l3.4,2.68a14.42,14.42,0,0,0,2.16,1.43l-1.12,1.93a13,13,0,0,0,4.77,17.8l1.2.69a.28.28,0,0,0,.39-.1L121.2,75.61A13,13,0,0,0,116.43,57.81Z"/></g></g></svg>