<svg xmlns="http://www.w3.org/2000/svg" xmlns:xlink="http://www.w3.org/1999/xlink" width="1480" height="824" viewBox="0 0 1480 824">
  <defs>
    <filter id="Rectangle_331" x="0" y="0" width="1480" height="824" filterUnits="userSpaceOnUse">
      <feOffset dx="-10" dy="10" input="SourceAlpha"/>
      <feGaussianBlur stdDeviation="49.5" result="blur"/>
      <feFlood flood-color="#f970fe" flood-opacity="0.149"/>
      <feComposite operator="in" in2="blur"/>
      <feComposite in="SourceGraphic"/>
    </filter>
    <clipPath id="clip-path">
      <text id="_12" data-name="12" transform="translate(882.46 762.39)" fill="none" font-size="9.97" font-family="SegoeUIBlack, Segoe UI"><tspan x="0" y="0">12</tspan></text>
    </clipPath>
    <linearGradient id="linear-gradient" x1="0.182" y1="-0.665" x2="0.818" y2="1.664" gradientUnits="objectBoundingBox">
      <stop offset="0" stop-color="#f671fd"/>
      <stop offset="1" stop-color="#b137fd"/>
    </linearGradient>
    <clipPath id="clip-path-2">
      <text id="YES" transform="translate(745.98 471.38)" fill="none" font-size="12" font-family="SegoeUIBlack, Segoe UI"><tspan x="0" y="0">YES</tspan></text>
    </clipPath>
    <linearGradient id="linear-gradient-2" x1="0.182" y1="-0.665" x2="0.818" y2="1.665" xlink:href="#linear-gradient"/>
    <clipPath id="clip-path-3">
      <path id="Tracé_633" data-name="Tracé 633" d="M0,23V420c0,12.73,7.75,23,17.3,23h382V0H17.3C7.75,0,0,10.31,0,23Z" transform="translate(22.48 364.65)" fill="none"/>
    </clipPath>
    <linearGradient id="linear-gradient-3" x1="0.221" y1="-1.354" x2="0.779" y2="2.354" xlink:href="#linear-gradient"/>
    <clipPath id="clip-path-4">
      <text id="YES-2" data-name="YES" transform="translate(663.47 568.16)" fill="none" font-size="9.97" font-family="SegoeUIBlack, Segoe UI"><tspan x="0" y="0">YES</tspan></text>
    </clipPath>
    <linearGradient id="linear-gradient-4" x1="0.182" y1="-0.665" x2="0.818" y2="1.664" xlink:href="#linear-gradient"/>
    <clipPath id="clip-path-5">
      <text id="_5" data-name="5" transform="translate(885.16 568.16)" fill="none" font-size="9.97" font-family="SegoeUIBlack, Segoe UI"><tspan x="0" y="0">5</tspan></text>
    </clipPath>
  </defs>
  <g id="TICKET" transform="translate(-56.5 -2402.5)">
    <g transform="matrix(1, 0, 0, 1, 56.5, 2402.5)" filter="url(#Rectangle_331)">
      <rect id="Rectangle_331-2" data-name="Rectangle 331" width="1183" height="527" rx="20" transform="translate(158.5 138.5)" fill="#08061a"/>
    </g>
    <g id="Calque_2" data-name="Calque 2" transform="translate(223.65 2218.35)">
      <g id="Calque_1" data-name="Calque 1">
        <path id="Tracé_601" data-name="Tracé 601" d="M1109.74,26.08V0H399.27V443h710.47V417.23a13.04,13.04,0,1,1,0-26.08V365.08a13.04,13.04,0,1,1,0-26.08V312.92a13.035,13.035,0,1,1,0-26.07V260.77a13.04,13.04,0,1,1,0-26.08V208.62a13.04,13.04,0,1,1,0-26.08V156.46a13.04,13.04,0,1,1,0-26.08V104.31a13.04,13.04,0,1,1,0-26.08V52.15a13.035,13.035,0,1,1,0-26.07Z" transform="translate(22.48 364.65)" fill="#17152a"/>
        <path id="Tracé_602" data-name="Tracé 602" d="M522.22,267.57v3.84H430.36v-3.84Z" transform="translate(22.48 364.65)" fill="#111121"/>
        <path id="Tracé_603" data-name="Tracé 603" d="M522.24,339.83v3.77H430.39v-3.77Z" transform="translate(22.48 364.65)" fill="#111121"/>
        <path id="Tracé_604" data-name="Tracé 604" d="M522.33,35.81V42H430.27V35.81Z" transform="translate(22.48 364.65)" fill="#111121"/>
        <path id="Tracé_605" data-name="Tracé 605" d="M430.37,190.61V174.06h91.84v16.55Z" transform="translate(22.48 364.65)" fill="#111121"/>
        <path id="Tracé_606" data-name="Tracé 606" d="M522.26,352.54v12.22H430.45V352.54Z" transform="translate(22.48 364.65)" fill="#111121"/>
        <path id="Tracé_607" data-name="Tracé 607" d="M522.19,296.94H430.43V284.53h91.76Z" transform="translate(22.48 364.65)" fill="#111121"/>
        <path id="Tracé_608" data-name="Tracé 608" d="M430.36,109.9V97.6H522.2v12.3Z" transform="translate(22.48 364.65)" fill="#111121"/>
        <path id="Tracé_609" data-name="Tracé 609" d="M522.21,118.88v12.34H430.45V118.88Z" transform="translate(22.48 364.65)" fill="#111121"/>
        <path id="Tracé_610" data-name="Tracé 610" d="M430.35,203.34v-8H522.2v8Z" transform="translate(22.48 364.65)" fill="#111121"/>
        <path id="Tracé_611" data-name="Tracé 611" d="M430.39,373.69h91.76v8.15H430.39Z" transform="translate(22.48 364.65)" fill="#111121"/>
        <path id="Tracé_612" data-name="Tracé 612" d="M522.22,254.84v8.07H430.37v-8.07Z" transform="translate(22.48 364.65)" fill="#111121"/>
        <path id="Tracé_613" data-name="Tracé 613" d="M430.37,318.07V310H522.2v8.06Z" transform="translate(22.48 364.65)" fill="#111121"/>
        <path id="Tracé_614" data-name="Tracé 614" d="M522.22,161.38v8.06H430.37v-8.06Z" transform="translate(22.48 364.65)" fill="#111121"/>
        <path id="Tracé_615" data-name="Tracé 615" d="M430.37,250.1V242h91.84v8.07Z" transform="translate(22.48 364.65)" fill="#111121"/>
        <path id="Tracé_616" data-name="Tracé 616" d="M430.37,148.15v-8.08h91.76v8.08Z" transform="translate(22.48 364.65)" fill="#111121"/>
        <path id="Tracé_617" data-name="Tracé 617" d="M430.36,84.41v-8h91.85v8Z" transform="translate(22.48 364.65)" fill="#111121"/>
        <path id="Tracé_618" data-name="Tracé 618" d="M430.36,63.17V55.11H522.2v8.06Z" transform="translate(22.48 364.65)" fill="#111121"/>
        <path id="Tracé_619" data-name="Tracé 619" d="M430.37,406.58v-7.36h91.76v7.36Z" transform="translate(22.48 364.65)" fill="#111121"/>
        <path id="Tracé_620" data-name="Tracé 620" d="M522.22,220.84v3.83H430.36v-3.83Z" transform="translate(22.48 364.65)" fill="#111121"/>
        <path id="Tracé_621" data-name="Tracé 621" d="M522.23,212.35v3.83H430.37v-3.83Z" transform="translate(22.48 364.65)" fill="#111121"/>
        <path id="Tracé_622" data-name="Tracé 622" d="M522.21,152.86v3.84H430.36v-3.84Z" transform="translate(22.48 364.65)" fill="#111121"/>
        <path id="Tracé_623" data-name="Tracé 623" d="M522.21,89.13V93H430.36V89.13Z" transform="translate(22.48 364.65)" fill="#111121"/>
        <path id="Tracé_624" data-name="Tracé 624" d="M522.21,386.51v3.87H430.38l-.13-3.87Z" transform="translate(22.48 364.65)" fill="#111121"/>
        <path id="Tracé_625" data-name="Tracé 625" d="M430.36,326.57v-3.82h91.85v3.82Z" transform="translate(22.48 364.65)" fill="#111121"/>
        <rect id="Rectangle_225" data-name="Rectangle 225" width="194.93" height="176.54" rx="17.66" transform="translate(575.59 400.1)" fill="#111121"/>
        <rect id="Rectangle_226" data-name="Rectangle 226" width="194.93" height="176.54" rx="17.66" transform="translate(575.95 594.33)" fill="#111121"/>
        <rect id="Rectangle_227" data-name="Rectangle 227" width="194.93" height="176.54" rx="17.66" transform="translate(790.64 400.1)" fill="#111121"/>
        <rect id="Rectangle_228" data-name="Rectangle 228" width="194.93" height="176.54" rx="17.66" transform="translate(790.64 594.33)" fill="#111121"/>
        <path id="Tracé_626" data-name="Tracé 626" d="M683.2,161.48H617.92a5,5,0,0,1-5-5v-5a5,5,0,0,1,5-4.95H683.2a5,5,0,0,1,5,4.95v5a5,5,0,0,1-5,5Zm14.09-58.18c0-3.75-2.57-6.78-5.73-6.78s-5.74,3-5.74,6.78a7.3,7.3,0,0,0,1.94,5l-7.3,9.69a7.36,7.36,0,0,1-11.26-.94l-15-19.17a7.25,7.25,0,0,0,2.06-5.16c0-3.75-2.57-6.78-5.73-6.78s-5.74,3-5.74,6.78A7.24,7.24,0,0,0,646.94,98l-14.46,19c-2.9,3.81-7.81,4.32-11.22,1.14l-8.09-9.6a7.26,7.26,0,0,0,2.16-5.27c0-3.75-2.56-6.78-5.73-6.78s-5.73,3-5.73,6.78c0,3.25,1.94,6,4.52,6.62l5.81,30.61h72.71l5.79-30.59c2.62-.6,4.59-3.33,4.59-6.61Z" transform="translate(22.48 364.65)" fill="#1b1a33"/>
        <path id="Tracé_627" data-name="Tracé 627" d="M672,194.3a27.86,27.86,0,0,0-43,0A47.214,47.214,0,0,1,592.56,212H708.44C694.22,212,681.06,205.26,672,194.3Z" transform="translate(22.48 364.65)" fill="#1b1a33"/>
        <path id="Tracé_628" data-name="Tracé 628" d="M887.11,194.3a27.86,27.86,0,0,0-43,0c-9.06,11-22.22,17.7-36.44,17.7H923.55C909.33,212,896.16,205.26,887.11,194.3Z" transform="translate(22.48 364.65)" fill="#1b1a33"/>
        <path id="Tracé_629" data-name="Tracé 629" d="M887.11,388.53a27.86,27.86,0,0,0-43,0c-9.06,11-22.22,17.7-36.44,17.7H923.55C909.33,406.23,896.16,399.49,887.11,388.53Z" transform="translate(22.48 364.65)" fill="#1b1a33"/>
        <g id="Groupe_88" data-name="Groupe 88" clip-path="url(#clip-path)">
          <rect id="Rectangle_229" data-name="Rectangle 229" width="62.31" height="17.03" transform="translate(856.86 750.77)" fill="url(#linear-gradient)"/>
        </g>
        <path id="Tracé_630" data-name="Tracé 630" d="M672,388.53a27.86,27.86,0,0,0-43,0,47.214,47.214,0,0,1-36.44,17.7H708.44C694.22,406.23,681.06,399.49,672,388.53Z" transform="translate(22.48 364.65)" fill="#1b1a33"/>
        <g id="Groupe_89" data-name="Groupe 89" clip-path="url(#clip-path-2)">
          <rect id="Rectangle_230" data-name="Rectangle 230" width="75.03" height="20.51" transform="translate(719.83)" fill="url(#linear-gradient-2)"/>
        </g>
        <path id="Tracé_631" data-name="Tracé 631" d="M897.54,82.25V99a7.58,7.58,0,0,1-7.58,7.58H841.34a7.62,7.62,0,0,1-7.62-7.62V82.25h15.55v7.87h7.86V82.25H874v7.87h7.86V82.25Zm-6.12,73.63a8.94,8.94,0,0,1-8.94,9.31h-33.7a8.94,8.94,0,0,1-8.94-9.31l1.78-43.58a1.76,1.76,0,0,1,1.76-1.69h44.49a1.75,1.75,0,0,1,1.76,1.69Zm-15.07-13.32a10.72,10.72,0,0,0-21.44,0v19.93h21.44Z" transform="translate(22.48 364.65)" fill="#1b1a33"/>
        <g id="Groupe_90" data-name="Groupe 90" clip-path="url(#clip-path-3)">
          <rect id="Rectangle_231" data-name="Rectangle 231" width="399.14" height="443" transform="translate(22.62 364.65)" fill="#17152a"/>
          <path id="Tracé_632" data-name="Tracé 632" d="M-22.48,209.79V203c1.05,4.33,2.07,8.67,3.16,13,.76,3,1.62,5.91,2.44,8.86a.76.76,0,0,0,.36-.7c-.12-6.44-.38-12.89-.32-19.32a135.16,135.16,0,0,1,7.45-44.6,271.181,271.181,0,0,1,25.91-52.47c5.68-9.11,11.71-18,17.22-27.19C41.86,67,46,52.44,44.21,36.48a95.7,95.7,0,0,0-4.66-21c-3.18-9.16-7.79-17.65-12.26-26.2h1.79C30.51-7.83,31.9-4.88,33.4-2,39.27,9.43,43.7,21.26,45.29,34.15c1.71,13.92-.13,27.17-6.48,39.62A211.148,211.148,0,0,1,26.89,94.11C14.47,112.9,3.23,132.29-5.33,153.2c-7.89,19.29-10.64,39.36-10.16,60A12.78,12.78,0,0,0-15,211a105.6,105.6,0,0,1,8.41-31.48C-1.24,167.17,6.13,156,13.54,144.77c8.67-13.06,17.5-26,24.62-40,6-11.81,11-23.94,13.34-37A89.73,89.73,0,0,0,49.58,26,98.76,98.76,0,0,0,36.88-1.11c-2.17-3.27-4.48-6.44-6.73-9.65h1.79C33-9.2,34-7.61,35.13-6.08A98.771,98.771,0,0,1,53,34.26c2.7,14.51,1.63,28.84-2.25,43-4.31,15.79-11.81,30.17-20.28,44-7.75,12.74-16.2,24.91-24.21,37.4-8.65,13.49-15.55,27.76-18.56,43.65-.68,3.59-1.15,7.22-1.72,10.83a46.521,46.521,0,0,0,2.36-6.57C-7.65,194-.21,183.5,8.77,174c9.55-10.13,19.26-20.14,26.6-32.13,2.67-4.36,6.14-8.24,8.76-12.62a162.679,162.679,0,0,0,8.47-16.12c5.58-12.24,8.93-25.08,8.59-38.6-.23-9.29-.77-18.6-1.78-27.83a92.23,92.23,0,0,0-16-42.93c-3.42-4.94-7.13-9.68-10.7-14.51H38a9.909,9.909,0,0,0,.71,1C46.63-1,53,8.62,56.9,19.83c.55,1.62,1.06,3.25,1.6,4.87a6.19,6.19,0,0,0-.31-2.48C55.26,11.92,49.55,3.09,43.52-5.57,42.35-7.26,41.29-9,40.18-10.76h1.43c2.77,4.09,5.6,8.16,8.31,12.3,4.7,7.18,8.47,14.8,10.31,23.24,1.1,5.07,2,10.19,3,15.24a20.35,20.35,0,0,0,.14-3.6C61.43,22.28,57.48,8.83,49.79-3.35,48.27-5.76,47-8.29,45.55-10.76H47C50.21-5,53.65.65,56.6,6.55c3.27,6.55,5.1,13.64,6.7,20.78a5.61,5.61,0,0,0,0-1.42c-1.21-8.75-4.2-17-7.75-25C53.78-3,52-6.87,50.2-10.76h1.43l10.93,25c-.26-1.34-.57-3.71-1.19-6-1.75-6.37-3.62-12.7-5.44-19h3.94C60.58-8.19,61.3-5.61,62-3c1.45,5.27,3.31,10.48,4.23,15.85,1.6,9.26,1.24,18.66.86,28-.48,11.68-1.11,23.35-1.44,35a112.861,112.861,0,0,1-2.6,22.55c-.43,1.84-.94,3.67-1.41,5.51A121.547,121.547,0,0,0,67,92.59a96.25,96.25,0,0,0,7.61-33.1c.86-16.46-2-32.42-6.15-48.24a98.3,98.3,0,0,1-3.58-22h1.43C67-5.69,67.39-.57,68.37,4.44c2,10.05,4.52,20,6.31,30.08a114.23,114.23,0,0,1,.75,31.72c-1.2,11.65-5,22.51-9.81,33.08-1.21,2.66-2.4,5.34-3.6,8q6.43-8.77,12.26-17.86a53.24,53.24,0,0,0,8.53-29.64c0-12-2-23.74-3.75-35.52s-3-23.3-1.29-35.07H79.2c-.14,1.12-.29,2.24-.41,3.37C77.62,3.27,79,13.79,80.44,24.32c1.35,10,2.69,20,3.53,30,.76,9,0,18-3.65,26.51A98.51,98.51,0,0,1,70.41,98c-.78,1.14-1.54,2.3-2.31,3.45l.36.29a40.141,40.141,0,0,0,4.33-4.21A81.68,81.68,0,0,0,85.94,72.85c2.85-8.74,2.94-18,3.57-27,.61-8.88-1.31-17.57-2.27-26.34a93,93,0,0,1,1.63-30.22H90.3A84.19,84.19,0,0,0,89.07,22.7c2.46,14.36,2,28.61,0,42.93-1,7.18-3.91,13.6-7.14,19.93-1.42,2.77-3,5.45-4.49,8.18a8,8,0,0,0,2-1.77c2.75-3.46,5.51-6.9,8.19-10.4a60.89,60.89,0,0,0,13-39.1c-.14-7.61-1.17-15.21-2-22.79C97.91,12.35,96.8,5.1,96-2.19a79,79,0,0,1,0-8.57h4a7.335,7.335,0,0,1,0,1.24c-.84,13.55,1.73,26.57,6,39.34,2,5.87,4.4,11.64,5.7,17.66,2.39,11,4.24,22.12,6,33.23a118.46,118.46,0,0,1,1.54,28.34c-.1,1.3-.19,2.6-.29,3.91l.47.1c1.24-4.34,2.79-8.61,3.64-13,1.6-8.32.94-16.75.31-25.14-1-13.1-3.66-25.95-6.16-38.82-3-15.47-5.62-31-4.8-46.84h1.43a113.809,113.809,0,0,0,1.33,26.21c2.19,13.34,4.73,26.63,7.07,40a189.078,189.078,0,0,1,3.09,32.38c0,5.12,0,10.26-1.45,15.26-.77,2.66-1.6,5.31-2.49,8.28a5.34,5.34,0,0,0,.66-.71,78.521,78.521,0,0,0,7.24-17.44,108.47,108.47,0,0,0,2.76-36c-.62-7.82-1.53-15.64-2.7-23.4C127.22,19,124.62,4.22,124-10.76h1.43c.48,12.11,2.22,24.07,4.15,36,1.14,7.11,2.22,14.24,3.06,21.39.65,5.48,1.08,11,1.23,16.53.3,10.41-.43,20.75-3.32,30.81-1,3.64-2.37,7.18-3.57,10.77l.43.27c2-3.32,4.42-6.47,5.84-10,4.57-11.39,7.07-23.37,9-35.43a144.8,144.8,0,0,0,1.72-22c0-8.33-.73-16.66-1.23-25-.46-7.79-1-15.58-1.54-23.36h1.43c.26,5.35.31,10.72.83,16.05,1.2,12.52,2.79,25,1.65,37.63-.6,6.57-1,13.17-2,19.68a170.907,170.907,0,0,1-3.76,17.27c-1.45,5.52-3.26,10.95-5,16.38a27,27,0,0,1-2,3.91,17.31,17.31,0,0,0,3.42-3.92c2.62-4.19,5.33-8.34,7.66-12.69,5.73-10.71,9.48-22.21,13.1-33.77a119.05,119.05,0,0,0,5.13-34.51,172.818,172.818,0,0,0-1.49-26h1.43v1.42c.47,6.83,1.25,13.66,1.36,20.49.18,11.77-.63,23.45-4,34.86-4.07,13.91-8.56,27.64-15.53,40.44-.32.58-.63,1.17-.94,1.76l.5.33c3.39-4.38,6.89-8.67,10.13-13.15,5.24-7.26,8.55-15.53,11.92-23.74C171.5,36,176.2,19.82,177.13,2.79c.25-4.5-.1-9-.18-13.55h3.94c.1,3.4.19,6.8.29,10.2h.52c.33-3.4.65-6.81,1-10.21h1.43q-2,13.41-4,26.77a3.732,3.732,0,0,0,.34-.72c1.21-4.53,2.54-9,3.56-13.62.92-4.1,1.48-8.28,2.2-12.43h1.43a8.4,8.4,0,0,1-.08,1.42c-1.22,5.82-2.44,11.63-3.71,17.44-.35,1.65-.84,3.27-1.27,4.9,4.26-7.38,5.45-15.66,7.21-23.76h1.43q-.92,4.49-1.85,9l.39.14q2.16-4.56,4.33-9.1h6.44C198.4-6.46,196.31-2.1,194,2.15c-5.48,10.18-11.16,20.26-16.54,30.49-5.71,10.89-10.63,22.1-13.39,34.19a109,109,0,0,0-2.85,19.58,131.36,131.36,0,0,0,2.29,28.13c2,11.38,5.87,22.2,10.1,32.9.26.65.59,1.27.88,1.9a2,2,0,0,0,0-1.24,147.827,147.827,0,0,1-3.36-29.8,187.93,187.93,0,0,1,4.88-43.45A367.456,367.456,0,0,1,189.3,30.36c5-13.78,10.33-27.42,15.52-41.12h1.43c-.92,2.45-1.8,4.92-2.76,7.36-8.81,22.33-17.25,44.8-23.53,68a210.15,210.15,0,0,0-7.26,43.11,139.42,139.42,0,0,0,4.35,44.84c1.19,4.38,3.31,8.5,5,12.74l.5-.2c-.39-2-.76-3.95-1.18-5.92a138.92,138.92,0,0,1,.48-59.62A349.622,349.622,0,0,1,193.5,60.16c5.46-15.69,11.08-31.35,14.71-47.6,1.72-7.73,3-15.55,4.48-23.33h1.43a3.862,3.862,0,0,1-.07.89A325.6,325.6,0,0,1,200.81,43.3c-5.31,16-10.67,32-15.51,48.11a141.781,141.781,0,0,0-5.54,34.34c-.48,10.49.73,20.84,2.58,31.13.79,4.37,1.79,8.7,2.7,13,.19-2.77.26-5.48.18-8.18-.5-16.56,3-32.45,7.89-48.12,6.28-20.13,12.61-40.25,18.67-60.44a222.61,222.61,0,0,0,8.47-42.71c.67-7.06.94-14.16,1.39-21.24h1.43c-.07.59-.16,1.17-.2,1.76-.39,6.25-.64,12.5-1.2,18.73a223,223,0,0,1-8.63,44.13q-8.61,28.85-17.77,57.52c-5.27,16.62-9.26,33.42-8.68,51,.06,1.9.1,3.81.22,5.71s.33,3.77.5,5.65a4.87,4.87,0,0,0,.51-1.94c1.17-10.06,1.9-20.18,4.59-30,3.26-11.94,8.08-23.29,13-34.58,8.66-19.72,16.3-39.79,21.13-60.83a185.269,185.269,0,0,0,5.07-39.29c.07-5.95-.21-11.91-.34-17.87h1.44a13.451,13.451,0,0,0,0,1.42A185.84,185.84,0,0,1,230.35,35a237.461,237.461,0,0,1-11.77,43.23c-4.69,12.36-9.84,24.55-14.93,36.76-4.91,11.79-9.65,23.63-11.83,36.29-.9,5.21-1.41,10.48-2.1,15.73a3.42,3.42,0,0,0,.83-1.55c1.58-5,2.85-10.12,4.81-15A265.332,265.332,0,0,1,214.56,113c11.16-18.48,19.72-38,24.68-59.08a125.33,125.33,0,0,0,3-40.32c-.75-8.16-2.42-16.24-3.68-24.36h3.59l1.59,8.19.25-.06,1.74-8.13h3.58c-.71,3.8-1.62,7.57-2.08,11.4A97.55,97.55,0,0,0,247.92,27a155.562,155.562,0,0,0,3.17,16.48c1.57,5.91,4,11.59,5.66,17.47,3.14,11,6,22.06,9,33.09,4.05,14.86,7.13,29.89,7.67,45.35a8.44,8.44,0,0,0,.21,1.32c2.5-12.46,1.75-24.84-1-37.08-1.8-8-4.09-15.92-6.19-23.86-3.39-12.84-6.7-25.69-9-38.79A195.085,195.085,0,0,1,254.1,8.67c-.06-6.48.57-13,.89-19.45h1.44c-.1.83-.22,1.65-.3,2.48-1.84,19.12-.09,38,4.14,56.66,3.43,15.1,7.51,30,11.41,45,2.9,11.17,5.12,22.44,4.82,34.05-.11,4.13-.55,8.26-.84,12.45.16-.32.34-.62.47-.94a49.7,49.7,0,0,0,3.23-15.87c.63-14-1.29-27.7-3.81-41.41-3-16.46-5.81-33-8.53-49.48A176.067,176.067,0,0,1,265.1-4.4q.15-3.21.28-6.41h1.43a13.267,13.267,0,0,1,0,1.41,174.6,174.6,0,0,0,1.37,40.87c2.59,17,5.77,34,8.86,50.9,3,16.64,5.34,33.29,2.51,50.17a3,3,0,0,0,.28-.57c.27-1,.52-2,.77-2.94,3.35-13.05,5.44-26.28,4.78-39.8-.4-8-1-16.07-1.85-24.07-2.06-19.32-4.4-38.61-6.45-57.94-.63-6-.67-12-1-18h1.07c.34,4.81.56,9.63,1,14.43,1.31,13.1,2.72,26.19,4.11,39.29,1.3,12.26,2.65,24.52,3.9,36.8A128.64,128.64,0,0,1,284.7,117c-.86,4.53-1.91,9-2.88,13.52a37.38,37.38,0,0,0,1.75-3.46A119.72,119.72,0,0,0,294.35,91.8a227.122,227.122,0,0,0,1.58-45.14A360.494,360.494,0,0,0,289.48-.42c-.67-3.44-1.26-6.89-1.89-10.34h1.07c1,5,2.1,9.9,3.08,14.86a328.931,328.931,0,0,1,5.4,39.66,223.5,223.5,0,0,1-.91,44.11C294.83,99,292.52,110,288,120.31c-1.41,3.23-2.79,6.48-4.18,9.72A48,48,0,0,0,288,125.1c5.74-7.58,9.73-16.1,13.35-24.8,6.66-16,10.53-32.52,10.47-49.89a135.141,135.141,0,0,0-14.54-61.17h3.94c1.49,3.33,3,6.66,4.5,10.09.17-3.47.35-6.78.52-10.09h3.22a3.343,3.343,0,0,1,.08.7c-1,9,1,17.52,3.18,26.1a84,84,0,0,1,3,15.76,214.27,214.27,0,0,1-.55,35.73c-1,9.79-3,19.32-7.61,28.13-.25.48-.43,1-.64,1.5a65.7,65.7,0,0,0,9.7-16A61.251,61.251,0,0,0,321.17,59c.21-11.44.2-22.91-.44-34.33-.42-7.46-2.25-14.83-3.21-22.28-.56-4.35-.64-8.77-.93-13.15H318c.3,4.56.39,9.16,1,13.69,1,7.62,2.77,15.17,3.22,22.81.64,10.76.62,21.58.39,32.36A64.31,64.31,0,0,1,310.4,95.21c-1.22,1.7-2.36,3.47-3.54,5.2a.646.646,0,0,0,.62-.09c10.37-10.4,16.88-23,20.56-37.07,2.45-9.37,1.85-18.92,1.39-28.47q-.77-15.71-1.12-31.44c-.11-4.7.3-9.4.47-14.1h1.44c-.14,2.07-.32,4.15-.4,6.23A412.991,412.991,0,0,0,331,40.52a70.1,70.1,0,0,1-3,27.55c-3.24,9.74-7.38,19-14.08,26.92-3.39,4-6.94,7.87-10.41,11.8-.59.67-1.15,1.37-1.72,2.06l.53.43C309.25,101.66,316.06,94,323,86.45a37.06,37.06,0,0,0,7.91-14.85c1.95-6.57,3.75-13.18,5.71-19.74a105.211,105.211,0,0,0,4.64-27.24c.22-7.79,0-15.61-.09-23.41,0-4-.14-8-.21-12h1.43c.11,11.91.49,23.84.24,35.75a98.882,98.882,0,0,1-4.43,26.37c-2.23,7.45-4.31,15-6.46,22.43,2.37-3.49,4.79-7,6.26-10.9,2.65-7,4.71-14.23,7-21.35a66.86,66.86,0,0,0,3.12-25.72C347.53,7,347.38-1.9,347-10.76h1.44c.12,6,.22,11.91.37,17.87.18,6.91.66,13.82.54,20.72-.13,7.51-3.59,14.27-5.55,21.37-1.11,4-2.39,7.93-3.59,11.9l.46.18c1.42-3,3-5.92,4.24-9,1.78-4.29,3.6-8.59,5-13,5-16.4,3.89-33.27,3.58-50.06h6.44a26.932,26.932,0,0,0,.2,3.36c1.41,10.43,5,20.21,9,29.87s8.62,19.19,11.8,29.15c3.91,12.29,6.81,24.93,9.8,37.49,3.7,15.54,7,31.18,12.89,46.09,1.57,4,3.32,7.87,5,11.79-.74-3.51-1.91-6.86-2.81-10.29-4.06-15.31-5.94-31-7.84-46.69-1.22-10.13-2.14-20.35-5.87-29.93-3.28-8.43-7-16.68-10.82-24.91-6.74-14.66-11.88-29.77-13.44-45.93h1.43c.9,5.34,1.57,10.73,2.76,16,2.81,12.45,7.85,24.09,13.49,35.48,6.12,12.5,10.87,25.41,12.59,39.3,1.3,10.53,2.64,21,4.12,31.55,1.72,12.22,3.87,24.38,8.55,35.89,2.24,5.51,4.91,10.84,7.38,16.26.35-.27.38-.4.34-.49-.18-.5-.38-1-.59-1.49a102.55,102.55,0,0,1-8.73-38.11q-.29-12.25-.47-24.5c-.18-13-1.82-25.82-6.43-38.06-3.95-10.47-8.27-20.81-12.5-31.17-5.35-13.11-10.11-26.38-11.25-40.65H380a98.862,98.862,0,0,0,6.63,28.45C391.54,30.53,397,43.19,402,56c3.92,10,6.81,20.39,7.41,31.19q.84,15.09.93,30.22c.11,15,2.66,29.53,8.7,43.35a5.222,5.222,0,0,0,.51.75,32.933,32.933,0,0,0-.93-5.84c-2-9.66-1.93-19.43-1.53-29.22.37-9.06,1-18.1,1.24-27.16A105.911,105.911,0,0,0,411.86,60c-3.5-9.56-7.49-18.94-11.26-28.39A124.71,124.71,0,0,1,392-1.18c-.34-3.19-.65-6.39-1-9.58h1.44c.08.58.21,1.16.24,1.75a96.939,96.939,0,0,0,4.77,27.21c3.36,9.73,6.95,19.41,11.05,28.85a132.719,132.719,0,0,1,10.65,65.81,195.319,195.319,0,0,0-.66,32.36c.15,1.89.37,3.77.56,5.66a22.534,22.534,0,0,0,.78-4.43c.5-3.3,1.29-6.56,1.59-9.88a287.085,287.085,0,0,1,5.29-34.78c2.25-10.51,3-21.07.63-31.59-1.54-7-3.9-13.74-5.86-20.61-4-14.09-8.19-28.14-12-42.29-1.58-5.91-2.34-12-3.47-18.06h1.43c1.59,8,2.71,16.14,4.86,24,4.3,15.62,9,31.13,13.84,46.59a78.71,78.71,0,0,1,2.72,38c-1.48,8.27-3,16.53-4.43,24.81-.41,2.34-.64,4.71-.94,7.07a55.092,55.092,0,0,0,4-10c1.79-6.67,3.19-13.45,4.91-20.14a159.255,159.255,0,0,0,5.18-34.58c.57-18.46-2.54-36.47-6.72-54.34-1.67-7.13-3.42-14.24-5.14-21.36h1.44C428-7.41,428.82-4,429.64-.69c4.17,17,8.11,34.07,9.14,51.65a148.54,148.54,0,0,1-3.48,42.62c-1.31,5.67-2.72,11.32-4.08,17a3.37,3.37,0,0,0,.93-1.3q2.93-7,5.83-14,2.5-6.09,5-12.17V102.8c-1.6,2.22-3.31,4.37-4.79,6.67-7.75,12-13.69,24.74-14.65,39.26-.77,11.7,0,23.25,4.37,34.32A11.87,11.87,0,0,1,429,187.3a22.32,22.32,0,0,0,1.91,8.48c2,5.05,3.89,10.12,6.06,15.09,1.85,4.25,4,8.36,6,12.53V237c-.61-1.67-1.2-3.34-1.82-5-1-2.77-2.09-5.55-3.23-8.57,1.29,8.2,2.54,16.06,3.79,23.93.41,2.63.84,5.26,1.26,7.9V266a9.2,9.2,0,0,1-.37-1.34c-1.55-10.85-3-21.71-4.67-32.55-.66-4.32-1.81-8.57-2.74-12.86a1.22,1.22,0,0,0-.36,1.13,142.379,142.379,0,0,1,2.26,32.76c-.66,12.37-1.91,24.72-3.08,37.06-.83,8.84-1.91,17.65-2.93,26.47-1.68,14.51-3.67,29-5,43.51-1.58,17-1,34,3.35,50.62.3,1.16.57,2.32.95,3.45s.85,2.22,1.31,3.32.91,2.05,1.37,3.08a195.982,195.982,0,0,1-2.85-19.81c-.94-13.67,1.24-27.11,4-40.45,2.09-9.91,4.31-19.79,6.43-29.69.84-3.89,1.55-7.81,2.32-11.71v8.23c-.68,3-1.4,6-2,9-3.09,14.45-6.79,28.77-8.57,43.47-1.41,11.72-1.57,23.42,1,35,.51,2.35,1.19,4.66,1.79,7a3.52,3.52,0,0,0,.21-2c-.54-5.51-1.44-11-1.54-16.53A98.79,98.79,0,0,1,439,370.48c1.22-3.72,2.67-7.35,4-11v3.94c-.15.31-.34.62-.46.94a115.485,115.485,0,0,0-7,29.13c-.19,1.9-.33,3.8-.4,5.71s0,3.79,0,4.84c1.33-6.1,2.7-13,4.38-19.79.87-3.55,2.28-7,3.45-10.45v15a52.089,52.089,0,0,0-3.89,15.49,94.6,94.6,0,0,0,1.54,23.33c.68,3.79,1.56,7.54,2.35,11.31v16.11H280.64l3,2.83a.78.78,0,0,1-.75,0c-2.1-.82-3.43-2.88-6.13-2.87q-73.38.12-146.76.06-61.57,0-123.14.1c-9.78,0-19.56-.06-29.34-.09V440.74a2.82,2.82,0,0,1,.32.59c1.07,4,2.1,8.07,3.22,12.08.14.5.72,1.21,1.13,1.24,2.06.12,4.14.05,6.4.05-1.29-4.95-2.57-9.66-3.75-14.39-2.6-10.39-4.46-20.85-3.9-31.65.65-12.68,3.67-24.85,7.69-36.8C-7.73,361-3.7,350.31-.11,339.46,3.37,328.93,5.53,318.13,4.77,307c-.18-2.71-.64-5.39-1-8.08H3.32v1.52c-.12,3.86.07,7.78-.46,11.58-.59,4.17-1.95,8.22-2.8,12.36a116.15,116.15,0,0,1-8.16,24.9,171.4,171.4,0,0,0-8.55,22.53c-1.62,5.52-3.86,10.87-5.83,16.29V372.71c.28-.59.6-1.17.82-1.78,1.94-5.19,3.8-10.41,5.8-15.58C-11.35,343.68-6.76,332-4,319.77a86.18,86.18,0,0,0,.28-37.95c-2.59-11.71-6.83-22.82-11.65-33.74-2.13-4.84-4.51-9.57-6.78-14.36l-.33-.29v-9.31l4.43,7.95.47-.23q-2.45-5.66-4.9-11.3V217q2.41,5.39,4.84,10.79c-.46-2.19-1.08-4.34-1.68-6.5Q-20.91,215.515-22.48,209.79Zm222.62,152.6a127.2,127.2,0,0,0,11.78,19.17,4.71,4.71,0,0,0-.63-1.57c-1.64-2.63-3.3-5.24-4.94-7.88-2-3.27-4-6.56-6.06-9.85a2.18,2.18,0,0,0-.11-.52c-6.53-11.63-11.19-24-15.12-36.74a3.219,3.219,0,0,0-.52-.69c-.1,1.16-.2,2.1-.27,3.05-.46,6.56.25,12.9,4.07,18.47S196.2,356.88,200.14,362.39ZM266.68,367l.42.19c2.27-5.55,4.79-11,6.75-16.68,4.51-13,6.86-26.5,8.13-40.21a203.6,203.6,0,0,0-1.68-49.39c-2.26-15-5.87-29.68-9.61-44.35-2.89-11.36-4.82-22.87-4.56-34.65.07-3.06.36-6.12.55-9.22-1.1,2.73-2.2,5.42-3.27,8.12-1.94,4.93-4.51,9.72-5.67,14.82a95.531,95.531,0,0,0-1.34,34.17c1.45,10.66,3.55,21.25,5.57,31.84,3.63,19.1,7.1,38.22,7.93,57.7a195.193,195.193,0,0,1-.9,33.26C268.36,357.43,267.46,362.22,266.68,367Zm48.88-85.92a36.811,36.811,0,0,0,1.5-4.36c2-9.55,4.44-19.05,5.83-28.7,2.59-17.85,2.08-35.82.66-53.75-1-12.6-2.47-25.15-3.48-37.75a91.54,91.54,0,0,1,3.6-34c3.05-10.09,6.7-20,10.1-30,1.56-4.58,3.15-9.16,4.73-13.74a.9.9,0,0,0-.67.5c-4.69,8.77-9.24,17.62-14.1,26.3-7.59,13.56-14.53,27.38-18.68,42.44-3.32,12-4.39,24.17-1.68,36.44,1.77,8,3.9,16,5.7,24,3.07,13.67,5.75,27.43,7,41.4.93,10.41,1.72,20.78-.51,31.25ZM226.21,253.7l.39-.06a7.3,7.3,0,0,0,.05-1.14c-.38-3.74-.79-7.47-1.16-11.21-1.53-15.59-.29-31,5.27-45.63,4.09-10.77,9.32-21.12,14.23-31.56a128.671,128.671,0,0,0,7.76-19.71,122.869,122.869,0,0,0,4.38-31.62c.26-16.66-2.06-33-5.1-49.37-.48-2.61-1.09-5.19-1.64-7.78a51.215,51.215,0,0,0,0,7c.62,15.6-.44,31-5.42,45.93-3.58,10.73-7.54,21.35-11.7,31.88a158.27,158.27,0,0,0-11.51,52.66,317.3,317.3,0,0,0,2.82,52.64C224.94,248.42,225.66,251.05,226.21,253.7Zm34.57-70.55-.42-.18c-2.6,4-5.7,7.74-7.67,12a163.238,163.238,0,0,0-7.24,19.21,62.32,62.32,0,0,0-2.07,27.27c1.22,9.08,3,18.09,4.84,27.07,1.94,9.64,4.22,19.21,6.3,28.82a235,235,0,0,1,4.73,31.44c.67,8.8,1.34,17.6,1.79,26.42.25,5,.2,10.12,0,15.17-.09,2.89-.66,5.76-1,8.63l.48.17c1.36-3.53,3-7,4-10.6a116.748,116.748,0,0,0,4-26.48,229.868,229.868,0,0,0-2.27-46.75c-2.44-15.71-5.37-31.35-8.36-47-2.62-13.64-4.53-27.3-3.24-41.22.57-6,1.1-12.12,3.5-17.82ZM248.88,200c-4.08,4.73-10.1,15.82-12.59,21.75C230.72,235,230,249,230.39,263c.21,7.81,2,15.45,4,23a332.312,332.312,0,0,0,14,41.08,129.669,129.669,0,0,1,9.6,39.07c.28,3.66.36,7.33.53,11h.62c.32-4.43,1-8.87.89-13.29-.21-7.92-1-15.83-1.37-23.75a291.318,291.318,0,0,0-6.66-48.2c-3.41-15.59-6.8-31.2-9.56-46.91a69.36,69.36,0,0,1,2.91-35.3C246.48,206.46,247.7,203.24,248.88,200Zm-22,43h.46a10.325,10.325,0,0,1,.15-1.35c.66-5.08,1.07-10.2,2-15.22,2-10.49,7.05-19.7,13.05-28.39,4.63-6.72,9.52-13.26,14.18-20s8.72-13.79,10.78-21.85c3-11.79,2.66-23.63.53-35.47a339.93,339.93,0,0,0-10.4-41.95c-.94-3-1.84-6-2.75-9a2.6,2.6,0,0,0-.08,1.45c2.44,14.67,4.06,29.4,3.59,44.31-.46,14.5-3.09,28.54-9,41.83-3.3,7.45-6.83,14.81-10.52,22.08-8.2,16.18-12.74,33.22-12.59,51.41C226.37,235,226.69,239,226.88,243Zm92.86,29.5a2.47,2.47,0,0,0,.32-.38,70.15,70.15,0,0,0,6.92-18.9c3.32-16.33,6.6-32.69,9.52-49.1a132.081,132.081,0,0,0,1.5-35.63c-1.2-12.69-2.56-25.38-3.67-38.08a148.669,148.669,0,0,1,.78-31.06c.35-2.91.79-5.82,1.19-8.73a1.53,1.53,0,0,0-.69.87c-2.75,7.75-5.58,15.46-8.22,23.24-4.37,12.93-6.87,26.18-6.06,39.88.5,8.5,1.2,17,2.18,25.46A351.31,351.31,0,0,1,326,219.5a193.271,193.271,0,0,1-2.23,32.61C322.61,258.92,321.1,265.66,319.74,272.5ZM71.58,231.78a5.749,5.749,0,0,0,0-1,171.89,171.89,0,0,1-2.13-54.26A121.72,121.72,0,0,1,84.5,131.19c6.17-11,12.57-21.79,18.22-33,5.53-11,9.26-22.59,7.91-35.27-.49-4.62-1-9.2-3-13.65a3.83,3.83,0,0,0-.11.67,6.838,6.838,0,0,0,.08.89,50.46,50.46,0,0,1-3.2,28.72c-3.63,8.75-9,16.37-15,23.57-8.72,10.43-16.5,21.41-21.78,34a107.79,107.79,0,0,0-7.65,57.93A117,117,0,0,0,67.8,222.3C69,225.35,70.19,228.36,71.58,231.78Zm204-81.67a9.763,9.763,0,0,0-.53.84,67.181,67.181,0,0,0-7.13,24.38c-1.2,11.76.14,23.34,2.7,34.8,2.9,13,6.21,25.83,8.93,38.82a206.237,206.237,0,0,1,4.37,53.33c-1,18.37-3.88,36.36-10.52,53.62a4.311,4.311,0,0,0,0,1c2.05-3.56,3.87-6.76,5.74-9.94,5.38-9.19,9.89-18.74,12.43-29.16,4.15-17,3.64-34.17.85-51.33-2.52-15.54-6.62-30.73-10.73-45.91-2.85-10.58-6.1-21.06-8.95-31.64-2.2-8.19-3.19-16.54-1.19-24.93,1.09-4.64,2.62-9.14,4.02-13.88ZM128.13,245l.3.09c.42-.91.85-1.82,1.25-2.74,3.57-8.06,6.86-16.25,10.75-24.14,5.51-11.19,9.88-22.68,11.91-35,2.28-13.82,2.29-27.79,3.37-41.69.64-8.37,1.18-16.75,2.12-25.09a71.579,71.579,0,0,0-.05-18.67c-.83,2.56-1.57,5.19-2.54,7.73-4,10.52-8.21,21-12.13,31.53a83.8,83.8,0,0,0-5.49,23.76c-.56,9.16-.68,18.37-.44,27.55a138.351,138.351,0,0,1-5.28,42.6C130.54,235.51,129.38,240.25,128.13,245Zm-2.31,2.48.18.08c1.65-6.14,3.31-12.28,4.94-18.42,2.83-10.7,5-21.49,4.84-32.63-.07-5.67-.17-11.34,0-17,.26-8.14.41-16.32,1.27-24.41.89-8.38,3.75-16.36,6.76-24.22,3.68-9.62,7.49-19.2,11.17-28.83a31.33,31.33,0,0,0,1.57-13.39c-1.6,3.48-2.88,7.17-4.89,10.41-3.36,5.41-7,10.63-10.86,15.74-13.19,17.75-19.59,37.47-17.58,59.65.68,7.53,1.65,15.05,2.66,22.54a189.917,189.917,0,0,1,1,36.77c-.22,4.54-.68,9.1-1.06,13.67Zm184.9,41.68a49.71,49.71,0,0,0,4.73-19.34,194.23,194.23,0,0,0-2.64-34.55c-2.36-15.09-5.87-29.92-9.63-44.7a78.9,78.9,0,0,1-1-36.32c2.84-13.35,7.91-25.85,14.23-37.86,5.6-10.65,11.6-21.1,17.38-31.66,1.21-2.22,2.19-4.56,3.28-6.84a1.51,1.51,0,0,0-.93.64c-7.4,10.1-14.94,20.09-22.15,30.33-7.4,10.49-13.86,21.55-18.28,33.69-4.85,13.33-6.44,26.94-3.84,41,1.63,8.82,4.52,17.27,7.47,25.71,5.11,14.57,9.95,29.23,12,44.61,1.57,11.72,2.22,23.54-.62,35.25Zm-36.39,69,.28.26c1.34-2,2.7-3.92,4-5.91,5-7.56,10.18-15,14.88-22.74a80.82,80.82,0,0,0,11.76-43.27c-.06-12-2.18-23.71-4.67-35.39-3.37-15.86-8.77-31.05-14.95-46A168.5,168.5,0,0,1,275,169.31c-.53-3.09-.61-6.26-.94-9.94-.56,2.47-1.08,4.42-1.44,6.4-1.53,8.42-.26,16.64,2,24.75,3.79,13.73,7.8,27.39,11.48,41.14,4.49,16.77,8.52,33.63,9.65,51,1.4,21.45-2.12,41.83-13,60.65-2.86,4.94-5.63,9.86-8.42,14.77ZM246.47,42.5l-.42.1c.23,2.77.25,5.57.74,8.3A57.7,57.7,0,0,1,246,76.79c-2.7,9.67-6.14,19.17-9.72,28.56C231.49,117.82,226,130,221.37,142.52c-7.46,20.36-9.58,41.49-7.79,63,1.07,12.9,4.11,25.39,7.65,37.79,1.33,4.67,2.7,9.33,4.06,14a.92.92,0,0,0,.26-.92c-2.48-8.53-3.2-17.31-4-26.1a271.05,271.05,0,0,1-1-40.39c.75-12.36,2.54-24.57,6.63-36.29,4-11.53,8.48-22.9,12.74-34.35a135.129,135.129,0,0,0,7.5-27,154.461,154.461,0,0,0,0-45.79A37.734,37.734,0,0,0,246.47,42.5ZM55.94,399.07l.42.16a72.654,72.654,0,0,0,3-6.62c2.83-8.22,5.54-16.49,8.24-24.75,4.33-13.29,7.93-26.8,8.43-40.82.37-10.17.18-20.39-.42-30.55-.54-9.21-1.74-18.39-3.05-27.53-1.45-10.2-4.77-19.9-8.75-29.39-1.13-2.71-2.36-5.38-3.54-8.07-.13,2.56.27,4.95.36,7.36.22,5.78.12,11.58.45,17.35q1.21,21.15,2.72,42.28c.63,8.74,1.65,17.45,2.28,26.19.79,11,1.12,22-.77,32.83-1.68,9.67-4.11,19.21-6.27,28.8C58.08,390.58,57,394.82,55.94,399.07ZM319.23,98.57l-.16-.14c-6.38,6.25-12.83,12.44-19.13,18.78a80.38,80.38,0,0,0-13.83,18.37c-4.84,8.95-8.15,18.28-7.41,28.67.82,11.53,3.89,22.52,8,33.23,3.72,9.61,7.73,19.11,11.38,28.75A163.391,163.391,0,0,1,308.79,274c.3,4.62,0,9.28,0,13.92l.55.06c.16-.54.33-1.07.45-1.61,2-8.67,1.62-17.45.88-26.18-1.23-14.46-5.24-28.31-9.79-42-3.11-9.38-6.33-18.74-9-28.24a74.08,74.08,0,0,1-.68-37.32c3-13.07,8.88-24.89,16-36.11C311.11,110.44,315.23,104.55,319.23,98.57ZM-3.86,454.64c-.12-.64-.19-1-.28-1.44-2.39-11-4.59-22.05-5.56-33.31A82.05,82.05,0,0,1-4.41,383.6C0,371.84,4.31,360,8.12,348.05A69,69,0,0,0,10,312c-1.11-5.13-3-10.08-4.62-15.12l-.58.16a5.47,5.47,0,0,0,0,.82c2,8.56,1.78,17.13.38,25.75-1.78,10.95-5.5,21.32-9.3,31.67-4.65,12.7-9.28,25.41-11.81,38.76-1.8,9.54-2.78,19.17-1.19,28.81,1.27,7.69,3.09,15.28,4.77,22.9.66,3,1.59,5.94,2.39,8.88ZM392.53,142.53v1.72c.42,10.42,1,20.85,1.25,31.28.52,19.74,1.56,39.45,3.76,59.08q2,17.94,4.38,35.86c.68,5.12,1.73,10.21,2.77,15.28a13.633,13.633,0,0,0,1.69,3.28l.4-.19c-1.18-6.16-.6-12.34-.43-18.54.34-12.41,1.4-24.76,2.7-37.1a125.18,125.18,0,0,0-6.39-55.33C398.58,166.29,393.84,154.92,392.53,142.53Zm-167.71,120,.21-.08c-1.65-4-3.27-8-4.95-12-6.17-14.62-12-29.34-15.34-44.93a94.28,94.28,0,0,1-.34-39.75c2.5-11.67,6.75-22.71,11.66-33.52,6.75-14.87,13.52-29.71,19.3-45,4.22-11.2,8.11-22.41,8.86-34.46.09-1.42,0-2.85,0-4.27a38.53,38.53,0,0,0-1.17,4.8c-1.73,6.43-3.4,12.88-5.38,19.24a166,166,0,0,1-15.18,34.82c-8.87,15.1-18.18,30-24.57,46.4a69.6,69.6,0,0,0-5.09,29.69c.67,11.23,5.16,21.36,8.84,31.7,1.91,5.37,4.69,10.43,7.22,15.56,5.26,10.62,10.62,21.19,15.93,31.79Zm-22.23-21.79a5.686,5.686,0,0,1-.13.81c-1.23,6.73-2,13.58-3.79,20.15a64.36,64.36,0,0,0-1.92,26.9c2,13.37,4.83,26.52,10,39.19,3.86,9.52,6.58,19.51,9.62,29.35,3.47,11.21,6.69,22.49,10.1,33.71,3,9.87,6.27,19.65,8,29.85.62,3.7.83,7.48,1.68,11.13,1.31,5.68,3,11.28,4.54,16.91.11.4.26.79.39,1.19a62.09,62.09,0,0,0-.2-17.91c-1.51-10.25-3.22-20.48-4.77-30.73-2.46-16.15-6.37-31.89-12.75-47-4.69-11.08-9.39-22.16-14-33.27-3.49-8.38-6.35-16.93-7-26.11-.79-10.95.37-21.8,1.38-32.66.57-7.2.79-14.37-1.15-21.52Zm-163,84.81h.27a5.11,5.11,0,0,0-.14-1c-2.59-8-4.76-16.12-7.9-23.88-4-9.76-7.37-19.56-8.93-30-2.29-15.23-2-30.29,2.2-45.16,2.37-8.42,5.15-16.73,7.38-25.18,2-7.43,3.69-14.94,5-22.5.86-5.14.78-10.45,1-15.68.1-1.83,0-3.67,0-5.71l-.69,1.38c-2.22,5.07-4.45,10.13-6.64,15.21-3.06,7.12-6.21,14.19-9.09,21.38a112.64,112.64,0,0,0-8,52c1.21,14.25,3.86,28.26,9.1,41.57,5.04,12.65,10.91,25.02,16.41,37.56Zm98.27,50.17.67.52c2.59-1.94,5.51-3.57,7.7-5.89,5-5.31,7.26-12,8.53-19.08,1.54-8.62,1.53-17.33,1.51-26,0-10.7-.39-21.38-3.39-31.75a147.93,147.93,0,0,1-6.17-34.36A85,85,0,0,1,148,238.64c2-10.25,4.21-20.45,9.42-29.69a2.92,2.92,0,0,0,.18-.85,5.68,5.68,0,0,0-1.23,1.59,104.59,104.59,0,0,0-8.91,22.17c-2.81,9.63-5.26,19.36-5.7,29.4a206.281,206.281,0,0,0,.23,24.11c1,13.19,2.48,26.35,3.92,39.5,1.91,17.66-.26,34.67-8.08,50.84ZM356.55,23.94a7.763,7.763,0,0,0-.19.87C356,36,353.6,47,352,58.05a133.221,133.221,0,0,0-1.63,14.18c-.36,9.76-.81,19.56-.38,29.31.55,12.38,1.73,24.74,3,37.07a221.007,221.007,0,0,1,1.06,33c-.15,3.27-.37,6.55-.56,9.82l.51.09c1.14-5,2.61-10,3.34-15.09,1.48-10.31,2.63-20.67,3.78-31a202.751,202.751,0,0,0,.15-46.78c-1.8-14.94-2.08-30-3.12-45C357.67,37.26,357.1,30.8,356.55,23.94ZM72.41,230l.65-.07c-.3-3.26-.67-6.51-.91-9.77-1.4-19.24,2.46-37.5,10.73-54.82,5.05-10.59,10.47-21,15.76-31.48,7.13-14.1,12.76-28.66,13.68-44.63.24-4.29-.07-8.62-.13-12.93h-.49c-.08.14-.21.26-.23.41-1.53,9.53-5.13,18.35-9.67,26.77-5,9.33-10.35,18.51-15.61,27.72a121.78,121.78,0,0,0-14.76,41.35A149,149,0,0,0,70.13,208C70.7,215.31,71.64,222.63,72.41,230ZM64.15,382.71l.23.09c.17-.29.37-.56.51-.86,6-12.46,12.11-24.85,17.9-37.4C86.08,337.4,88.94,330,90,322.15c3.22-24.35-1.79-46.9-15.42-67.43-2.32-3.5-4.7-7-7-10.45a6,6,0,0,0,.34,1.71c1.89,6.7,4.24,13.31,5.57,20.12a255.335,255.335,0,0,1,4.08,36.4,189.912,189.912,0,0,1-1,34.63c-1.66,12.46-5.27,24.43-9.22,36.31ZM156.62,81.27l-.31-.11a2.53,2.53,0,0,0-.43.51,69.091,69.091,0,0,1-10.65,16.87c-4.86,5.8-10.09,11.29-14.85,17.17-7.46,9.22-13.16,19.45-15.71,31.16-3.07,14.14-2.27,28.32.19,42.46q4.23,24.21,8.48,48.42c.42,2.4.7,4.83,1,7.24a41.92,41.92,0,0,0,.8-5.71,206.538,206.538,0,0,0,0-36.8c-1-10.61-2.26-21.2-3.27-31.81C120.68,158,123.1,145.9,128,134.22c3.94-9.38,9.64-17.65,15.71-25.71,4.82-6.4,9.25-13,11.36-20.92C155.62,85.49,156.11,83.38,156.62,81.27ZM48.4,209.72a8.76,8.76,0,0,0,.18,1.16,48.61,48.61,0,0,1,1,20.57c-1,7.36-2.37,14.68-3.57,22-1.28,7.83-2.38,15.68-2.19,23.65.25,10.36,2.33,20.47,4.38,30.58,1.88,9.29,3.78,18.59,4.07,28.1.4,13.51-.94,26.93-2,40.37-.68,8.8-1.33,17.6-1.78,26.41a45.65,45.65,0,0,0,1.83,15.35c-.11-2.25-.41-4.49-.51-6.73a117.849,117.849,0,0,1,3.78-34.37c2.91-11.5,4.75-23.18,4.28-35-.45-11.19-1.57-22.36-2.58-33.52-1.29-14.14-2.71-28.27-2.45-42.48.16-9.12.76-18.24,1.36-27.34C54.93,228.32,52.57,218.86,48.4,209.72ZM359.85,19.49c.07.82.09,1.65.24,2.46,2.05,11.07,4.26,22.12,6.16,33.21,1.86,10.87,3.7,21.75,5,32.69a215.451,215.451,0,0,1-1,59.69c-1.56,9.87-3.91,19.56-8.39,28.54-2.34,4.69-5.45,9-7.83,13.64-1.92,3.75-3.26,7.8-4.85,11.71,4.05-4.42,7.87-8.83,11.6-13.31a31.68,31.68,0,0,0,3.15-4.54,129.39,129.39,0,0,0,16.63-57.16c.93-16.17-.65-32.16-3.67-48C373.11,58.24,366.35,39,359.85,19.49ZM330.1,269.83l-.56-.1a16.579,16.579,0,0,0-.4,1.69c-1.2,8.07-2.45,16.13-3.57,24.22-1.72,12.47-3.8,24.83-8.21,36.72-3.35,9-6.54,18.16-9.46,27.35a150.629,150.629,0,0,0-7.57,46.75c.06,9.52-.08,19.09-1.69,28.54-1,6.08-1.25,12.1,1.61,17.83.35.7.94,1.66,1.57,1.79a23.229,23.229,0,0,0,4.36.08,12.571,12.571,0,0,0,0-3.49,45,45,0,0,1-2.07-14.28,158.85,158.85,0,0,1,4.48-37.55c2.83-11.46,5.57-22.93,7.08-34.66a295.775,295.775,0,0,1,7.73-38.52c2.14-8,4.35-16.07,5.25-24.26C329.77,291.31,329.66,280.54,330.1,269.83Zm34.57-63.95a8,8,0,0,0-.41.76c-7.84,20.65-6.55,41,2.74,60.75,4,8.47,9.62,16.16,14.35,24.29,3.41,5.87,7.23,11.61,9.7,17.88,6.59,16.77,6.79,34.07,2.6,51.5-.16.68-.29,1.37-.44,2.06a6.35,6.35,0,0,0,1.81-2.51c3.92-11.15,7.5-22.38,8.33-34.28.87-12.44-2.08-23.8-9.72-33.76a253.377,253.377,0,0,1-17.9-26.95c-6.78-11.62-11.35-24-12.7-37.46-.75-7.51-.57-14.97,1.64-22.28Zm26.87-58.48h-.31c-.73,4-1.39,8-2.2,11.92-2.91,14.14-5.89,28.25-7.07,42.67a107.71,107.71,0,0,0,2.13,33.25c3.25,14,8.76,27.2,14.88,40.15.95,2,1.91,4,2.86,6a5.471,5.471,0,0,0-.06-2c-1.1-8.45-2.33-16.89-3.24-25.36-1.72-16.06-3.64-32.12-4.77-48.23-1-14.74-1.1-29.56-1.62-44.34C392,156.74,391.74,152.07,391.54,147.4Zm-36.36,49.21.23.16c3.11-2.51,6.18-5.07,9.34-7.51,5.15-4,9.12-8.69,11.29-15,2.57-7.49,6.36-14.59,8.47-22.19a162.41,162.41,0,0,0,5.62-45.47,38.509,38.509,0,0,0-.7-7.44c-1.49-7.18-3.17-14.31-4.81-21.46-2.95-12.79-6.48-25.39-11.66-37.5-4.24-9.92-8.2-20-12.16-30-1.05-2.64-1.67-5.45-2.49-8.18a6.789,6.789,0,0,0,0,2.16c1.23,9.7,4.25,18.94,7.35,28.15,7.13,21.16,13.14,42.59,15.5,64.9a172.937,172.937,0,0,1-.37,41.24,129.739,129.739,0,0,1-10.51,35.9c-3.1,6.94-6.62,13.63-12.21,19-1.02.98-1.92,2.14-2.89,3.24ZM115.06,328.68h.18c.15-1,.37-2,.45-3,.91-12,2-24,2.65-36a190.64,190.64,0,0,0-4.75-55.21c-2.63-11-5.24-22-7.72-33.06-1.24-5.53-2.17-11.13-3.25-16.69a85.46,85.46,0,0,0-1.57,9.63,152.841,152.841,0,0,0,.91,38.35c3,19.72,6.77,39.33,9.93,59,1.41,8.87,2.24,17.85,3.12,26.79C115.33,321.9,115.06,325.3,115.06,328.68ZM106.4,54.27c-.11,1-.23,2-.33,3A53.36,53.36,0,0,1,100,77.69,109.349,109.349,0,0,1,88,94.61c-9.18,11.2-18.61,22.22-26.17,34.65A77.24,77.24,0,0,0,50.2,166a100.55,100.55,0,0,0,8.74,47.23c5,11,10.69,21.7,16.07,32.53.31.63.65,1.25,1,1.87-3.76-10.33-7.91-20.47-11.76-30.71a105,105,0,0,1-4.1-61.22c4.17-18.58,12.77-34.94,24.93-49.52,5.61-6.74,11.11-13.56,15.27-21.34C105.44,75.27,108.06,65.16,106.4,54.27ZM43.86,353.85a4.1,4.1,0,0,0-.08-1,56.057,56.057,0,0,0-5.64-17.06c-4-8.25-8.3-16.37-11.88-24.8Q19.35,294.69,13.43,278c-5.71-16-9.79-32.4-9.93-49.56a82.4,82.4,0,0,1,7.74-36.59C16,181.8,23.05,173.15,29,163.82c3.26-5.11,6.32-10.33,9.4-15.54a25.61,25.61,0,0,0,1.47-3.54,3.11,3.11,0,0,0-1,1.19c-3,4.63-5.89,9.36-9.09,13.86-2.57,3.62-5.59,6.93-8.32,10.46-5.9,7.64-11.57,15.46-16.11,24C.16,204-3.77,214.1-4.87,225.13c-1.34,13.39,1.53,26.1,6.49,38.42,3.89,9.65,8,19.23,12,28.84,1.67,4,3,8.21,5,12,5.28,10.08,10.82,20,16.31,30C38.35,340.66,42.45,346.59,43.86,353.85ZM246.22,53.25h-.55c-.65,4.27-1.13,8.58-2,12.82-1.68,8.27-4.84,16.08-8,23.86-3.87,9.48-7.68,19-11.8,28.37-5.23,11.89-10.93,23.57-15,36a95.35,95.35,0,0,0-2.52,52.19,204.058,204.058,0,0,0,9.5,30c1.71,4.29,3.46,8.56,5.19,12.84a38.338,38.338,0,0,0-1.38-6.24c-3.7-13.16-6.76-26.43-7.68-40.14-1.47-22,1.29-43.36,9.16-63.94,5.45-14.25,11.52-28.25,17.1-42.45,3.95-10,7.64-20.2,8-31.18C246.31,61.28,246.22,57.26,246.22,53.25ZM205.08,238.53l-.54.13c.08.39.15.79.23,1.18.89,4.19,2.12,8.34,2.6,12.58,1.06,9.17,1.75,18.39,2.56,27.6.68,7.78,1.31,15.58,3.95,23a234.846,234.846,0,0,1,7.33,26.32c3.12,13.58,9.07,26.2,13.9,39.2,2.13,5.73,4.43,11.46,5.82,17.39,1.88,8.05,3,16.28,4.35,24.45,1.24,7.64,2.46,15.3,3.39,23,.4,3.35.06,6.8.06,10.2a10.28,10.28,0,0,0,2.46-7.38c-.56-5.63-.91-11.28-1.5-16.91-1.37-13.21-2.72-26.43-5.69-39.41-1.47-6.43-2.81-12.9-4.57-19.25-2.76-9.92-5.73-19.79-8.77-29.63-3.28-10.58-6.35-21.24-10.78-31.44a98.711,98.711,0,0,1-6.55-22.6c-1.14-6.52-2.09-13.07-3.48-19.53S206.69,244.82,205.08,238.53Zm-196,64.84c.13.44.25.88.41,1.31a62.13,62.13,0,0,1,3.15,16.81,76,76,0,0,1-3.88,29.42C5.21,361.71,1.21,372.36-2.71,383c-3.18,8.66-5.65,17.43-5.85,26.75-.21,10.08,1.17,20,3.05,29.82l3,15H4.76a12.67,12.67,0,0,0-.12-1.5c-.71-3.44-1.37-6.9-2.17-10.32A90,90,0,0,1-.14,421.73c.09-12.08,2.48-23.79,5.65-35.37,2.91-10.62,6.05-21.19,8.67-31.88a82.86,82.86,0,0,0-.06-38.64,37.67,37.67,0,0,0-5.04-12.47ZM148,224.55l-.09-.08c-1.21,2.59-2.42,5.17-3.61,7.76a95.159,95.159,0,0,0-7.41,22.52,119.32,119.32,0,0,0-1.83,25.4c.22,7,.27,14,.57,20.93.78,18.19.78,36.36-2,54.42-1.48,9.49-3.55,18.84-7.26,27.75-.44,1.05-.76,2.14-1.17,3.34.35-.09.49-.08.57-.15,3.3-2.79,6.61-5.58,9.89-8.41a2.63,2.63,0,0,0,.55-1.08c1.1-3,2-6.07,3.3-9a73.43,73.43,0,0,0,5.59-27.47c.28-11.49-1.24-22.84-2.59-34.21-1.77-15-3.24-30-1.92-45.08A147.078,147.078,0,0,1,142.9,244C144.27,237.47,146.27,231,148,224.55ZM41.86,340.19l.35-.07c-.57-2.46-1.05-4.95-1.73-7.37-2.61-9.29-6.89-17.89-11.11-26.5a152,152,0,0,1-11.1-29.17c-1.73-6.79-3.27-13.67-4.36-20.59a116.78,116.78,0,0,1,.05-39c2.38-13.25,7.21-25.68,12.64-37.9,4.21-9.46,8.48-18.89,12.69-28.35a9.54,9.54,0,0,0,.43-2c-2,2.9-3.58,6-5.42,8.85-3.69,5.76-7.52,11.43-11.35,17.1-5.15,7.61-10.15,15.28-13.28,24-5.4,15.11-5.85,30.56-3.34,46.22a198.4,198.4,0,0,0,10.83,39c5.42,14.32,10.85,28.64,17.9,42.27C37.38,331.17,39.6,335.69,41.86,340.19ZM40,170.7h-.46c-.22,2.43-.25,4.89-.7,7.28a331.556,331.556,0,0,1-9.42,38.13,150.288,150.288,0,0,0-5.25,20,110.44,110.44,0,0,0,4,51.2c.5,1.63,1.14,3.21,1.71,4.82a7.37,7.37,0,0,0,0-2.57c-1.24-10.19,0-20.21,2.34-30.11,3.25-13.48,7.41-26.76,9.23-40.56.68-5.13,1.77-10.32,1.51-15.42C42.34,192.5,41,181.61,40,170.7ZM245.64,454.61a34.241,34.241,0,0,0,1.08-3.87,75.57,75.57,0,0,0-.16-24.2c-1.12-7.12-2.14-14.27-3.45-21.35-1.65-8.83-3.06-17.76-5.48-26.39-2-7.06-5.48-13.68-8-20.6-3.32-9.05-6.59-18.13-9.46-27.33-2.06-6.58-3.08-13.48-5.21-20-2.78-8.53-5.3-17-5.95-26-.62-8.56-1.33-17.12-2.06-25.67-.23-2.63-.68-5.24-1.08-8.27-.8,10.08-1.7,19.7-2.29,29.33-.71,11.7.11,23.25,4.66,34.26,4.16,10.07,8.27,20.17,12.57,30.19,6.32,14.71,11.93,29.63,14.67,45.48,1.83,10.56,3.47,21.16,5.24,31.73,1.43,8.54,2.73,17.08,2.13,25.78-.16,2.3-.49,4.59-.75,7ZM51.79,418.66h.31c.38-3.85.43-7.77,1.21-11.54,2.09-10.15,4.39-20.25,6.79-30.33,2.1-8.88,4.1-17.76,4.74-26.9,1-13.86-.06-27.66-1.48-41.43q-2.69-26-3.6-52.1c-.24-7.38-.45-14.77-1-22.14-.42-5.51-2.57-10.56-5.26-15.69a3.07,3.07,0,0,0,0,.8c2.21,6.56,2.44,13.34,2.09,20.16-.41,7.8-1.17,15.58-1.34,23.39-.44,21.46,2.29,42.73,4.37,64a139.8,139.8,0,0,1-2.51,45.34c-2.55,11.11-5.08,22.21-5,33.69C51.18,410.16,51.56,414.41,51.79,418.66Zm244.14,24.15.54-.05c.08-1.07.08-2.15.24-3.2A205.151,205.151,0,0,0,299,409.45a156,156,0,0,1,2.11-28.13,230.2,230.2,0,0,1,12.5-42.64c5.78-14.66,8.95-29.84,11-45.38,1.07-8.32,2.5-16.6,3.84-24.89.38-2.36,1-4.67,1.52-7a2.7,2.7,0,0,0-1,1.5c-1.8,6.29-3.62,12.58-5.35,18.89-4.64,16.94-9,34-14,50.82-3,10.16-6.64,20.12-10.24,30.09a138.13,138.13,0,0,0-8.15,45.17c-.13,8.34,1.48,16.48,2.7,24.67C294.38,436,295.23,439.38,295.93,442.81Zm62-425.53V18.6c.78,13.51,1.49,27,2.38,40.52.65,9.75,1.42,19.5,2.37,29.23a217.942,217.942,0,0,1,.32,41.81c-.69,7.41-1.41,14.81-2.38,22.19s-2,14.5-3.46,21.68c-.92,4.7-2.52,9.26-3.85,14q1.5-2.49,3-4.85a67.931,67.931,0,0,0,8-16.71,149.2,149.2,0,0,0,6.43-34.69,228.657,228.657,0,0,0-2.11-53.51c-2.37-15.12-5.42-30.13-8.13-45.2-.88-5.19-1.69-10.36-2.6-15.79Zm35.32,338.47h.23c.22-1.39.49-2.78.67-4.18,1.84-13.81,1-27.4-3.87-40.54-3.36-9.14-8.88-17.14-14.28-25.13-6.55-9.7-12.06-19.89-15.13-31.21-3.66-13.47-4.41-27.09-.37-40.63,1.88-6.3,4.35-12.43,6.63-18.83-2,3.05-4.05,6-6,8.93a54.8,54.8,0,0,0-8.72,28.36,85,85,0,0,0,3.33,25.59A98.166,98.166,0,0,0,363,277.3c5.49,10.57,11.21,21,16.95,31.47a102.7,102.7,0,0,1,12.62,38.47c.3,2.83.43,5.67.65,8.51ZM47.76,389.43h-.23A23.25,23.25,0,0,0,48,387c.92-11.89,1.93-23.77,2.7-35.66.56-8.7.72-17.42-.75-26.05-1.75-10.28-3.82-20.49-5.62-30.76a106.17,106.17,0,0,1-1.78-22.59c.41-10.46,2.59-20.66,4.33-30.92,1.35-7.95,2.54-15.91,1.53-24-.29-2.36-.9-4.67-1.37-7l-.45.06c0,.35-.09.7-.11,1a120.54,120.54,0,0,1-4.29,24.07c-2.74,10.15-5.54,20.29-6.9,30.75a85.7,85.7,0,0,0-.22,21.41,159.25,159.25,0,0,0,6.83,30.83,124.76,124.76,0,0,1,5.86,38.87C47.79,367.84,47.76,378.64,47.76,389.43Zm89.68-143.55-.22-.11c-1.47,3.29-3.29,6.47-4.34,9.89a106.188,106.188,0,0,0-4.36,20.19,182.944,182.944,0,0,0-.74,27.69,182,182,0,0,1-1.87,35.3c-1.29,8.78-2.41,17.59-3.84,26.35-1.48,9.1-3.26,18.15-4.86,27.23a38.469,38.469,0,0,0-.3,4.06c6.26-7.07,5.92-7.28,9.21-16.38,4.53-12.53,6.69-25.57,7.78-38.79,1.47-17.7.55-35.4-.15-53.1a186.429,186.429,0,0,1,1.28-29.6c.52-4.28,1.59-8.49,2.41-12.73ZM105,47.15c-.47,3.32-.77,7.67-1.73,11.87-2,8.46-6.65,15.65-11.35,22.77-6.59,10-15,18.31-23.95,26.2-4.46,3.94-9,7.75-12.66,12.58A62.3,62.3,0,0,0,43,153.48c-.48,5.72.17,11.56.57,17.32a71.869,71.869,0,0,0,1.57,11.32A184.35,184.35,0,0,0,68.4,237.6c1,1.56,2,3.07,3,4.6-1.91-4.4-4.06-8.64-6.27-12.85-6.32-12-11.89-24.28-14.41-37.76a100.19,100.19,0,0,1-1-33.8c2-13.33,7.66-25.16,15.4-36,5.13-7.18,10.66-14.06,16-21,5-6.46,10.31-12.69,15-19.38C103.46,70.82,105.68,58.82,105,47.15ZM12,305.21c.46,1.09.93,2.17,1.36,3.27,3.16,8.24,4.19,16.88,4.44,25.6.32,11.08-2.1,21.79-5,32.4C9.66,378,6.29,389.41,3.53,401a77,77,0,0,0-2,25.76c.61,5.85,1.74,11.66,2.74,17.46.6,3.5,1.39,7,2.08,10.4H15c-.49-4-.7-8-1.48-11.8a202.92,202.92,0,0,1-4-40.3c0-8.64,1.17-17.23,5-25.06a83.55,83.55,0,0,0,7.86-28.8A66.93,66.93,0,0,0,12,305.21Zm421.77-83.56h-.38v5c-.36,17.82-3.14,35.37-6,52.91-2,12.46-4.1,24.93-5.74,37.44A229.477,229.477,0,0,0,420,357c.54,12.1,1.36,24.17,3.71,36.08.61,3.08,1.38,6.13,2.07,9.2-.32-4.67-1-9.27-1.34-13.89a187.586,187.586,0,0,1,.86-35.54c1.38-12.32,3-24.61,4.44-36.93,1.52-13,2.9-25.94,4.41-38.9,1.86-16.05,2.44-32.1.57-48.19-.3-2.37-.67-4.77-.99-7.18ZM132.33,239l.37.16a1.09,1.09,0,0,0,.3-.16c9.42-13.62,18.72-27.28,26-42.28,6.54-13.5,9.29-27.55,7.63-42.32-1.14-10.1-3.16-20.1-4.83-30.14-.59-3.57-1.3-7.11-2-10.66h-.52c-.78,8.62-1.71,17.23-2.3,25.87-.58,8.44-.71,16.92-1.23,25.36-.81,13-2.38,25.94-7.17,38.14-3,7.7-6.9,15-10.33,22.57C136.21,230,134.3,234.53,132.33,239Zm275.91,51.72h.22c.6-4.83.92-9.72,1.87-14.48,2.95-15,5.59-30,7.32-45.15a106.562,106.562,0,0,0-5.7-50.16c-3-8-6.2-16-9.34-24-4-10.08-7.72-20.23-9.64-31a3,3,0,0,0-.12,1.24c.76,7.28,1.33,14.59,2.36,21.84,1.24,8.66,4.5,16.77,7.57,24.91a128.43,128.43,0,0,1,7.49,61c-1.71,14.66-2.35,29.36-2.89,44.07-.14,3.94.55,7.86.86,11.76Zm1.94-5.39h.44c.48-1.84.93-3.68,1.43-5.51,5-18.39,10.1-36.75,15-55.17,1.91-7.17,2.84-14.47,1.46-21.94-2-10.75-6.34-20.6-11.47-30.11-8-14.87-15.41-30-20.29-46.23-.86-2.88-1.93-5.7-2.9-8.54a5.1,5.1,0,0,0-.18,2.17,113.531,113.531,0,0,0,7.16,28.33c4.3,11.3,8.91,22.49,13,33.85a100.719,100.719,0,0,1,5.75,41.87,373.558,373.558,0,0,1-7.29,48.77c-.82,4.18-1.4,8.38-2.11,12.54Zm-19,169.27v-1.63c.37-5.58.42-11.21,1.22-16.74,1.15-8,2.91-15.93,4.29-23.91a154.888,154.888,0,0,1,7-27.13,168.242,168.242,0,0,0,8.67-32c.23-1.47.39-2.95.54-4.43s.24-2.94.36-4.41a1.52,1.52,0,0,0-.66,1c-1.84,6.21-3.13,12.66-5.64,18.59-4.73,11.19-10.1,22.11-15.34,33.08a119,119,0,0,0-11.93,48c-.1,3.18,0,6.37,0,9.62ZM324.55,271.54h-.2c-4.21,8.17-8.55,16.29-12.61,24.55a116,116,0,0,0-11,36.46,130.828,130.828,0,0,1-6.74,27.1,101.493,101.493,0,0,0-4.1,16.25c-1.08,6-1.5,12.17-2.31,18.25-.26,2-.36,4.22-1.34,5.85a17.62,17.62,0,0,0-2.27,9.95,57.94,57.94,0,0,0,6.29,24.39c1.22,2.43,2.52,4.83,4,7.62-.66-3.59-1.29-6.67-1.79-9.78-1.64-10.13-3.19-20.24-2.43-30.59.88-12.13,2.75-24,6.77-35.54,3.24-9.28,6.88-18.43,9.71-27.84,4.6-15.28,8.74-30.7,13-46.1C321.28,285.29,322.84,278.4,324.55,271.54Zm-18.2,176.08h.49a2.419,2.419,0,0,0,.16-.5c1.42-10.69,4.75-20.88,8.09-31.08a47.771,47.771,0,0,0,2.52-10.71c.55-6.77.55-13.59.7-20.38.18-8.42.25-16.9,2.71-25,1.74-5.72,4.3-11.21,6.62-16.74a71.569,71.569,0,0,0,5.75-21.5c.79-9.37.12-18.71-.94-28-.3-2.65-.77-5.29-1.24-8.43-.29,5.42-.12,10.37-.91,15.16-1.32,8-3.06,15.92-5,23.79-2.55,10.47-5.49,20.85-6.95,31.57a357.408,357.408,0,0,1-8,42.12,149.489,149.489,0,0,0-4.84,40.18c.05,3.15.55,6.33.84,9.52ZM100.44,158.47l-.39-.24c-.31.42-.65.83-.94,1.26a149.62,149.62,0,0,0-15.87,31,76.559,76.559,0,0,0-4.78,22.12c-.92,15.5,1.85,30.55,6,45.36,1.76,6.31,4.43,12.36,6.13,18.67,1.86,6.89,2.72,14.06,4.65,20.93,2.54,9.05,5.71,17.92,8.6,26.87q2.1,6.53,4.18,13.06a12.179,12.179,0,0,0-.11-2.84c-1.91-16.93-5.69-33.47-10.22-49.86-3.79-13.66-7.74-27.29-11.07-41.06a96.68,96.68,0,0,1-1.95-35.36,142.171,142.171,0,0,1,10.11-36.41C96.63,167.43,98.54,163,100.44,158.47ZM353.92,38.67l-.36-.13a2.551,2.551,0,0,0-.33.57,99.9,99.9,0,0,1-7.45,19.27,3.19,3.19,0,0,0-.25,1.73c.63,4.75-.4,9.29-1.91,13.7A74.36,74.36,0,0,0,340,96.49c-.34,14.44,1.52,28.67,4,42.85,1.95,11.33,4.09,22.62,6.06,33.95.58,3.28.89,6.62,1.33,9.93a3.1,3.1,0,0,0,.57-1.54,186.121,186.121,0,0,0,.64-31.58c-1-12.89-2.45-25.75-3.55-38.64a219.991,219.991,0,0,1-.33-35.57q.67-8.73,1.81-17.41c.53-4.12,1.44-8.19,2.16-12.28C353.12,43.69,353.51,41.18,353.92,38.67Zm35.87,108.55h-.11c-1.44,4.47-2.72,9-4.34,13.38s-3.62,8.7-5.42,13a41.632,41.632,0,0,0-2,5.16c-1.51,5.64-2.77,11.34-4.33,17-1.92,7-3,14-2.21,21.2.58,5.09,1.28,10.17,2.21,15.21,2.69,14.69,8.37,28,18.17,39.47,2.47,2.89,5,5.7,7.56,8.54a1.57,1.57,0,0,0-.17-1.14c-3.47-8-7.12-15.87-10.37-23.93-7.8-19.37-10.56-39.46-7.43-60.15,1.9-12.54,4.42-25,6.65-37.47C388.61,154.08,389.19,150.65,389.79,147.22Zm31.62,242.14a7.613,7.613,0,0,0,0-1.17,281,281,0,0,1-3-43.66c.09-17.76,2.5-35.29,5.45-52.75,3.25-19.21,6.75-38.39,7.84-57.89.2-3.49,0-7,0-10.39,0,0-.08,0-.11.14-3.7,13.12-7.35,26.26-11.1,39.36-3,10.32-5.84,20.66-6.66,31.42a194,194,0,0,0,.37,30.2,8.771,8.771,0,0,0,.5,3.32c1.76,3.35,2.08,6.94,2.13,10.59.14,9.65.09,19.31.38,29C417.48,375,419.27,382.2,421.41,389.36ZM155,370c-1.62,3.24-3.55,6.36-4.81,9.73-4.48,12-10.22,23.33-16,34.68-4.81,9.42-8.26,19.27-8.52,30-.08,3.42,0,6.85,0,10.21h15.54a237.069,237.069,0,0,1,4.61-42.72C148.39,397.83,150.34,383.65,155,370Zm98.26,40.19h.33c.31-4,.68-8.06.92-12.09.36-5.95.94-11.91.85-17.85-.1-6.36-.72-12.72-1.36-19.06a93.879,93.879,0,0,0-5-22.27c-3.83-10.71-7.88-21.34-11.74-32-3.53-9.81-6.89-19.67-10.37-29.5-4.06-11.43-9.5-22.23-15-33-1.27-2.51-2.56-5-3.84-7.51,1.47,5.56,3.25,11,4.68,16.5a303.267,303.267,0,0,0,15.58,46.15c4.92,11.17,9.2,22.62,13.52,34,3.94,10.4,6,21.3,7.69,32.26.72,4.76,1.1,9.57,1.54,14.36q.78,8.53,1.39,17.1c.34,4.23.55,8.55.77,12.86Zm172.36,44.48c-.11-.62-.17-1.15-.28-1.67-1.81-7.83-3.75-15.64-5.4-23.5a214.316,214.316,0,0,1-4.57-40.09c-.1-5.3-.67-10.59-1-15.88a3.233,3.233,0,0,0-.36-.8c-.16.48-.25.68-.3.89a409.793,409.793,0,0,0-6.3,41.52c-1,9.85-1.66,19.73-.83,29.64.27,3.3.69,6.59,1,9.89Zm-35.28-89h.47c.11-.5.24-1,.32-1.5,1.27-8.06.53-16.05-1-24C387.84,328.09,383,317,377,306.34c-6.4-11.36-13.2-22.5-18-34.72a119.508,119.508,0,0,1-7.14-25.16c-1.86-11.94-1.09-23.66,3.76-34.9.76-1.77,1.65-3.48,2.47-5.22-4.74,5.93-8.64,12.32-10.7,19.64-4.38,15.6-3.11,30.84,3.14,45.76a106.729,106.729,0,0,0,18.87,30.58c9.56,10.64,14.89,23.14,17,37.17q1.94,13.08,3.9,26.15ZM205.35,234l-.48.17c.12.45.19.91.34,1.34a173.729,173.729,0,0,1,8,32.74c1.29,8.49,2.74,17,5.69,25.06,2.25,6.16,5.08,12.12,7,18.36,6,19.07,12.77,37.92,16.93,57.55,1.23,5.81,2.93,11.54,3.81,17.41,1.82,12.14,3.24,24.33,4.81,36.51.24,1.81.43,3.63.63,5.44a40.379,40.379,0,0,0,.38-7.83c-.14-3.21-.48-6.42-.66-9.63-.88-15.52-1.26-31.09-3.92-46.45-1-5.74-2-11.49-3.37-17.15-2.73-11.46-6.93-22.43-11.39-33.3-4.08-9.92-8.83-19.59-12.35-29.7-4.17-12-7.32-24.28-11-36.43C208.45,243.33,206.86,238.66,205.35,234Zm-30.29-70.8-.58.18c.66,3.43,1.17,6.91,2,10.29a118.541,118.541,0,0,1,3.38,33.51q-.34,9.12-.35,18.25A263.258,263.258,0,0,0,181.65,262c1.21,8.81,4,17.14,7.07,25.43.36,1,.75,2,1.12,3a179.06,179.06,0,0,1-1-26c.24-12.81.74-25.63.65-38.45a127.14,127.14,0,0,0-4.78-34.09c-2.82-9.71-6.41-19.17-9.65-28.73Zm-74,5.08c-.14.43-.29.8-.38,1.19-1.29,5.32-2.6,10.64-3.85,16S94,196.15,93.28,201.6c-2.19,15.63-.25,31.07,3,46.35,2.86,13.45,6.21,26.8,9.26,40.21a245.164,245.164,0,0,1,5.54,33.29c.47,5.51.84,11,1.28,16.79a75.39,75.39,0,0,0,1.43-16.69c-.27-11.6-2-23-4-34.42-3.06-18-6.39-35.89-9.17-53.9a148.84,148.84,0,0,1-.84-39.78c.98-8.34,2.72-16.62,1.31-25.21Zm277.4,286.35v-1.61a113.879,113.879,0,0,1,5-39C386.82,403.11,392,393,397,382.75c4.6-9.36,9.16-18.75,12.11-28.79,1-3.29,1.69-6.65,2.53-10a25.94,25.94,0,0,0-2.11,4.55c-3.93,9.73-9.67,18.45-15.24,27.27-6.14,9.72-12.11,19.53-16.79,30.07a96.82,96.82,0,0,0-8.54,34c-.29,4.9,0,9.83.05,14.79Zm-41.9-108.31c-.36.8-.78,1.58-1.07,2.41a29,29,0,0,0-1.22,3.91c-2.8,13.68-1.78,27.28,1.12,40.79,1.39,6.46,2.42,13,1.68,19.5-1,8.46-2.47,16.85-3.85,25.25-.89,5.45-2,10.86-3,16.41H341.1a8.792,8.792,0,0,1,.1-1.14c.84-6.19,1.35-12.45,2.61-18.56C345.22,428,347,421.2,346,414.21c-1.36-9.54-3.19-19-4.93-28.49-1.15-6.27-2.57-12.49-3.75-18.75a74,74,0,0,1-.76-20.65ZM191.53,300c-1-2.87-1.77-5.79-2.9-8.59-6-14.91-9.65-30.33-9.95-46.42-.24-12.57-.09-25.16-.17-37.74,0-5.24.26-10.55-.43-15.71-1.15-8.55-3-17-4.53-25.5-.24-1.32-.62-2.62-.8-3.34,0,3,.2,6.51,0,10-.81,11.89-1.93,23.76-2.64,35.66-1.19,20.07.18,39.9,6.11,59.26C179.71,279.11,185.14,289.74,191.53,300ZM177.25,454.62c-.52-3.72-.84-7.33-1.54-10.86-2.67-13.47-8.24-26-13.36-38.59a69.74,69.74,0,0,1-5.18-22.5c-.13-2.43,0-4.88,0-7.38a35.84,35.84,0,0,0-2.19,12.6c0,17.54.75,35,4.08,52.32.92,4.78,1.61,9.6,2.41,14.41ZM155.09,79.36l-.76.87c-9.52,11.08-18.31,22.78-28.77,33A57.64,57.64,0,0,0,111,137.11c-4.67,14.5-5.24,29.42-4.33,44.42.59,9.81,3.49,19.21,6.45,28.53,4.45,14,7.74,28.28,8.49,43,.09,1.83.27,3.66.41,5.48a3,3,0,0,0,.93-2c0-4.46.37-9-.25-13.38-1.67-11.74-3.75-23.41-5.72-35.1-1.91-11.27-4.61-22.42-5.33-33.88a99.219,99.219,0,0,1,1.49-26.71c2.67-12.65,8.78-23.64,16.86-33.55,5.09-6.23,10.62-12.09,15.75-18.29a54.851,54.851,0,0,0,9.34-16.27Zm-53.78,82.21-.68-.16c-2.58,6.4-5.32,12.74-7.7,19.22-5.06,13.82-8.08,28.05-7.56,42.87.43,12.5,3.21,24.55,6.53,36.5,3.59,12.91,7.44,25.76,10.8,38.73a246.339,246.339,0,0,1,7,40.29c.18,2,.38,4.07.56,6.1a1.08,1.08,0,0,0,.41-.88A171.71,171.71,0,0,0,108,308.1c-2.26-12.41-5.07-24.74-7.91-37-3.8-16.43-7.9-32.8-8.82-49.75a102.14,102.14,0,0,1,3.19-32.6C96.85,179.7,99,170.62,101.31,161.57Zm80.5,180-.74.11v8.68c-.13,11.83.34,23.62,3.43,35.13,2.26,8.47,4.6,16.91,6.92,25.36a76.23,76.23,0,0,1,2.06,30.83c-.59,4.3-1.3,8.58-2,12.86,2.74.45,2.8.48,3.74-1.86a52.82,52.82,0,0,0,2.39-6.73c2.72-11,3.12-22.17,2.29-33.42-.88-11.73-3.14-23.15-7.85-34a96.29,96.29,0,0,1-7.55-25.27c-.5-3.97-1.76-7.82-2.69-11.72Zm-69.4,113.12c.33-3,.57-5.83,1-8.64,1.83-12.82,6.2-24.81,12-36.3a201.79,201.79,0,0,1,19.77-31c1.3-1.69,2.56-3.41,3.84-5.12a7.64,7.64,0,0,0-2.86,1.64c-4.21,3.87-8.54,7.63-12.55,11.71-10.51,10.69-19.78,22.26-25.15,36.53-3,8.08-6.39,16.06-7.6,24.7-.3,2.14-.51,4.29-.77,6.49Zm44-240.27-.37-.16c-.92,2.69-1.93,5.36-2.75,8.08-4.09,13.63-6.58,27.44-5,41.77a136.553,136.553,0,0,0,4.21,22.81c2.28,8.05,4.43,16.14,4.62,24.53q.36,15.56,0,31.12A48.92,48.92,0,0,1,154,359.11c-.87,2.28-1.8,4.54-2.68,6.74a17.09,17.09,0,0,0,9.18-12.7c1.74-9.87,3.26-19.75,3.35-29.81.17-18.37-3.28-36.14-8.67-53.62a82.74,82.74,0,0,1-2-42.22c.93-4.4,2.17-8.74,3.27-13.11Zm42.48,233.72c1.58-3.66,3.26-7.28,4.73-11,6.47-16.2,8.13-32.79,3.67-49.78a84.769,84.769,0,0,0-15.21-29.91c-2.48-3.23-4.75-6.62-7.23-10.1.23,1.18.47,2.16.62,3.15,1.28,8.33,3,16.53,6.54,24.25,5.92,12.85,8.76,26.45,9.47,40.5a116.379,116.379,0,0,1-2.55,32.86ZM328.34,253.89l.49.15c1.89-5.12,4-10.18,5.63-15.37,3.69-11.51,7.2-23.07,10.75-34.63,2-6.47,3.64-13.09,2.7-19.87-1.56-11.19-3.57-22.32-5.34-33.48-1.65-10.41-3.4-20.81-4.78-31.26-.82-6.25-1-12.59-1.47-18.88-.57,7.45-1.37,15-.91,22.4.93,15.34,2.39,30.65,3.91,45.94a114.7,114.7,0,0,1-.72,30c-2.74,16.87-6.06,33.64-9.16,50.46C329.15,250.85,328.71,252.36,328.34,253.89ZM117.39,385.65c.59-3.3,1.17-6.16,1.59-9q3.09-21.23,6.12-42.47a164.819,164.819,0,0,0,1.21-31.95,141.769,141.769,0,0,1,2.87-38.05,82,82,0,0,1,8.54-22.26c1.67-3,3.08-6.11,4.61-9.17a3,3,0,0,0-1.35,1.43c-3.9,7.18-7.87,14.31-11.63,21.56-1.66,3.19-3.54,6.49-4.18,9.95-1.1,6-1.37,12.17-1.91,18.28-.89,10.21-1.86,20.42-2.52,30.65-.82,12.59-2.41,25-6.31,37.08-1.58,4.92-2.43,10-1.43,15.18C114.2,373,115.84,379.09,117.39,385.65Zm275.08,69H406.1a16.867,16.867,0,0,0-.12-1.83c-.29-2.79-.67-5.57-.87-8.36a158.822,158.822,0,0,1,1.33-33.19c1.49-11.1,3.26-22.16,5-33.22.93-6,2.81-11.88,1.26-18.08-.15.48-.32,1-.44,1.45-.8,3.12-1.43,6.28-2.4,9.34-2.42,7.67-5.39,15.19-7.4,22.95-2.4,9.27-4.12,18.72-6,28.13-1.29,6.54-2.48,13.12-3.34,19.72-.55,4.25-.45,8.63-.65,13.05Zm-230-104.3c2.34-3.18,4.88-6.61,7.4-10.06a6,6,0,0,0,.64-1.46c2.44-6.57,3.18-13.41,3.29-20.37a63.48,63.48,0,0,0-3.72-23.7,278.934,278.934,0,0,1-10.54-33c-3.11-12.92-5.32-25.81-3-39.1.19-1.09.24-2.2.35-3.31a58.679,58.679,0,0,0-2.37,8.44,79,79,0,0,0,.54,36c2.86,11.19,6.4,22.2,8.18,33.67a146.928,146.928,0,0,1,1.23,38.5c-.53,4.91-1.36,9.82-2,14.35ZM370.8,390.68l.11.08c.69-1.14,1.39-2.27,2-3.42,2.8-4.87,5.44-9.82,6.3-15.46,1.19-7.91.17-15.7-1.68-23.39-2.9-12.07-8.8-22.72-15.8-32.81-4.62-6.66-9.6-13.07-14-19.84-5.18-7.9-9.43-16.31-11.67-25.57-.77-3.19-1.06-6.51-1.57-9.76a40.34,40.34,0,0,0-.62,7.68c.27,7.8,2.61,15.1,5.7,22.19C344.29,301.19,350.79,311,356.9,321c6.45,10.6,12.57,21.29,15.74,33.45a57.66,57.66,0,0,1,1,26.53C373,384.27,371.77,387.45,370.8,390.68ZM399,353.84a4.822,4.822,0,0,0,.58-.66c4.64-8.68,8.28-17.7,9.56-27.54,2.12-16.32-2.08-30.67-13.28-42.9a121.66,121.66,0,0,1-24.6-40.15,68.65,68.65,0,0,1-3.75-34.84c.47-3,1.1-6,1.66-9.05-2.45,5.47-4.45,11.09-4.92,17.08a75.47,75.47,0,0,0,4.26,30.77c5.13,14.89,13.75,27.83,22.82,40.5,3.75,5.23,7.79,10.28,10.12,16.37,4.39,11.48,4.29,23.21,1.56,35C401.82,343.53,400.38,348.55,399,353.84ZM328.73,454.6c1.67-8.67,3.36-17.19,4.94-25.73,1.54-8.34,2.94-16.73,1.91-25.23-.7-5.78-1.86-11.5-2.87-17.24a93.062,93.062,0,0,1-1.27-21.92c.2-3.22.5-6.43.79-10.1-.32.77-.49,1.14-.63,1.51-3.7,10.25-4,20.86-2.58,31.44a71.18,71.18,0,0,1-2.26,30c-2.53,8.51-5.14,17-7.4,25.57-1,3.75-1.2,7.7-1.78,11.66Zm-168.69,0c-.63-3.85-1.3-7.6-1.85-11.36-1.2-8.13-2.68-16.24-3.39-24.42-.79-9-.87-18.09-1.21-27.15a46.381,46.381,0,0,1,2.52-17.94c.33-.9.51-1.85.89-3.27-4.86,7.51-16.41,72.8-14.2,84.14ZM29.88,341.85l-.39.16a45.67,45.67,0,0,1,0,6.41c-.88,6.18-1.93,12.34-3,18.48-1,5.68-2.21,11.32-3.15,17a111.2,111.2,0,0,0-1.39,25.84c.61,8.89,2.35,17.55,6.77,25.34,3.43,6,7.67,11.62,11.37,17.52,1.26,2,2.76,2.5,5,1.92-.2-.43-.38-.86-.6-1.26-3.39-6.36-6.91-12.65-10.14-19.09-4.66-9.28-7.1-19.08-5.88-29.55,1.05-8.93,2.22-17.84,3.23-26.77.51-4.49.84-9,1.17-13.5A55.22,55.22,0,0,0,30.9,344a15.7,15.7,0,0,0-1.02-2.15Zm47.85,112.8c.13-.65.26-1.18.34-1.71a77.44,77.44,0,0,1,11.07-29.59c3.71-5.83,7.8-11.42,11.52-17.24,3.94-6.19,7.73-12.48,8.84-19.95.14-1,.35-2,.49-3s.28-2,.34-3,0-1.87,0-2.8a46.92,46.92,0,0,1-10.08,21c-6.66,8-13.77,15.65-20.72,23.43-4.55,5.09-8.77,10.38-11.15,16.91a37.85,37.85,0,0,0-2,16Zm286.21-52.6h.39c1.44-3.44,2.85-6.9,4.34-10.32a52.42,52.42,0,0,0,4.72-24.33,69.881,69.881,0,0,0-8-28.33c-3.59-6.93-7.45-13.73-11.51-20.39-5.88-9.65-12-19.16-16.51-29.6a4.669,4.669,0,0,0,.17,1.68c1.12,3.45,2.42,6.85,3.36,10.34,2.13,7.84,5.73,14.95,9.92,21.88a149.72,149.72,0,0,1,8.45,16.12c3.66,8.16,4.52,17,5.27,25.78,1,11.68.42,23.35-.6,35-.05.73,0,1.45,0,2.17ZM113.89,90c-1.24,13.88-5.46,26.86-11.49,39.27-4.06,8.36-8.38,16.6-12.6,24.88-7,13.75-13.21,27.77-15.42,43.23a118.179,118.179,0,0,0-.72,23.78c.57-4.79,1-9.6,1.62-14.38,1.52-11.31,4.37-22.26,10-32.24,3.8-6.67,8.14-13,12.25-19.53a114,114,0,0,0,12.51-25.63c4-12.22,4.74-24.77,4-37.48A6.853,6.853,0,0,0,113.89,90ZM41.58,353.07l.53-.14a47.829,47.829,0,0,0-2.47-6.83c-3.26-6.16-6.78-12.18-10.15-18.29-5.3-9.59-10.92-19-15-29.26C12.64,293.79,11,289,9,284.21c-3.7-9.11-7.89-18-11.18-27.28-4.38-12.31-5.8-25.06-3.18-38C-3.23,208.37,1,198.7,6.4,189.47c7.26-12.47,16.75-23.29,25.46-34.68,1.88-2.46,3.39-5.2,5.08-7.8l-.39-.28-1.5,1.89c-3.58,4.59-7.06,9.26-10.78,13.73-4.16,5-8.61,9.72-12.8,14.68C4.84,184.87-1,193.26-5.07,202.79c-3.24,7.61-4.51,15.66-5.6,23.76-.71,5.33-1.19,10.7-.07,16A129.44,129.44,0,0,0-1.16,271c4.57,9.7,10.28,18.79,14.94,28.47C22.52,317.58,32.26,335.23,41.58,353.07Zm-7.55-5-.69.11c1.66,7.87,1,15.78.23,23.64-1,10.07-2.33,20.1-3.6,30.14A52.22,52.22,0,0,0,35.25,433c3.43,6.67,7.11,13.21,10.52,19.89,1,1.92,2.26,2,4.12,1.61-.32-.71-.55-1.31-.85-1.87-7.44-13.73-10.67-28.48-10.7-44,0-8.11-.06-16.22.1-24.33s.19-16.43-1.55-24.52C36.05,355.87,35,352,34,348.07Zm162.65-37.5.82-.2c-.1-.45-.21-.89-.3-1.35-1.3-6.77-2.86-13.52-3.84-20.34a62.38,62.38,0,0,1,1.25-24.84,201.715,201.715,0,0,0,4.19-20.64c2.36-15.57-.66-30.31-7.28-44.48-2.79-6-5.13-12.16-7.69-18.25-2.14-5.07-4.3-10.14-6.59-15.56-.14.58-.22.71-.19.79.91,2.27,1.82,4.53,2.76,6.78,7.17,17.16,10.5,35.16,11.05,53.64.31,10.42-.08,20.87-.46,31.29-.49,13.33-.59,26.61,2.38,39.7C193.8,301.66,195.37,306.08,196.68,310.57ZM151.42,373.2l-.46-.33c-5.46,7.87-11.18,15.57-16.35,23.63-9.29,14.49-16.46,29.95-19.41,47.09-.62,3.61-1,7.26-1.48,11H124c0-2.23-.12-4.33,0-6.4.3-4.27.53-8.57,1.19-12.79,1.24-7.91,4.51-15.14,8-22.3,4.35-9.07,8.68-18.15,12.91-27.28C148,381.66,149.65,377.4,151.42,373.2Zm216.34,81.41c0-.57-.05-1-.08-1.5a95.73,95.73,0,0,1,3.57-34.33c3.9-13.28,10.52-25.25,17.64-37,5.59-9.22,11.17-18.45,16.58-27.78a93.943,93.943,0,0,0,4.11-9.2l-.43-.19a5.488,5.488,0,0,0-.31.52c-5.42,11.93-13,22.47-21.07,32.69-5.47,6.92-11.11,13.7-15.25,21.58a114.45,114.45,0,0,0-12.87,44.87c-.26,3.42,0,6.87,0,10.35Zm74.88,0c-.06-.41-.09-.64-.14-.86-1.35-6.12-4.16-11.66-6.95-17.19-7.29-14.45-13.76-29.22-17.79-45-.23-.91-.49-1.8-.74-2.7-.16,22.47,4.59,44.13,10.13,65.71Zm-262.92-114-.23-.06c-.56,2.17-1.08,4.35-1.68,6.5a75.29,75.29,0,0,0-2.13,29.39c1.71,14.13,5.76,27.73,9.18,41.46,2.86,11.47,4.59,23,3.17,34.87a13.642,13.642,0,0,0,0,1.69c1.41.43,2,.08,2.22-1.39.61-4.42,1.47-8.81,2.06-13.23,1.53-11.45-.33-22.54-3.44-33.54-2.42-8.53-4.8-17.08-6.83-25.71-2.35-10-2.41-20.2-2.31-30.41.02-3.11-.01-6.3-.01-9.49Zm6.69,114c.2-2,.43-3.91.58-5.85.76-9.75-.81-19.25-3-28.68-3-12.85-6.95-25.5-9-38.6-1.67-10.78-1.92-21.47.87-32.11,1.25-4.78,2.39-9.58,3.71-14.88a8.332,8.332,0,0,0-1.14,1.27c-2.41,5-5.23,10-7.08,15.21-4,11.23-3.58,22.88-2.08,34.48,1.18,9,4.17,17.6,7.21,26.13,4,11.16,7.15,22.49,7.51,34.43.08,2.84,0,5.69,0,8.6ZM365.73,193.3l-.19-.25c-.87.69-1.74,1.38-2.63,2.06-9.55,7.23-16.34,16.43-19.66,28-5.31,18.53-4.93,36.7,3.39,54.39a107.7,107.7,0,0,0,13.49,21.66c5.12,6.36,10.42,12.57,15.42,19,2.55,3.3,4.62,7,6.87,10.43a.43.43,0,0,0,0-.23c-.07-.29-.17-.57-.24-.85a58.309,58.309,0,0,0-12.87-23.08,112.37,112.37,0,0,1-19.6-31.17,78.08,78.08,0,0,1-6.08-24.51c-1.06-15,2.45-28.62,11.24-40.83C358.46,203,362.12,198.19,365.73,193.3Zm-194.63-30h-.21c-.51,4.67-.88,9.36-1.56,14-2,13.49-4.33,26.93-6.07,40.45-1.91,14.78.09,29.25,4.82,43.34a140.67,140.67,0,0,0,20.51,38.69c.55.75,1.15,1.46,1.72,2.2a35.514,35.514,0,0,0-2.78-5.63c-11.2-18.92-17.18-39.44-18.73-61.3a245.48,245.48,0,0,1,.79-39.66c.79-8.65,1.29-17.34,1.82-26a54.829,54.829,0,0,0-.31-6.06Zm3,177.73-.28-.23a26.448,26.448,0,0,0-1.53,2.16c-2.64,4.53-5.29,9.05-7.81,13.65a14.09,14.09,0,0,0-2.07,5.24c-.62,7.72-1,15.46-1.3,23.2a21.16,21.16,0,0,0,.62,5.3,97.39,97.39,0,0,0,9.14,24.35A82.769,82.769,0,0,1,179.9,445c.3,3.18.66,6.36,1,9.56h1.72a99.829,99.829,0,0,0-1.2-20c-1.58-10.26-5.5-19.83-8.71-29.61-3.42-10.43-5.9-21-5.78-32,.09-8.2.42-16.36,3.66-24.07,1.11-2.66,2.31-5.23,3.48-7.82Zm156.87,11.85a.67.67,0,0,0-.25.21A39.29,39.29,0,0,0,324.15,372c-.43,6.72-.55,13.46-.72,20.2-.2,7.9-.88,15.7-4,23.11A129.43,129.43,0,0,0,311,443.86c-.58,3.55-1,7.13-1.5,10.76h6.9c.06-.89.08-1.71.19-2.53a74.41,74.41,0,0,1,1.37-9.35c2.18-8.11,4.63-16.14,7-24.19,2.84-9.59,4.33-19.24,2.84-29.3a74.119,74.119,0,0,1,.28-25.47c.76-3.7,1.92-7.32,2.86-10.87ZM111.83,379.59c-.15,1.2-.18,2.09-.38,3-.92,3.93-1.44,8-2.9,11.74-3.37,8.53-8.64,16-14,23.42a82.42,82.42,0,0,0-13.8,29c-.63,2.57-1.09,5.18-1.65,7.88h9.72c3-13.33,8.23-25.7,13.91-37.91,3.28-7.07,6.7-14.08,8.79-21.65C112.93,390,113.58,385,111.83,379.59Zm-84-38.09a86.241,86.241,0,0,1-4.48,22.89,176.15,176.15,0,0,0-9.09,43.25,48.321,48.321,0,0,0,0,11.59c1,6.29,3.92,12,7.5,17.25,4.44,6.56,10.09,12,15.61,17.67.44.45,1.31.48,2,.7l.27-.4c-1.88-2.66-3.7-5.37-5.65-8a65.29,65.29,0,0,1-13.34-34.91,112.45,112.45,0,0,1,1.71-30.25c1.7-8.52,3.26-17.06,4.8-25.61.84-4.68,1.44-9.39.69-14.18Zm309.89,10h-.26c.27,4.32.12,8.72.88,12.95,2.27,12.53,4.86,25,7.41,37.48,1.78,8.72,2.48,17.47.87,26.28-1,5.68-2.37,11.3-3.35,17-.53,3.08-.59,6.23-.87,9.45h4.31c1.26-6.77,2.36-13.47,3.75-20.1,2.62-12.47,4.34-24.91.53-37.46-1.82-6-3.44-12-5.38-17.93-1.57-4.79-3.76-9.39-5.16-14.23-1.25-4.41-1.83-8.94-2.71-13.46ZM64.47,454.57c.44-4.08.62-8,1.35-11.86,1.51-8,6-14.44,11.34-20.36,6-6.74,12.32-13.28,18.27-20.11,5.56-6.37,10.25-13.32,12.52-21.63.2-.74.41-1.49.56-2.25s.25-1.49.37-2.24a1.32,1.32,0,0,0-.62.76c-3.17,9.24-8.79,16.86-15.86,23.42-3.14,2.91-6.66,5.4-10,8.11-5.21,4.26-10.65,8.25-14.73,13.74-6.22,8.39-9.64,17.62-8.63,28.19C59.52,455.2,59.62,455.21,64.47,454.57Zm94.64-238h-.34c-.2,1.4-.4,2.81-.59,4.21-1.17,8.59-2,17.18-.38,25.81a230.369,230.369,0,0,0,12.59,45A68.15,68.15,0,0,1,174.88,324c-.38,3.94-1,7.84-1.59,11.83,3.7-4,6.34-8.55,6.51-14.08.2-6.37.1-12.75-.08-19.13A33.5,33.5,0,0,0,175.24,287c-1.88-3.32-3.78-6.64-5.4-10.09-6.76-14.45-9.88-29.8-10.69-45.65-.25-4.92-.04-9.81-.04-14.7ZM58.21,426c4.62-9.79,12.22-17.24,19.54-24.9,3.59-3.75,7.19-7.48,10.57-11.41,11.06-12.88,15.5-27.67,12.5-44.52-.25-1.4-.46-2.82-.68-4.23-.41,2.41-.41,4.8-.75,7.15a73.9,73.9,0,0,1-15.1,35.23C79,390.23,73.47,397,68.18,403.89,63.14,410.47,60.27,418.07,58.21,426ZM95.56,321.31h-.54c.15,2.79.24,5.59.45,8.38a49.82,49.82,0,0,1-2.88,22c-3.74,9.7-9.11,18.48-14.82,27.08-5.13,7.75-10.37,15.46-13.83,24.16-1.36,3.42-2.36,7-3.52,10.48,2.5-3.67,4.55-7.52,7.14-11,5.54-7.39,11.59-14.4,17-21.88,9.34-12.91,14.9-27.18,13.58-43.42C97.72,331.82,96.45,326.58,95.56,321.31ZM55.77,454.48q-2.54-7.38-5.05-14.7c-3.63-10.63-6.68-21.43-7.1-32.72-.35-9.65-.25-19.32-.13-29a50.07,50.07,0,0,0-2.75-17.54c-1-2.9-2.45-5.67-3.73-8.58.86,6.14,2.08,12,2.42,18,.44,7.66.28,15.37.19,23.06a233.763,233.763,0,0,0,1,29.11c1.17,10.4,4.67,20,9.35,29.29,1.71,3.39,1.63,3.43,5.39,3.23a2.581,2.581,0,0,0,.41-.15Zm322.09-72.76c1-1.2,1.94-2.36,2.94-3.46,4.18-4.58,5.31-10,4.28-16-1-5.75-2-11.51-3.11-17.24a85.929,85.929,0,0,0-2.58-11.29c-3.35-9.81-9.63-17.82-16.85-25a88.54,88.54,0,0,1-21.08-32c-2.26-6.06-3.84-12.36-5.85-18.95.68,4.49,1,8.71,2,12.77a75.55,75.55,0,0,0,10.5,23.18c4.75,7.28,10.05,14.21,15,21.36,8.22,11.87,14.76,24.49,17,39,1,6,1.57,12,.45,18A93.549,93.549,0,0,1,377.86,381.72Zm-15.65,14.94h.47a2.381,2.381,0,0,0,.15-.5c.95-12.44,1.29-24.87-.27-37.29-.95-7.59-2.16-15.16-5.77-22-5.12-9.72-10.48-19.31-15.49-28.51.3,1.31.66,3.22,1.19,5.09.87,3.09,1.89,6.14,2.78,9.23,1.75,6.11,3.32,12.29,5.21,18.36,3,9.49,6.41,18.83,9.08,28.39,1.87,6.67,3.33,13.53,2.22,20.64C361.45,392.16,362,394.44,362.21,396.66ZM93.49,323.18a5.82,5.82,0,0,0-.26.81,104,104,0,0,1-13.52,38.36,255.319,255.319,0,0,0-14.09,26.5c-4.23,9.52-6.42,19.52-7.72,29.78a6.65,6.65,0,0,0,.57-1.6c.56-2.44,1-4.9,1.67-7.31,2.67-9.92,8-18.55,13.42-27.12,4.65-7.27,9.19-14.63,13.52-22.1C93.75,349,95.66,336.5,93.49,323.18ZM341.21,362a14.393,14.393,0,0,0,.32,1.69c2,5.47,4.25,10.86,6,16.42a230.7,230.7,0,0,1,6.21,23.27,52.558,52.558,0,0,1,.5,15.64c-.92,8.27-2.74,16.43-4.14,24.65-.62,3.61-1.14,7.23-1.73,11h5c.47-4.65.77-9.22,1.4-13.75,1.23-8.73,2.85-17.41,3.92-26.16,1.09-9,.3-17.93-3.77-26.2C350.57,379.71,345.92,371.06,341.21,362ZM97.4,322.11l-.32.09c.09.39.16.79.25,1.17,2.11,8.43,4.49,16.81,5.38,25.5a52.42,52.42,0,0,1-3.56,26.27c-3.9,9.26-10.44,16.57-17.2,23.76-5.83,6.2-11.55,12.52-17.08,19-2.1,2.47-3.52,5.52-5.24,8.31l.45.27a30.319,30.319,0,0,1,2.09-3.31c7.15-8.65,14.48-17.12,24.32-22.92A10.621,10.621,0,0,0,88.22,399c5.59-4.93,10.42-10.37,13.36-17.42,3.3-7.93,5.45-15.93,4.54-24.66a124,124,0,0,0-5.21-24.05C99.79,329.26,98.58,325.69,97.4,322.11ZM222.67,396.6l.13-.07c-.36-1.25-.75-2.49-1.07-3.74-2.57-10-4.76-20.08-8.83-29.6-6.13-14.35-12.42-28.63-18.67-42.93a65.5,65.5,0,0,0-8.95-14.53,1.53,1.53,0,0,0,.06.83c1.27,3.53,2.49,7.08,3.83,10.58,4.61,12,9,24.11,14,36,4.21,10.05,9.13,19.8,13.64,29.72C218.85,387.37,220.71,392,222.67,396.6Zm8.31,58c1.25-12.59-9.83-52.88-15.88-58.89,1.91,9.35,4.34,19.07,5.76,28.94s1.82,19.9,2.68,29.95Zm64-116.3a100.532,100.532,0,0,1-11.59,20.93,161.551,161.551,0,0,0-25.27,54.68c-.77,3-1.2,6.08-1.79,9.12l.51.14q2-4.86,3.92-9.71c3-7.38,5.64-15,9.2-22.07,5.8-11.55,12.22-22.79,18.38-34.16,3.25-5.93,5.14-12.36,6.66-18.91Zm38.5-50.87-.38.07v1.4c.58,5.68,1.25,11.36,1.72,17.06A77.74,77.74,0,0,1,328,346a100.192,100.192,0,0,0-5.74,15c-1.29,4.57-1.63,9.41-2.39,14.13l.47.07c.17-1.46.36-2.93.51-4.4a43,43,0,0,1,5.67-17.36c3.38-5.81,7.7-10.88,12.15-15.87a4.48,4.48,0,0,0,1-2.5c.45-6.44.61-12.9-.57-19.27-1.77-9.47-3.73-18.9-5.6-28.35ZM276.34,411.89c-9.92,13-17.78,26.43-19.93,42.67h9.29C266.69,439.75,272.23,426.23,276.34,411.89Zm-91-100.67c0,3.17-.58,6.47.1,9.48A147.8,147.8,0,0,0,198.26,355c4.19,8.2,9.28,15.95,14,23.9,1.28,2.16,2.57,4.32,3.85,6.49l.39-.19c-11.36-24.3-23.15-48.35-31.12-73.98ZM287.26,454.63c-2.47-13.54-7-26.56-8-40.29-1.59,7.08-2.73,35.78-1.72,40.29Zm-11.33,0a310.516,310.516,0,0,1,1.64-41.45c-4.05,13.63-9.56,26.91-10.46,41.45ZM292.69,339c-.6.88-1.19,1.77-1.81,2.64-6.65,9.3-13.64,18.37-19.24,28.41-2.25,4.05-5.17,7.75-7.21,11.9-3.84,7.81-5.82,16.23-7,24.84-.25,1.87-.44,3.75-.65,5.62a3,3,0,0,0,.67-1.32A160.36,160.36,0,0,1,281.91,359a78.059,78.059,0,0,0,10.78-20ZM113.3,393.87c-.13.32-.28.64-.4,1-1.76,4.86-3.33,9.8-5.32,14.57-4,9.61-8.44,19.06-12.33,28.73-2.12,5.27-3.5,10.84-5.3,16.56H94.7c.47,0,.93-.07,1.46-.11.07-.35.14-.63.18-.92A119.4,119.4,0,0,1,106,419.75a85.72,85.72,0,0,0,7.3-25.88Zm177.58-37.69-.27-.09c-2.76,5.21-5.49,10.43-8.28,15.61-4.41,8.18-9.22,16.15-13.18,24.54-3.57,7.56-6.23,15.56-9.3,23.37l-.57,1.5.61.32c2.95-4.87,6.06-9.66,8.81-14.65,1.83-3.32,3.17-6.91,4.72-10.39,4.4-9.83,8.84-19.65,13.18-29.5C288.15,363.37,289.46,359.75,290.88,356.18Zm53.75-29.24h-.14c.05.75.06,1.5.15,2.24.42,3.43.9,6.86,1.28,10.29a74.911,74.911,0,0,0,5.61,22.24,165.211,165.211,0,0,1,6.16,17.87c1.05,3.38,1.6,6.92,2.38,10.39h.52c0-2.83.44-5.75-.08-8.49-1.25-6.47-2.66-12.94-4.53-19.25-2.33-7.87-5.24-15.57-7.8-23.38C346.89,334.9,345.81,330.9,344.63,326.94Zm-123,127.68c.42-14.88-3.47-44.82-6.8-51.45,3.7,17.16,1.55,34.26-.5,51.45ZM267.87,412l.19.12c3.51-3.69,7.1-7.33,10.52-11.11,2.7-3,5-6.41,5.7-10.38,1.27-6.84,2.08-13.77,3.08-20.66h-.28Q277.47,390.91,267.87,412Zm-53.31-.42c-2.59,14.38-3.35,29.07-8.38,43.1h6.72c1.75-14.39,3.58-28.68,1.66-43.15Zm23.78,43.12c-1.67-12.87-13.9-48-18.34-52.82,7.73,16.75,10.65,34.68,12.76,52.82Zm-47.6-144.26c8.71,16.6,15.56,34.73,23.72,52.27a4.719,4.719,0,0,0-.21-.8c-2.21-6.9-4.72-13.73-6.57-20.73-3.14-11.98-8.07-22.82-16.94-30.79Zm166.41,73.3a99.11,99.11,0,0,0-7-21.85,65.1,65.1,0,0,1-5.28-19.75c-.37-3.27-.81-6.54-1.21-9.8H343c0,2.7.06,5.4,0,8.1-.16,6.48.2,12.92,2.61,19,2.17,5.47,4.67,10.81,7.17,16.14,1.29,2.75,2.9,5.42,4.37,8.11Zm-59.95,71c-5.9-11.61-13.44-22.17-15.56-35.16l-.68.22,7.8,34.94Zm-42.17,0a58.871,58.871,0,0,1,5.68-19.91c3-6.15,6.47-12.07,9.59-17.84-9.21,11-17.31,23-21,37.64.5.05.84.11,1.18.11Zm-50-.07q2.4-9.75,4.81-19.49l-.35-.07-8.71,19.56ZM25,454.65c-2.08-4.84-4.05-9.43-6-14l-.36.14c1,4.61,2,9.22,3,13.88ZM319.89,377.5l-.14-.07v20.72h.14Zm-55.11,39.79-.46-.32-5.45,7.76.49.33ZM-18.31,88.53l-.58-.09c.65-2,1.31-4.08,1.95-6.13,3.38-10.82,6.3-21.75,7.26-33.09C-8.65,37-10,24.91-12.62,13c-1.75-8-3.93-15.83-5.92-23.74h-3.58c1.58,6,3.23,12.06,4.73,18.12a157.821,157.821,0,0,1,4.54,30.33c.58,12.21-1.74,23.94-5.77,35.39-1.22,3.46-2.57,6.88-3.86,10.32v19a142.68,142.68,0,0,0,32.28-54c2.79-8.36,5.82-16.64,7.53-25.31A123.52,123.52,0,0,0,19.5-6.47c-.07-1.43-.06-2.86-.09-4.29H14.75C14.41-3.51,14.43,3.78,13.63,11c-.93,8.33-2.52,16.59-3.94,24.87A29.52,29.52,0,0,1,7.57,42.6c.25-2.47.54-4.94.74-7.41A197.137,197.137,0,0,0,8.22,2.32c-.3-3.61-1-7.19-1.51-10.79-.11-.76-.13-1.53-.19-2.29H5.09C5.61-6.88,6.28-3,6.65.9A174.7,174.7,0,0,1,5.47,46.35c-1.14,6.74-3.94,12.84-7,18.86q-3.79,7.58-8.08,14.91Q11.21,36-2.43-10.76H-3.86C6.14,24,2.64,57-16.36,88-4.1,55.75-.66,22.93-9.95-10.76h-1.43C-2,23.2-5.48,56.2-18.31,88.53ZM-22.48,160a3.109,3.109,0,0,0,.31-.6,118.751,118.751,0,0,1,12-33c8-14.68,16.49-29.13,24.94-43.57,6.5-11.1,11.69-22.71,14.66-35.26A101.36,101.36,0,0,0,31.81,14.8a97.9,97.9,0,0,0-5.6-25.56H24.78C26-6.53,27.44-2.35,28.38,2A100.55,100.55,0,0,1,20.1,69.62C14.77,80.39,8.39,90.65,2.32,101c-7.2,12.3-14.51,24.54-19.67,37.89-1.9,4.93-3.43,10-5.13,15Zm0-42.61c1.09-1.77,2.12-3.59,3.28-5.31C-12.42,102-5.56,92,1.17,81.89S14.13,61.36,18.55,50c4.58-11.84,6.78-24,5.57-36.75-.76-8-1.7-16-2.56-24H20.13A185.239,185.239,0,0,1,23,22.14C22.74,37.75,17.45,52,9.75,65.23c-6.58,11.31-14.22,22-21.4,33-3.59,5.47-7.22,10.92-10.83,16.37Zm0,116v4.65a4.849,4.849,0,0,1,.4.74c3.62,11.71,7.35,23.39,9.59,35.47a154.18,154.18,0,0,1,2.68,30.92,121.15,121.15,0,0,1-6.48,35.53c-1.94,5.92-4.12,11.76-6.19,17.64v3.94a18.88,18.88,0,0,0,.9-1.87c2.07-5.9,4.19-11.78,6.13-17.72,4-12.23,6.77-24.67,7-37.62.29-17.26-2.53-34.05-7.4-50.54-2.06-7-4.19-13.9-6.29-20.85ZM443,215.88c-.15-.16-.37-.29-.44-.48-2.27-5.71-4.79-11.33-6.71-17.14a103.3,103.3,0,0,1-3.52-50.69A88.44,88.44,0,0,1,443,117.78v-2.51a21.62,21.62,0,0,0-1.32,1.86A98.119,98.119,0,0,0,429.4,161.7a109.92,109.92,0,0,0,9.91,49.69c1.21,2.7,2.45,5.38,3.67,8.07ZM-22.48,269.59c.32,2.52.72,5,.95,7.57,1.13,12.92,1.3,25.82-.63,38.69a6.12,6.12,0,0,1-.32,1v8.24c.1-.14.26-.28.28-.42.95-8,2.25-16,2.74-24.09.7-11.56-.5-23.08-1.86-34.56-.31-2.64-.77-5.26-1.16-7.89ZM443,201.2c-.58-3.92-1.35-7.82-1.71-11.76a101.678,101.678,0,0,1,1.15-25.6,18.369,18.369,0,0,1,.56-2v-6.45c-.24.72-.53,1.43-.7,2.17a104.39,104.39,0,0,0-1.74,38.1c.59,4.16,1.61,8.25,2.44,12.36Z" transform="translate(22.48 364.65)" fill="#111121"/>
        </g>
        <rect id="Rectangle_232" data-name="Rectangle 232" width="355.29" height="53.4" rx="10.86" transform="translate(42.94 730.27)" fill="url(#linear-gradient-3)"/>
        <text id="VERIFY_BET_RESULT" data-name="VERIFY BET RESULT" transform="translate(126.87 765.76)" fill="#fff" font-size="19.93" font-family="SegoeUI-Bold, Segoe UI" font-weight="700"><tspan x="0" y="0">VERIFY BET RESU</tspan><tspan y="0" letter-spacing="-0.09em">L</tspan><tspan y="0">T</tspan></text>
        <rect id="Rectangle_233" data-name="Rectangle 233" width="354.51" height="249.74" rx="15.52" transform="translate(43.73 457.63)" fill="#111121"/>
        <text id="Potential_gain_:" data-name="Potential gain :" transform="translate(57.66 688.25)" fill="#fff" font-size="15.78" font-family="SegoeUI-Bold, Segoe UI" font-weight="700"><tspan x="0" y="0" letter-spacing="-0.01em">P</tspan><tspan y="0">otential gain :</tspan></text>
        <circle id="Ellipse_26" data-name="Ellipse 26" cx="8.02" cy="8.02" r="8.02" transform="translate(364.93 673.8)" fill="#ffdb45"/>
        <path id="Tracé_634" data-name="Tracé 634" d="M350.47,309.81a7.37,7.37,0,1,1-7.36,7.37,7.37,7.37,0,0,1,7.36-7.37m0-.65a8,8,0,1,0,8,8A8,8,0,0,0,350.47,309.16Z" transform="translate(22.48 364.65)" fill="#e5c12c"/>
        <circle id="Ellipse_27" data-name="Ellipse 27" cx="5.23" cy="5.23" r="5.23" transform="translate(367.72 676.59)" fill="#e5c12c"/>
        <path id="Tracé_635" data-name="Tracé 635" d="M353.39,314.59l-.11-.07h0l-1.39,2.41h-.06l-.32-.26a1.63,1.63,0,0,0-1-.34,1.59,1.59,0,0,0-1,.34l-.32.26h-.07l-1.39-2.41h0l-.12.07a1.23,1.23,0,0,0-.45,1.67l2.08,3.6h0l.11-.07a1.21,1.21,0,0,0,.45-1.67l-.1-.18.2-.13.32-.26a.46.46,0,0,1,.27-.09.47.47,0,0,1,.28.09l.32.26a1.368,1.368,0,0,0,.2.13l-.11.18a1.23,1.23,0,0,0,.45,1.67l.11.07h0l2.08-3.6a1.21,1.21,0,0,0-.43-1.67Z" transform="translate(22.48 364.65)" fill="#ffdb45"/>
        <text id="_2250" data-name="2250" transform="translate(323.58 687.75)" fill="#39d339" font-size="15.78" font-family="SegoeUIBlack, Segoe UI"><tspan x="0" y="0">2250</tspan></text>
        <text id="Multiplier_:" data-name="Multiplier :" transform="translate(57.66 521.26)" fill="#fff" font-size="15.92" font-family="SegoeUI-Bold, Segoe UI" font-weight="700"><tspan x="0" y="0">Multiplier :</tspan></text>
        <text id="x1.5" transform="translate(323.71 521.21)" fill="#fff" font-size="15.78" font-family="SegoeUIBlack, Segoe UI"><tspan x="0" y="0">x1.5</tspan></text>
        <text id="Your_stake_:" data-name="Your stake :" transform="translate(57.66 484.36)" fill="#fff" font-size="15.92" font-family="SegoeUI-Bold, Segoe UI" font-weight="700"><tspan x="0" y="0" letter-spacing="-0.11em">Y</tspan><tspan y="0">our </tspan><tspan y="0" letter-spacing="-0.009em">s</tspan><tspan y="0">ta</tspan><tspan y="0" letter-spacing="-0.04em">k</tspan><tspan y="0">e :</tspan></text>
        <circle id="Ellipse_28" data-name="Ellipse 28" cx="8.02" cy="8.02" r="8.02" transform="translate(364.93 470.48)" fill="#ffdb45"/>
        <path id="Tracé_636" data-name="Tracé 636" d="M350.47,106.49a7.37,7.37,0,1,1-7.36,7.36,7.37,7.37,0,0,1,7.36-7.36m0-.65a8,8,0,1,0,8,8A8,8,0,0,0,350.47,105.84Z" transform="translate(22.48 364.65)" fill="#e5c12c"/>
        <circle id="Ellipse_29" data-name="Ellipse 29" cx="5.23" cy="5.23" r="5.23" transform="translate(367.72 473.27)" fill="#e5c12c"/>
        <path id="Tracé_637" data-name="Tracé 637" d="M353.39,111.27l-.11-.07h0l-1.39,2.41h-.06l-.32-.26a1.63,1.63,0,0,0-1-.34,1.59,1.59,0,0,0-1,.34l-.32.26h-.07l-1.39-2.41h0l-.12.07a1.23,1.23,0,0,0-.45,1.67l2.08,3.6h0l.11-.07a1.22,1.22,0,0,0,.45-1.67l-.1-.18.2-.13.32-.26a.46.46,0,0,1,.27-.09.47.47,0,0,1,.28.09l.32.26a1.371,1.371,0,0,0,.2.13l-.11.18a1.23,1.23,0,0,0,.45,1.67l.11.07h0l2.08-3.6a1.21,1.21,0,0,0-.43-1.67Z" transform="translate(22.48 364.65)" fill="#ffdb45"/>
        <text id="_1500" data-name="1500" transform="translate(322.21 484.43)" fill="#fff" font-size="15.78" font-family="SegoeUIBlack, Segoe UI"><tspan x="0" y="0">1500</tspan></text>
        <path id="Tracé_638" data-name="Tracé 638" d="M48.6,39l-.47-.27a.11.11,0,0,0-.16,0l-5.89,10.2a1.51,1.51,0,0,1-.28-.15l-1.35-1.07a6.8,6.8,0,0,0-8.42,0l-1.35,1.07a1.43,1.43,0,0,1-.27.15l-5.89-10.2a.11.11,0,0,0-.16,0l-.48.27A5.19,5.19,0,0,0,22,46.05l8.79,15.24a.13.13,0,0,0,.16,0l.48-.28A5.18,5.18,0,0,0,33.31,54l-.44-.77a6,6,0,0,0,.86-.56l1.35-1.07a1.79,1.79,0,0,1,1.16-.39,1.82,1.82,0,0,1,1.17.39l1.35,1.07a6,6,0,0,0,.86.56l-.45.77a5.18,5.18,0,0,0,1.9,7.08l.47.28a.12.12,0,0,0,.16,0l8.8-15.24A5.18,5.18,0,0,0,48.6,39Z" transform="translate(22.48 364.65)" fill="none" stroke="#707070" stroke-miterlimit="10" stroke-width="0.75"/>
        <line id="Ligne_84" data-name="Ligne 84" x2="302.73" transform="translate(95.58 414.66)" fill="none" stroke="#707070" stroke-miterlimit="10" stroke-width="0.75"/>
        <g id="Groupe_91" data-name="Groupe 91" clip-path="url(#clip-path-4)">
          <rect id="Rectangle_234" data-name="Rectangle 234" width="62.31" height="17.03" transform="translate(641.76 556.54)" fill="url(#linear-gradient-4)"/>
        </g>
        <g id="Groupe_92" data-name="Groupe 92" clip-path="url(#clip-path-5)">
          <rect id="Rectangle_235" data-name="Rectangle 235" width="62.31" height="17.03" transform="translate(856.86 556.54)" fill="url(#linear-gradient)"/>
        </g>
      </g>
    </g>
  </g>
</svg>
