<svg xmlns="http://www.w3.org/2000/svg" viewBox="0 0 63.82 82.94"><defs><style>.cls-1{fill:#1b1a33;}</style></defs><g id="Calque_2" data-name="Calque 2"><g id="Calque_1-2" data-name="Calque 1"><path class="cls-1" d="M63.82,0V16.75a7.58,7.58,0,0,1-7.58,7.58H7.62A7.62,7.62,0,0,1,0,16.71V0H15.55V7.87h7.86V0H40.28V7.87h7.86V0ZM57.7,73.63a8.94,8.94,0,0,1-8.56,9.3H15.06A8.94,8.94,0,0,1,6.11,74c0-.13,0-.25,0-.38L7.9,30.05a1.76,1.76,0,0,1,1.76-1.69H54.15a1.74,1.74,0,0,1,1.76,1.69ZM42.63,60.31a10.72,10.72,0,0,0-21.44,0V80.24H42.63Z"/></g></g></svg>