<svg xmlns="http://www.w3.org/2000/svg" xmlns:xlink="http://www.w3.org/1999/xlink" viewBox="0 0 415 195.34"><defs><style>.cls-1{fill:url(#Dégradé_sans_nom_11);}.cls-2{fill:url(#Dégradé_sans_nom_7);}</style><linearGradient id="Dégradé_sans_nom_11" x1="-5.23" y1="53.91" x2="509.2" y2="163.5" gradientUnits="userSpaceOnUse"><stop offset="0" stop-color="#f970fe"/><stop offset="1" stop-color="#b33ced"/></linearGradient><linearGradient id="Dégradé_sans_nom_7" x1="325.2" y1="14.88" x2="-12.36" y2="243.58" gradientUnits="userSpaceOnUse"><stop offset="0" stop-color="#b33ced"/><stop offset="1" stop-color="#f970fe"/></linearGradient></defs><g id="Calque_2" data-name="Calque 2"><g id="Calque_1-2" data-name="Calque 1"><g id="Groupe_de_masques_4" data-name="Groupe de masques 4"><g id="PROFIL"><path class="cls-1" d="M241.11,54.24l-2.31.59C163.14,73.82,53.66,48.34,0,33.17V182.34a13,13,0,0,0,13,13H402a13,13,0,0,0,13-13V5.59C354.63,15.94,303.07,38.46,241.11,54.24Z"/><path class="cls-2" d="M243.42,54.83l-2.31-.59C157.53,33,92.88-.6,0,0V182.34a13,13,0,0,0,13,13H402a13,13,0,0,0,13-13V49.4C360.73,60.23,294.4,67.62,243.42,54.83Z"/></g></g></g></g></svg>