<svg xmlns="http://www.w3.org/2000/svg" xmlns:xlink="http://www.w3.org/1999/xlink" viewBox="0 0 415 195.34"><defs><style>.cls-1{fill:url(#Dégradé_sans_nom_7);}.cls-2{fill:url(#Dégradé_sans_nom_7-2);}.cls-3{fill:url(#Dégradé_sans_nom_7-3);}</style><linearGradient id="Dégradé_sans_nom_7" x1="560.84" y1="337.31" x2="560.1" y2="336.81" gradientTransform="matrix(-565.35, -89.54, -52.72, 332.87, 334926.8, -61957.96)" gradientUnits="userSpaceOnUse"><stop offset="0" stop-color="#b33ced"/><stop offset="1" stop-color="#f970fe"/></linearGradient><linearGradient id="Dégradé_sans_nom_7-2" x1="560.79" y1="337.4" x2="560.05" y2="336.9" xlink:href="#Dégradé_sans_nom_7"/><linearGradient id="Dégradé_sans_nom_7-3" x1="325.2" y1="14.88" x2="-12.36" y2="243.58" gradientTransform="matrix(1, 0, 0, 1, 0, 0)" xlink:href="#Dégradé_sans_nom_7"/></defs><g id="Calque_2" data-name="Calque 2"><g id="Calque_1-2" data-name="Calque 1"><g id="Groupe_de_masques_4" data-name="Groupe de masques 4"><g id="PROFIL"><path class="cls-1" d="M243.42,54.83c51,12.79,117.31,5.4,171.58-5.43V5.59C354.63,15.94,303.07,38.46,241.11,54.24Z"/><path class="cls-2" d="M243.42,54.83l-2.31-.59-2.31.59C163.14,73.82,53.66,48.34,0,33.17V182.34a13,13,0,0,0,13,13H402a13,13,0,0,0,13-13V49.4C360.73,60.23,294.4,67.62,243.42,54.83Z"/><path class="cls-3" d="M243.42,54.83l-2.31-.59C157.53,33,92.88-.6,0,0V182.34a13,13,0,0,0,13,13H402a13,13,0,0,0,13-13V49.4C360.73,60.23,294.4,67.62,243.42,54.83Z"/></g></g></g></g></svg>