<svg xmlns="http://www.w3.org/2000/svg" viewBox="0 0 520 520"><defs><style>.cls-1{fill:#fc534e;}.cls-2{fill:#0c1824;}</style></defs><g id="Calque_2" data-name="Calque 2"><g id="Calque_2-2" data-name="Calque 2"><rect class="cls-1" width="520" height="520"/><rect class="cls-2" x="22.17" y="17.64" width="475.67" height="480.21"/><path class="cls-1" d="M215.66,366.69,131.59,258.08a6.28,6.28,0,0,1-1.31-3.84V153.32a1,1,0,0,1,1.76-.62L300.9,365.47a1,1,0,0,1-.78,1.61H216.45A1,1,0,0,1,215.66,366.69Z"/><path class="cls-1" d="M391,254.38V153.24a1,1,0,0,0-1.77-.61L278,292.87a1,1,0,0,0,.78,1.61H361a1,1,0,0,0,.78-.39l28.07-36.26A5.67,5.67,0,0,0,391,254.38Z"/></g></g></svg>